<svg xmlns="http://www.w3.org/2000/svg" viewBox="0 0 561.76 200"><defs><style>.cls-1{fill:#438d34;}.cls-2{fill:#71b62f;}</style></defs><g id="Layer_2" data-name="Layer 2"><g id="Page_4" data-name="Page 4"><path class="cls-1" d="M135.89,193.9s1.53-49-13.14-63.92c0,0-26-44.56-44.41-59.51,0,0-28.11-31-34.2-33.77,0,0,13.56,9.14,17.44,10,0,0,39,15.22,66.15,40.13,0,0,32.38,26,43.73,60.07l6.65,19.65v16.61Z"/><path class="cls-2" d="M170.11,168.52s3.11-67,7.75-77.78c5-11.63,19.89-44.52,23.8-50.38,1.66-2.49,20.61-31,30.61-34.31l-10,23.87s-15,46.38-15.27,85c0,0-2.51,71.14,3.55,82.78l-40.44-12.54Z"/><path class="cls-2" d="M241.56,199.26s17.65-22,21.42-23.39c0,0,17.6-14.16,26.67-17.6,0,0,14.52-9.26,35.93-10.53l-33.21,30.67S280,196.73,280.4,200Z"/><path class="cls-1" d="M429.33,75.12s-45.27,17.74-54.73,26.57c0,0-30.77,25.39-34.22,34.85,0,0-13.47,25.61-14.8,30.13s-9.9,31.61-11.64,32.59h43.34s12.15-38.4,16.67-44.43c0,0,13.13-26.89,17-29.26,0,0,14.42-22.16,20.87-28Z"/><path class="cls-2" d="M323.43,0s21.86,26.18,28.19,47.18c0,0,19.86,48.64,21.76,116.85v36H405s-2.2-46.27-4.4-50.66c0,0-6.55-59.37-29-91.92Z"/><path class="cls-1" d="M464.42,149.34S443.74,148,408.56,163c0,0-46.25,29.89-51.28,36.28h53.57s13.54-24.84,25-32.76C435.83,166.5,458.7,149.77,464.42,149.34Z"/><path class="cls-2" d="M520.52,79.25A115.64,115.64,0,0,0,478.59,100s-46.68,32.08-61.77,56.68c0,0-12.65,21.23-11.78,43.32l5.81-.74h42s6.43-26.37,16.78-44.54c0,0,13.13-34.38,22.64-45a96.87,96.87,0,0,1,19-24.21Z"/><path class="cls-1" d="M491.37,199.26s2.86-24,0-30.62c0,0-2.21-11.92-4.42-12.58,0,0,21.41,11.81,27.37,43.2Z"/><path class="cls-2" d="M525.35,200s17.66-25.18,31.78-31.8l4.63-2.87s-11.25,20-12.35,33.93Z"/><path class="cls-1" d="M186.24,199.26c-.3-.67,23-56,33.85-69s0-3.32,0-3.32,19.64-29.62,35-33.24c0,0,27.5-13.3,48.05-11.79,0,0,38.08-1.21,54.09,5.44,0,0-40.49,10.28-70.11,31.73,0,0-37.47,34.15-47.44,53.49l-13,26.66Z"/><path class="cls-1" d="M275.63,166.45S258.5,81,249.72,67.55c0,0-17.56-38.27-23.52-43.6,0,0-4.71-8.47-3.77-12.23,0,0,51.71,42.71,61.14,66.21,0,0,23.93,40.79,25,72.6,0,0,6.32,42.35,5.38,48.73L280.4,200Z"/><path class="cls-2" d="M148.88,199.26c-7.48-76.48-71-95.85-71-95.85C44.87,92.19,0,108.17,0,108.17c34.33-6.8,57.44,5.09,57.44,5.09,49.63,32,54.39,86,54.39,86Z"/></g></g></svg>