<svg xmlns="http://www.w3.org/2000/svg" xmlns:xlink="http://www.w3.org/1999/xlink" viewBox="0 0 295.61 133.28"><defs><style>.cls-1{fill:#fff;stroke:#fff;stroke-miterlimit:10;}</style><symbol id="Big_Star" data-name="Big Star" viewBox="0 0 28.3 27.43"><path class="cls-1" d="M27.25,17.56l-9.11.79-4.52,8-3.57-8.43-4-.81-5-1Q4.56,13,8,10L7,1l7.83,4.72L23.15,1.9l-2.07,8.91Z"/></symbol><symbol id="Small_Star" data-name="Small Star" viewBox="0 0 18.89 19.18"><path class="cls-1" d="M12.49,18.15,7.88,14.34,2.12,16l2.2-5.57L2.84,8.21C2.8,8.15,1,5.51,1,5.44l6,.38,3.69-4.71L12.14,6.9,17.76,9l-5.05,3.21Z"/></symbol></defs><g id="Layer_2" data-name="Layer 2"><g id="Page_5" data-name="Page 5"><use width="28.3" height="27.43" transform="translate(107.02 58.37)" xlink:href="#Big_Star"/><use width="28.3" height="27.43" transform="translate(-5.79 114.04) rotate(-24.74)" xlink:href="#Big_Star"/><use width="18.89" height="19.19" transform="translate(9 14.5) rotate(13.96)" xlink:href="#Small_Star"/><use width="28.3" height="27.43" transform="translate(267.31 45.61)" xlink:href="#Big_Star"/><use width="18.89" height="19.19" transform="translate(204.9 0)" xlink:href="#Small_Star"/><use width="18.89" height="19.19" transform="translate(199.84 104.23) rotate(-24.74)" xlink:href="#Small_Star"/></g></g></svg>