<svg xmlns="http://www.w3.org/2000/svg" viewBox="0 0 56.21 97.73"><defs><style>.cls-1{fill:#474746;}.cls-2{fill:#3a3938;}.cls-3{fill:#ede540;}.cls-4{fill:#65b330;}.cls-5,.cls-6,.cls-7{fill:none;}.cls-5,.cls-6{stroke:#82bc43;}.cls-5,.cls-6,.cls-7,.cls-8{stroke-miterlimit:10;}.cls-5{stroke-width:0.5px;}.cls-6{stroke-width:0.15px;}.cls-7{stroke:#85a170;stroke-width:0.25px;}.cls-8{fill:#b01f25;stroke:#fff;stroke-width:0.1px;}</style></defs><g id="Layer_2" data-name="Layer 2"><g id="Page_5" data-name="Page 5"><rect class="cls-1" x="16.63" y="82.64" width="24.17" height="5.65" rx="1.57"/><path class="cls-2" d="M21.43,93.62H36.82a6.78,6.78,0,0,1-6.12,4.11H25.46S21.75,96.28,21.43,93.62Z"/><path class="cls-3" d="M.48,18.44S6.63,1,29.17,0A30.2,30.2,0,0,1,46.84,6.67a30,30,0,0,1,9.37,13.49q0,8.22-.08,16.42-2.52,5.41-5,11.15c-2.8,6.51-5.32,12.87-7.61,19.05l-.62,11.9a3.47,3.47,0,0,1-3.13,2.08c-2.51.21-23.6,0-23.6,0S15,80.14,14.74,77s-1.25-16.29-5-22.13c0,0-8.06-17.75-9.25-20.05C.48,34.83-.61,20.77.48,18.44Z"/><rect class="cls-1" x="16.63" y="89.07" width="24.17" height="5.65" rx="1.57"/><path class="cls-4" d="M28.18,65a.41.41,0,0,0,0,.23,4.63,4.63,0,0,1,.06.92.68.68,0,0,0-.49,0s.32.14.34.25.05.25.15.26-.31,1.82-.49,2.32a1.34,1.34,0,0,0-.4-.15.58.58,0,0,1,.17.27,3.28,3.28,0,0,1,0,.43v.13L27,71.33a5.2,5.2,0,0,1-.87-.62s-1-1.87-1.09-2v.53s-.84-1.85-5.26-2.83l-1.25-.14s-.08.13,0,.13a1.07,1.07,0,0,1,.54.53,4.76,4.76,0,0,0,.45,1,6.07,6.07,0,0,0,1.13,2.83s1.76,1.42,2.53,1.37c0,0,1.93-.23,2.37-.72a.74.74,0,0,1,.49-.15,4.65,4.65,0,0,1,.85.5l-1.33,3s-.31-.28-.5-.27c0,0,.16.15.16.27a1.82,1.82,0,0,0,0,.46l.08.18a14.82,14.82,0,0,0-.65,2,1,1,0,0,1-.16-.33c0-.09-.06-1,0-1.45l-.17.28s-.18-1-.34-1l0,.29S22.21,73,20.76,72.8a1.9,1.9,0,0,1,.28.42c0,.08.3,1.33.3,1.48s.44,2.15,1.3,2.44a1.11,1.11,0,0,0,1.05.07,1.31,1.31,0,0,1,.42,0l.35.5L24,79.76a2.8,2.8,0,0,0,0,.95l1-.48a15.4,15.4,0,0,1,.1-1.83s.32-1.66.41-1.89c0,0,.68-2.12.84-2.46a2.69,2.69,0,0,0,.89-.3,7.48,7.48,0,0,1,1.53.06,5.32,5.32,0,0,0,1,.12l-.41-.31H30s3.78-1.19,4.69-2.7c0,0,.2-.45.43-.56l.42-.38v-.19A.69.69,0,0,1,35,70,7.72,7.72,0,0,1,33,69.5a8.66,8.66,0,0,0-3,.16s-1.74.48-2.15,1.2c0,0-.75.21-.47,2.28a2.74,2.74,0,0,1-.87.51l.26-.59s.25-.26.48-.23a.29.29,0,0,0-.32-.25l.41-1s.32-1,.42-1.19.34-.88.34-.88a6.13,6.13,0,0,0,.25-.88s0,0,.12,0,.2-.22.3-.23l.31,0a.56.56,0,0,0-.41-.23l-.17,0s.18-1.09.18-1.34c0,0,.06-.76.08-1.28a2.23,2.23,0,0,1,.34-.27h.34a.88.88,0,0,0-.39-.24.44.44,0,0,0-.29,0h0l-.14-.08h0Z"/><path class="cls-5" d="M25.31,74.89s0,.18,0,.22l0,0s.08-.09.08-.14A.17.17,0,0,0,25.31,74.89Z"/><path class="cls-5" d="M27.65,69.17s0,.06,0,.08l0,0,0,0S27.69,69.17,27.65,69.17Z"/><path class="cls-5" d="M28.25,68.4a.54.54,0,0,1,.2-.09h.05s0,.1-.08.12S28.27,68.46,28.25,68.4Z"/><path class="cls-5" d="M28.65,65.29a.52.52,0,0,1,.16-.09h.05s0,.12-.07.13A.11.11,0,0,1,28.65,65.29Z"/><path class="cls-6" d="M21.07,67.84a1.65,1.65,0,0,0,.63.77s.92.86,1,1.16"/><path class="cls-6" d="M23.62,68.85a1,1,0,0,0,.42.38,2.64,2.64,0,0,1,.83,1.3"/><path class="cls-6" d="M22.25,70.49a.85.85,0,0,1,.2,0,1,1,0,0,1,.21,0l.34-.15a3,3,0,0,1,.55-.13H24"/><path class="cls-6" d="M20.81,69.4a2.08,2.08,0,0,0,.65.22l.75,0"/><path class="cls-6" d="M23.54,75.34a1.28,1.28,0,0,0,.17.43,1.73,1.73,0,0,1,.07.8"/><path class="cls-6" d="M22.34,75.88a.89.89,0,0,0,.32.14,2.49,2.49,0,0,1,.48.06l.25.09"/><path class="cls-6" d="M22.48,74.22a.92.92,0,0,0,.05.39,4.05,4.05,0,0,1,.25.65v.35"/><path class="cls-6" d="M21.91,75s.23.26.29.27l.37.11"/><path class="cls-6" d="M29.84,70.7a2.56,2.56,0,0,0-.3.62,2.41,2.41,0,0,1-.2.62l-.27.35"/><path class="cls-6" d="M31.56,70.09a4.18,4.18,0,0,0-.55.46,1,1,0,0,0-.22.46"/><path class="cls-6" d="M30.28,71.44a1.48,1.48,0,0,0,.58,0,2.87,2.87,0,0,0,.7-.18,5.91,5.91,0,0,1,.63-.09,1.72,1.72,0,0,1,.57,0"/><path class="cls-6" d="M28.37,72.78a2,2,0,0,0,.81.16,1.55,1.55,0,0,0,.62-.08,2,2,0,0,1,.68-.16"/><path class="cls-7" d="M21.31,73.16a11.75,11.75,0,0,0,1.09,2,8.14,8.14,0,0,0,.9.93s.81.8.89.91"/><path class="cls-7" d="M25.71,70.84l-2.08-.76a11.19,11.19,0,0,1-2.33-.91,8.73,8.73,0,0,1-1.64-1.7l-.47-.76"/><path class="cls-7" d="M26.41,73.84a6.65,6.65,0,0,0,2-1.06l1.54-1.08a5.89,5.89,0,0,0,.88-.69,8.88,8.88,0,0,1,1.52-.62s1-.15,1.2-.15c0,0,1,0,1.22,0"/><path class="cls-8" d="M21.38,48s1.34-2.37,2.51-2.94c0,0,2-1.36,2.33-1.55a10.55,10.55,0,0,0,1.61-.19s2-.24,3.15,2.72c0,0-.92.59-1.22.42a1,1,0,0,1-.41-.6s-.67.21-1,0-.39-.67-.81-.76A7.07,7.07,0,0,0,25.81,45a2.64,2.64,0,0,0-1.2,2.21,5.62,5.62,0,0,0,.46,2.48,5.7,5.7,0,0,1-.33,3.1s-.2.44-.34.31a3.74,3.74,0,0,1-.71-1.42,5.36,5.36,0,0,0-1.41-2.61s-.67-.62-.74-.73S21.38,48,21.38,48Z"/><path class="cls-8" d="M30.23,44.64a6.57,6.57,0,0,1,2-.6,5.42,5.42,0,0,1,3.1,1.22c.72.86,1.19.72,1.6,2a11.64,11.64,0,0,1-.13,1.85A11.15,11.15,0,0,1,35,51.93,6.6,6.6,0,0,1,34.16,53c-.34.29-.29,0-.29,0a1.4,1.4,0,0,0,.34-.67,3.76,3.76,0,0,0,0-.87,7.14,7.14,0,0,1,.06-.87,2.65,2.65,0,0,1,.18-.83c.24-.47.54-.37.87-.9a1.55,1.55,0,0,0,.27-.92,1.42,1.42,0,0,0-.13-.55,1.81,1.81,0,0,0-.56-.77.9.9,0,0,0-.56-.31c-.3,0-1,.09-1,0s-.3-.41-1.49-.44c0,0-.86-.07-.8.15A8.11,8.11,0,0,0,30.23,44.64Z"/><path class="cls-8" d="M25.07,49.71s.72.62.76.39,0-1.33.18-1.44a2.21,2.21,0,0,1-.31-1.54s.46-1,1-1c0,0,2,.11,1.74-.2a2.47,2.47,0,0,0-.81-.76A6.57,6.57,0,0,0,25.81,45a2.55,2.55,0,0,0-1.2,2A7.13,7.13,0,0,0,25.07,49.71Z"/><path class="cls-8" d="M29.5,46.8a1.83,1.83,0,0,1,.41-.3,1.12,1.12,0,0,0,.65-.22l.42-.23s-.05-.18.47-.16a4,4,0,0,1,1.58.28l.24.17a2.2,2.2,0,0,1,0,1c-.14.51-.06.93-.35,1.13a7.66,7.66,0,0,1-1.5-1.08,1.46,1.46,0,0,0-1.06-.52S29.66,46.63,29.5,46.8Z"/><path class="cls-8" d="M33.08,50.3a10.51,10.51,0,0,1,1.35-.55,1.11,1.11,0,0,1,.33-.38c.21-.14.51-.32.54-.52a1.9,1.9,0,0,0,.27-.84,2,2,0,0,0-.69-1.4,1.28,1.28,0,0,0-.56-.31l-1,0a1.92,1.92,0,0,1,0,.81l-.21,1.09-.19.26Z"/><path class="cls-8" d="M29.5,46.8a1.62,1.62,0,0,0-1.18.26c-.41.38-1.85,1.4-1.8,1.65v.2l-.5-.25s-.57-.92-.31-1.54c0,0,.46-1,1-1,0,0,1.68.16,1.74-.2a1.3,1.3,0,0,0,1,0,.9.9,0,0,0,.41.6l.15,0Z"/><path class="cls-8" d="M28.08,52.93,26.18,51a1.5,1.5,0,0,1-.35-.93s-.16.17-.76-.39A5.86,5.86,0,0,1,25,52.28a1.31,1.31,0,0,1-.21.53s-.15.28-.34.31a1.77,1.77,0,0,1,.64,0,.57.57,0,0,1,.59-.36,4,4,0,0,1,.77,0,8.32,8.32,0,0,0,1.13.8s.43-.09.43-.2A2.57,2.57,0,0,1,28.08,52.93Z"/><path class="cls-8" d="M29.07,51.5a5.09,5.09,0,0,0-1-1.2s-1.74-1-2-1.64a4.35,4.35,0,0,0-.18,1.44s-.29.47,1.53,2.11l.72.72S28.86,51.73,29.07,51.5Z"/><path class="cls-8" d="M32.92,48.5a10.34,10.34,0,0,0-1.63,1.37s-1.95,1.69-2.22,1.63a6,6,0,0,0-1.3-1.36s-1.45-.75-1.76-1.48l.5.25v-.2a4,4,0,0,1,.59-.67l1-.78a2.87,2.87,0,0,1,.56-.39,1.91,1.91,0,0,1,.86-.07.23.23,0,0,1,.22-.06s.54,0,.64.16a2.27,2.27,0,0,1,.75.24s.56.54.76.68Z"/><path class="cls-8" d="M33.08,50.3s0,.09-.36.38-1.59.71-1.82,1.1-1.79,1.8-1.83,2.33l-.18.09s-1.3-.37-1.36-.63c0,0,.41-.08.43-.2l.12-.44a10,10,0,0,1,1-1.43,2.71,2.71,0,0,0,.92-.57s1.2-1,1.3-1.06a4.36,4.36,0,0,1,.75-.71l.88-.66Z"/><path class="cls-8" d="M33.24,54.65A3.26,3.26,0,0,1,33.87,53a2.36,2.36,0,0,0,.34-.67s0-.28,0-.57a6.49,6.49,0,0,1,0-1s.12-.76.16-.86l0-.09a10.08,10.08,0,0,0-1.35.55,2.66,2.66,0,0,1-1.34.9s-.82.4-.84.58a9.58,9.58,0,0,1-1,1.07,7.2,7.2,0,0,0-.8,1,.35.35,0,0,0-.07.22v.17a7.37,7.37,0,0,0,1.38.37,11.57,11.57,0,0,0,1.37.15s.9.08,1.2.06C33,54.86,33.22,54.79,33.24,54.65Z"/><path class="cls-8" d="M33.24,54.65s1.42-.7,1.55-1.08c0,0,.24-1.14.05-1.41a5.9,5.9,0,0,1-.68.83s-.12.17-.28.09V53a2.36,2.36,0,0,0-.43.76A4.41,4.41,0,0,0,33.24,54.65Z"/><path class="cls-8" d="M25,53.12a1.23,1.23,0,0,1,.59.12,10.76,10.76,0,0,0,1.9,1.12,11.15,11.15,0,0,0,3,1.38,16.49,16.49,0,0,0,1.81.32,2.18,2.18,0,0,0,.94.06s1.63-.89,1.61-1.09c0,0,1.22-1.21,1.17-1.82v-.09s-1,.42-1.11.29h-.09s0,.24-.32.48a7.32,7.32,0,0,1-.84.54l-.42.22s0,.13-.22.21a14.14,14.14,0,0,1-1.62-.09,8.75,8.75,0,0,1-2.33-.49v-.17l-.18.09a3.23,3.23,0,0,1-1.36-.63,6.31,6.31,0,0,1-1.13-.8,3.37,3.37,0,0,0-.77,0A.62.62,0,0,0,25,53.12Z"/><path class="cls-8" d="M21.61,47.62s-.07-.09-.61,0a5.93,5.93,0,0,0-2.2,1.82c-.28.49-1.46,2-1.48,2.72A22.27,22.27,0,0,0,17,55.49a4.18,4.18,0,0,0-.23,1.2,8.17,8.17,0,0,1,1.32,1,11.66,11.66,0,0,0,2.67,1.53,6.55,6.55,0,0,1,1.61.66,14,14,0,0,0,1.85,0s1.7.25,2,.25A5,5,0,0,0,27.83,60s1-.33,1.24-.35l.91-.1a20.08,20.08,0,0,0-2.22-.69A8.72,8.72,0,0,1,26,58.19a3,3,0,0,1-1.11-.26A5.86,5.86,0,0,1,23,57.12a3.92,3.92,0,0,1-.65-1.34l-.18-.07-.32.44a6.09,6.09,0,0,0-.44-.62,6,6,0,0,0-.58-.62c-.16-.2-.33-.42-.5-.67l-.3-.49a9.15,9.15,0,0,1-.6-1.62c0-.12-.06-.31-.12-.54a2.84,2.84,0,0,1-.14-.5c0-.37.69-.36.83-.94a2,2,0,0,1,.44-.93s.22-.7.56-.87l.4-.34Z"/><path class="cls-8" d="M21.38,48l-.4.34a1.36,1.36,0,0,0-.56.87,1.6,1.6,0,0,0-.44.93.63.63,0,0,1-.39.5s-.4.17-.44.44c0,0,.16.53.26,1a7.72,7.72,0,0,0,.68,1.74A6.41,6.41,0,0,0,20.9,55a9.53,9.53,0,0,1,.93,1.15l.32-.44.18.07a.93.93,0,0,1,.75,0,4.67,4.67,0,0,0,2.15.43,5.41,5.41,0,0,1,1.68.35,1,1,0,0,0,.53.14s1.06,0,1.48,0a1.31,1.31,0,0,1-.68-.45,5.61,5.61,0,0,1-1.58-.54,5.63,5.63,0,0,1-1.52-.69s-1-.64-1.38-1a1.46,1.46,0,0,1-.64-.42c-.25-.3-1.13-1.3-1.28-1.52s-1.19-.67-1.26-1,0-1.12.22-1.31a2.74,2.74,0,0,1,.7-.32l.21-.08a9.83,9.83,0,0,0,1.48,2.92s.27,0,.39-.33l.11-.36h0s-.54-2-1.41-2.61l-.74-.73Z"/><path class="cls-8" d="M30,59.56a1.48,1.48,0,0,0,.33-1,2.21,2.21,0,0,0-1.39-1.76h-1.6a1.5,1.5,0,0,1-.59-.23,6.76,6.76,0,0,0-1.5-.26s-1,.06-1.19-.1a3.49,3.49,0,0,1-1-.33,1.14,1.14,0,0,0-.75,0A3.12,3.12,0,0,0,23,57.12a4,4,0,0,0,1.88.81,3.06,3.06,0,0,0,1.11.26,13.45,13.45,0,0,0,1.6.65,4.78,4.78,0,0,1,1.32.34Z"/><path class="cls-8" d="M23.19,52.39a2.8,2.8,0,0,0-.28,1,1.85,1.85,0,0,0,.85.66L24,54a1.14,1.14,0,0,1,.28-.55l.08-.33a3.82,3.82,0,0,1-.32-.47,3.92,3.92,0,0,1-.4-.89.88.88,0,0,1-.08.27A.82.82,0,0,1,23.19,52.39Z"/><path class="cls-8" d="M23.19,52.39a2.46,2.46,0,0,0-.28,1l-1.07-1.28a2.66,2.66,0,0,0-.72-.49s-.45-.26-.54-.49A2.76,2.76,0,0,1,20.71,50a2.37,2.37,0,0,1,.79-.42l.21-.08a10.91,10.91,0,0,0,.5,1.28A7.7,7.7,0,0,0,23,52.14Z"/><path class="cls-8" d="M36.92,47.58l.94.43a19.51,19.51,0,0,0,1.92.9,8.82,8.82,0,0,0-1.12,2.73,3.59,3.59,0,0,0-.24,1.93,3.54,3.54,0,0,0-.9.82c-.31.42-.38.74-.71.83s-.39-.08-.67,0a1.11,1.11,0,0,0-.42.39,11.2,11.2,0,0,1-.75.87l-.63.47-.9.66L33,57.8A4.81,4.81,0,0,0,34,57s.5-1,.58-1.17l.32-.82A7.24,7.24,0,0,0,36,53.55a.86.86,0,0,0,.07-.43,2.61,2.61,0,0,1-1.2.29,2.89,2.89,0,0,0,0-1.25S36,50.78,36,50.62a6.64,6.64,0,0,0,.8-1.48A9.49,9.49,0,0,0,36.92,47.58Z"/><path class="cls-8" d="M31.2,59a2.19,2.19,0,0,0,1.15,0l.13-.21a2.21,2.21,0,0,0,1.3-.32s1.63-.64,2-1.47a2.17,2.17,0,0,1-.06-.58A11.68,11.68,0,0,1,33.24,58l-1,.33-.71.4Z"/><path class="cls-8" d="M36.81,55.22a2.83,2.83,0,0,1-.36.67,4,4,0,0,1-.72.52l-1.22.89a5.62,5.62,0,0,1-1,.6l-1,.34-.21.07L33,57.8l.41-.16,1.19-.88.34-.25.64-.73s.36-.51.53-.53a.43.43,0,0,1,.33,0s.2,0,.24,0Z"/><path class="cls-8" d="M34.85,55a12.09,12.09,0,0,1-.9,2,9.65,9.65,0,0,1-2.2,1.57,3.15,3.15,0,0,0-1.12,1.11v.37s-.35-.55-.65-.51a1.85,1.85,0,0,0,.3-1.24,2.32,2.32,0,0,0-1.36-1.56,1.55,1.55,0,0,1-.68-.45,5.27,5.27,0,0,1-1.58-.54,5.23,5.23,0,0,1-1.35-.56l-1-.67-.58-.44L24,54s.11-.45.28-.55l.08-.33a1.29,1.29,0,0,1,.64,0,1.12,1.12,0,0,1,.74.22,12.66,12.66,0,0,0,1.39.88.8.8,0,0,0,.36.14,7.9,7.9,0,0,0,1.22.7,6.3,6.3,0,0,0,1.74.68,16.81,16.81,0,0,0,1.81.32,2.11,2.11,0,0,0,.94.06s1.29-.75,1.33-.81Z"/><path class="cls-8" d="M30.77,60.35l1.67-.56a3.67,3.67,0,0,1-.61-.38,1.45,1.45,0,0,0-.53,0s-.35.32-.39.52a.4.4,0,0,0,0,.21Z"/><path class="cls-8" d="M38.11,57.89a1.81,1.81,0,0,1-.08.75,2.24,2.24,0,0,1-.36.82,3.64,3.64,0,0,1-1.14.54,18.25,18.25,0,0,0-2.17.8,8.72,8.72,0,0,1-2.53.8s-.9.11-1.15.18c0,0,.12.07-.63,0l-.07,0a2.58,2.58,0,0,0,.73-.68,1.19,1.19,0,0,0,.06-.75l-.14-.28V59.7s.19-.37.29-.41l.28-.3a2,2,0,0,0,1.15,0l.13-.21a2.37,2.37,0,0,0,1.3-.32,5.24,5.24,0,0,0,1.12-.58,2.07,2.07,0,0,0,.89-.89,1.59,1.59,0,0,1-.06-.58,3,3,0,0,0,.67-.47,2.7,2.7,0,0,0,.41-.72s.27-.08.34-.26a3.78,3.78,0,0,1,1-1.18l.3-.21a3.25,3.25,0,0,1,.24-1.93,2.11,2.11,0,0,1,.15-.72,4.63,4.63,0,0,1,.31-.75l.33-.67a1,1,0,0,0,.28.36c.19.13.68.82.89.88a9.6,9.6,0,0,1,1,1.87l.14.24a1.6,1.6,0,0,0-1.06.85s-.8.69-.86,1.09a10.62,10.62,0,0,0-1.46,2.37l-.19.58a2.87,2.87,0,0,1-.78.68,23.31,23.31,0,0,1-3.2,1.36,6.14,6.14,0,0,0-.75.54,4.74,4.74,0,0,0-1-.51,6,6,0,0,1-.66-.4,1.72,1.72,0,0,0-.53,0s-.44.4-.43.73l-.1.23"/><path class="cls-8" d="M21,59.31a1.15,1.15,0,0,0,.27.76,3,3,0,0,0,1.57,1,1.9,1.9,0,0,1,.69.15,7.37,7.37,0,0,1,1.06.65s5.09,0,5.41,0c0,0,.66-.44.73-.68a1.19,1.19,0,0,0,.06-.75l-.14-.28s-.38-.54-.65-.51l-.91.1S28,60,27.83,60a1.29,1.29,0,0,1-.33.1,8.79,8.79,0,0,1-1.26,0l-.58,0-1.44-.2s-.75.05-1.3,0l-.55,0A5,5,0,0,0,21,59.31Z"/><path class="cls-8" d="M30.63,60.07A3.62,3.62,0,0,1,29.5,61.8l.48,0a5.29,5.29,0,0,0,.54-.43,1.09,1.09,0,0,0,.25-1Z"/><path class="cls-8" d="M22.2,60.82s-1,.25-1.85.41c0,0-1.19.61-1.52.75v.17a2.24,2.24,0,0,1,1.24.44,17.66,17.66,0,0,1,3.11,1.69,12.19,12.19,0,0,0,1.94,1,5.09,5.09,0,0,1,1.53.52s2,.42,2.19.42l.64-.12c.33,0,.64-.1.95-.13l.23,0,.49-.05a5.3,5.3,0,0,1,1.1,0l.84.32s.55-.82.91-.87a4,4,0,0,1,1.89-1,4.12,4.12,0,0,1,1-.33s1.34-1.36,1.68-1.83c0,0,1-1.66,1.44-1.79h.39a2.21,2.21,0,0,1-.08-1,8.41,8.41,0,0,0,.23-1.57s0-1.51,0-1.77v-.46s-.3-.76-.69-.72a15.15,15.15,0,0,0-1,1.48,2.88,2.88,0,0,0-.27.49c0,.09-.06.15-.15.4s-.11.35-.19.58c0,0-.17.06-.13.63a6.77,6.77,0,0,1-.37,1,1,1,0,0,1-.37.27,4.81,4.81,0,0,1-.65.28l-1,.32s-1,.35-1.11.41a1.21,1.21,0,0,0-.25.13l-.56.25a10.38,10.38,0,0,1-1.22.42s-.31,0-.75.13a8.23,8.23,0,0,0-1.15.18s0,.08-.63,0l-.07,0-.48,0-2.12,0H24.57a7.71,7.71,0,0,0-1.06-.65,1.53,1.53,0,0,0-.69-.15A1.49,1.49,0,0,1,22.2,60.82Z"/><path class="cls-8" d="M18.09,57.72s-1.1.34-1.32.82a6.89,6.89,0,0,0-.31,1.63A6.52,6.52,0,0,1,16,62.12s1.46.15,1.94.78a5.71,5.71,0,0,0,.82,1,6.76,6.76,0,0,0,2.17,1.39,1.14,1.14,0,0,1,.32-.29,2.23,2.23,0,0,0,.41-.27l.06,0,.08,0,0,0,.5-.09,1.05-.11s-1.26-.82-1.5-.94a15.35,15.35,0,0,1-1.92-1,2.17,2.17,0,0,0-1.13-.36V62l1.52-.75,1.85-.41a2.91,2.91,0,0,1-.9-.7,1,1,0,0,1-.32-.81,4.58,4.58,0,0,1-1.2-.49,16.38,16.38,0,0,1-1.54-1Z"/><path class="cls-8" d="M40.55,56.25a1.29,1.29,0,0,1,.63.06,5.21,5.21,0,0,0,1.3.86l.17.07a3.82,3.82,0,0,1,.17,1.53c-.09.7-.3,2.44-.34,2.95V63s-.59-.15-.78.06a1.9,1.9,0,0,0-1,.51l-.68.58a6.2,6.2,0,0,0-1.36.67H36.92l-.75-.31v-.36a3.59,3.59,0,0,1,.74-.21l.88-.92a8.86,8.86,0,0,0,.8-.91s.74-1.15.85-1.24.44-.53.59-.55h.39a2.78,2.78,0,0,1-.12-.8,5.71,5.71,0,0,1,.14-.75,9.28,9.28,0,0,0,.13-1.06Z"/><path class="cls-8" d="M26.51,48.91a9.36,9.36,0,0,0,1.72.72,13.86,13.86,0,0,0,2.18.12,7.28,7.28,0,0,0,.78-.28s.22,0,.25.24c0,0-.33.33-1,.86l-.74.6a3.62,3.62,0,0,1-.64.33,6.4,6.4,0,0,0-.9-1,1.73,1.73,0,0,0-.58-.42s-.72-.45-.92-.62c0,0-.64-.52-.66-.76Z"/><path class="cls-8" d="M27.21,49.25s-.54-.34.72-1.24c0,0,.43-.72.79-.82,0,0,1.13-.2,1.51.2a3.56,3.56,0,0,1,1.42,1.11,6.56,6.56,0,0,1,.1.88l1.17-.88-1.05-.68a4.49,4.49,0,0,1-.45-.4l-.31-.28a2.57,2.57,0,0,0-.75-.24,1.73,1.73,0,0,0-.64-.16s-.17-.05-.22.06a2.79,2.79,0,0,0-.86.07,2.38,2.38,0,0,0-.72.52l-.48.39a5.55,5.55,0,0,0-.55.46l-.37.47v.2Z"/><path class="cls-8" d="M30.13,47.58a.92.92,0,0,0-.87.08l-1.12,1a.65.65,0,0,0-.06.94l-.87-.35s-.32-.18.15-.75a2.22,2.22,0,0,1,.48-.42l.09-.07a2.72,2.72,0,0,1,.46-.59s.2-.21.33-.23a4.08,4.08,0,0,0,.48,0h.4a1.34,1.34,0,0,1,.56.18l.07.06Z"/><path class="cls-8" d="M30.85,48.52a1.74,1.74,0,0,0-.94-.15,1.35,1.35,0,0,0-.6.21.38.38,0,0,0-.24.39v.15a3.75,3.75,0,0,0,.84.05s.15-.11.05-.2-.55.05-.65-.06,0-.15.19-.25a1.13,1.13,0,0,1,.46-.08A5.48,5.48,0,0,1,30.85,48.52Z"/><path class="cls-8" d="M29.72,48.37s-.74-.2-1.06.21c0,0-.44.26-.08.54a2.53,2.53,0,0,0,1.5.15.81.81,0,0,0,.77-.46.44.44,0,0,0,0-.21l.14.1a1.2,1.2,0,0,1,.29.33s0,.38-.11.44l-.55.2-.23.08a5.59,5.59,0,0,1-1.17,0l-.78-.07-.23,0-.15,0s-.14-.08-.17-.48a.69.69,0,0,1,.28-.51l.49-.43S29.66,48.15,29.72,48.37Z"/><path class="cls-8" d="M30.13,47.58l.1-.19a4.09,4.09,0,0,1,1.32,1l.1.15a5.35,5.35,0,0,1,.1.88l-.31.33a.22.22,0,0,0-.25-.24A.6.6,0,0,0,31.3,49s-.2-.35-.43-.43l0-.08a1.88,1.88,0,0,0-.72-.17,2.28,2.28,0,0,0-.37,0l0,0a.13.13,0,0,0-.07-.08,1.19,1.19,0,0,0-.25-.07s-.31,0-.47,0h-.25l.58-.52a.9.9,0,0,1,.51-.15.84.84,0,0,1,.28,0Z"/></g></g></svg>