<svg xmlns="http://www.w3.org/2000/svg" viewBox="0 0 56.21 97.73"><defs><style>.cls-1{fill:#474746;}.cls-2{fill:#3a3938;}.cls-3{fill:#f0f0f0;}</style></defs><g id="Layer_2" data-name="Layer 2"><g id="Page_5" data-name="Page 5"><rect class="cls-1" x="16.63" y="82.64" width="24.17" height="5.65" rx="1.57"/><path class="cls-2" d="M21.43,93.62H36.82a6.78,6.78,0,0,1-6.12,4.11H25.46S21.75,96.28,21.43,93.62Z"/><path class="cls-3" d="M.48,18.44S6.63,1,29.17,0A30.2,30.2,0,0,1,46.84,6.67a30,30,0,0,1,9.37,13.49q0,8.22-.08,16.42-2.52,5.41-5,11.15c-2.8,6.51-5.32,12.87-7.61,19.05l-.62,11.9a3.47,3.47,0,0,1-3.13,2.08c-2.51.21-23.6,0-23.6,0S15,80.14,14.74,77s-1.25-16.29-5-22.13c0,0-8.06-17.75-9.25-20.05C.48,34.83-.61,20.77.48,18.44Z"/><rect class="cls-1" x="16.63" y="89.07" width="24.17" height="5.65" rx="1.57"/></g></g></svg>