<svg xmlns="http://www.w3.org/2000/svg" viewBox="0 0 151.39 151.39"><defs><style>.cls-1{fill:#f0f8fe;}.cls-2{fill:#edb4d3;}</style></defs><g id="Layer_2" data-name="Layer 2"><g id="Page_5" data-name="Page 5"><circle class="cls-1" cx="75.7" cy="75.7" r="75.7"/><path class="cls-2" d="M110.32,51.81l-9.39-9.39a2.81,2.81,0,0,0-4,0L75.7,63.67,54.44,42.42a2.81,2.81,0,0,0-4,0l-9.39,9.39a2.81,2.81,0,0,0,0,4L62.32,77.05,43.77,95.6a2.83,2.83,0,0,0,0,4L53.16,109a2.82,2.82,0,0,0,4,0L75.7,90.42,94.24,109a2.82,2.82,0,0,0,4,0l9.39-9.39a2.81,2.81,0,0,0,0-4L89.07,77.05l21.25-21.26A2.81,2.81,0,0,0,110.32,51.81Z"/></g></g></svg>