<svg xmlns="http://www.w3.org/2000/svg" viewBox="0 0 170.22 202.94"><defs><style>.cls-1{fill:#65371e;}.cls-2{fill:#d9cba8;}.cls-3{fill:#96664c;}.cls-4,.cls-7{fill:#c58a3f;}.cls-5{fill:#881811;}.cls-6{fill:#ddceac;}.cls-7{font-size:21px;font-family:Baskerville;}.cls-8{letter-spacing:-0.05em;}.cls-9{letter-spacing:0em;}.cls-10{letter-spacing:-0.13em;}.cls-11{letter-spacing:0em;}.cls-12{letter-spacing:-0.08em;}.cls-13{fill:none;stroke:#1d1d1b;stroke-miterlimit:10;}.cls-14{fill:#424241;}</style></defs><g id="Layer_2" data-name="Layer 2"><g id="Page_3" data-name="Page 3"><rect class="cls-1" x="0.41" y="21.35" width="153.26" height="181.09"/><path class="cls-2" d="M.41,21.35,32.78,1.06c102.05-1.57,137.4-1.24,137.44,0,0,.18-.76.37-3.59,2-2,1.19-3.45,2.14-5.34,3.43a89.48,89.48,0,0,0-8,6,25.74,25.74,0,0,0-2.54,2.61c-.26.31-.52.61-.84,1a9,9,0,0,0-1.68,3.19,6.64,6.64,0,0,0-.19,2Z"/><path class="cls-3" d="M153.66,202.44s5-17.35,16.56-11.89V1.06s-23.09,12.16-22.14,20.29h5.58Z"/><path class="cls-4" d="M.41,38.58a41.29,41.29,0,0,1,28.38,0v1.6a54.69,54.69,0,0,0-28.38.51Z"/><path class="cls-4" d="M.68,75.83a41.13,41.13,0,0,1,28.38,0v1.6a54.85,54.85,0,0,0-28.38.5Z"/><path class="cls-4" d="M.77,113.07a41.29,41.29,0,0,1,28.38,0v1.6a54.69,54.69,0,0,0-28.38.51Z"/><path class="cls-4" d="M.59,150.32a41.13,41.13,0,0,1,28.38,0v1.6a54.44,54.44,0,0,0-15.74-1.57A55.3,55.3,0,0,0,.59,152.42Z"/><path class="cls-4" d="M.86,187.56a41.29,41.29,0,0,1,28.38,0v1.6a54.69,54.69,0,0,0-28.38.51Z"/><path class="cls-5" d="M13.92,21.35A64.44,64.44,0,0,1,50.91.79l-18.13.27L.5,21.35Z"/><line class="cls-6" x1="157.6" y1="9.03" x2="157.6" y2="194.3"/><line class="cls-6" x1="164.16" y1="189.67" x2="164.16" y2="113.8"/><line class="cls-6" x1="164.16" y1="100.41" x2="164.16" y2="4.6"/><text class="cls-7" transform="translate(42.19 86.01)">HIS<tspan class="cls-8" x="35.65" y="0">T</tspan><tspan class="cls-9" x="49.34" y="0">O</tspan><tspan class="cls-10" x="66.62" y="0">R</tspan><tspan class="cls-11" x="79.2" y="0">Y </tspan><tspan x="32.27" y="31.5">OF </tspan><tspan class="cls-12" x="15.98" y="63">R</tspan><tspan x="29.55" y="63">OSES</tspan></text><rect class="cls-13" x="0.5" y="21.35" width="28.38" height="181.09"/><line class="cls-14" x1="39.34" y1="10.68" x2="155.58" y2="10.68"/><line class="cls-14" x1="43.38" y1="17.7" x2="149.15" y2="17.7"/><line class="cls-14" x1="165.67" y1="3.66" x2="54.46" y2="3.66"/></g></g></svg>