<svg xmlns="http://www.w3.org/2000/svg" viewBox="0 0 238.66 139.48"><defs><style>.cls-1{fill:#d9cba8;}.cls-2{fill:none;stroke:#aca6a4;stroke-miterlimit:10;stroke-width:0.25px;}.cls-3{fill:#65371e;}.cls-4{fill:#881811;}</style></defs><g id="Layer_2" data-name="Layer 2"><g id="Page_3" data-name="Page 3"><path class="cls-1" d="M10.62,20.74s7.07,6.1,19.51,4.15c0,0,25.6-6.5,32.18-13.86,0,0,18.53-8.33,23.65-8.82,0,0,11.94-2.68,18.77,0L155.44,87.3s-23.41-2-27.79-1.46-20,4.14-23.41,6.09S75,106.56,71.57,106.56s-14.63,1.71-14.63,1.71q-10-20.92-21.55-42.88Q23,42,10.62,20.74Z"/><path class="cls-1" d="M237.35,86.08a21.07,21.07,0,0,1-10.48,0c-5.85-1.46-29-9-32.18-9.51s-14.14-1-17.55,0-21.7,10.73-21.7,10.73l-45.92-77s4.63-3.42,7.83-4.31c0,0,10-5.52,15.27-5.78,0,0,11.8-.72,15.26.86,0,0,18.22,10.56,21.43,11.07,0,0,7.57,4.49,14.49,4.11l10.27-1.41Z"/><path class="cls-1" d="M56.94,108.27s6.94,19.33-10.49,26L3.41,57V53.68s5.5-2.63,9.8-13.48L7,26.52l9.26.81q15,28.22,29.74,58.2Q51.58,97,56.94,108.27Z"/><line class="cls-2" x1="32.55" y1="72.37" x2="13.21" y2="40.2"/><line class="cls-2" x1="11.68" y1="43.65" x2="22.88" y2="61.89"/><line class="cls-2" x1="9.58" y1="47.33" x2="13.21" y2="52.77"/><line class="cls-2" x1="5.89" y1="51.81" x2="17.28" y2="64.76"/><path class="cls-1" d="M237.35,86.08s-9.11,5.55-5.94,13.36H161.65s.76-6.53-7.68-6.68c0,0-11.66-.26-8.83,8.54,0,0-89.18,35.23-98.69,32.92,2.12-.87,7.61-3.47,10.06-9.18a22,22,0,0,0,1.41-8.71,30.54,30.54,0,0,0-1-8.06,39.4,39.4,0,0,1,14.63-1.71,59.29,59.29,0,0,1,9.79-4.15c1.18-.38,2.32-.71,3.43-1L98.28,95a32.06,32.06,0,0,1,5.06-2.81c1-.46,2-.83,2.94-1.14a25.38,25.38,0,0,1,12.59-4.15l8.78-1a57.83,57.83,0,0,1,18.35.74l9.44.72.93-.49,8.27-4.32s9.11-4.73,9.6-4.74L178,75.61a117.77,117.77,0,0,1,16.66,1,55,55,0,0,1,5.71,1A51.59,51.59,0,0,1,211,81.33l15.91,4.75a34.41,34.41,0,0,0,5.85.64Z"/><polygon class="cls-3" points="3.41 57.03 0 58.28 43.38 138.74 46.45 134.22 3.41 57.03"/><path class="cls-4" d="M158.86,105.06s-6-12.82-11.68,1.72l-2-5.48s-2.45-4.9,3.41-7.59c0,0,5.57-2.36,10.31.24,0,0,2.06.16,2.79,5.49Z"/><path class="cls-3" d="M231.41,99.44h5.94a3.46,3.46,0,0,0-.33,2.19,3.52,3.52,0,0,0,1.64,2.3l-79.8,1.13,2.79-5.62Z"/><path class="cls-2" d="M61.55,112.55s18-2.61,21.48-4.28c0,0,13.59-10.72,21.75-10.94,0,0,15-7.5,19.41-7.28L150,93.14"/><line class="cls-2" x1="69.49" y1="117.18" x2="91.1" y2="110.12"/><line class="cls-2" x1="59.79" y1="122.69" x2="81.84" y2="117.18"/><path class="cls-2" d="M104.32,110.12s22.24-10.45,26.14-10.68h9.86"/><path class="cls-2" d="M109.52,111.13s17-8.71,20-8.71h7.11"/><path class="cls-3" d="M147.18,106.78,51.9,139.48l-8.52-.74,3.07-4.52a17.7,17.7,0,0,0,4.15-.2s15.07-3.16,19.6-5.33c0,0,28.76-9.92,29.89-10.33s25.42-9.48,25.42-9.48l19.63-7.58Z"/><line class="cls-2" x1="53.13" y1="129.71" x2="73.91" y2="123.79"/><line class="cls-2" x1="119.33" y1="95.56" x2="145.14" y2="96.89"/><path class="cls-2" d="M157.79,91.9s17-13.24,35.19-10.47"/><path class="cls-2" d="M200.94,81.05s10.08,4,14.24,5.43c0,0,11.26,3.29,18,3.57"/><path class="cls-2" d="M165.1,94.67s15.62-8.28,22.93-8.19c0,0,15.82-2.09,28,5.42"/><path class="cls-2" d="M176.37,94.67s15.32-5.69,27.48-4.23"/><line class="cls-2" x1="224.6" y1="92.44" x2="231.72" y2="92.44"/><line class="cls-2" x1="227.57" y1="95.56" x2="230.34" y2="95.56"/></g></g></svg>