<svg xmlns="http://www.w3.org/2000/svg" viewBox="0 0 481.78 424.03"><defs><style>.cls-1,.cls-3,.cls-4{fill:none;}.cls-1{stroke:#ccb50a;}.cls-1,.cls-3,.cls-4,.cls-5,.cls-6{stroke-miterlimit:10;}.cls-2{fill:#65b330;}.cls-3{stroke:#82bc43;}.cls-3,.cls-4{stroke-width:1.25px;}.cls-4{stroke:#85a170;}.cls-5{fill:#b01f25;}.cls-5,.cls-6{stroke:#fff;stroke-width:0.4px;}.cls-6{fill:#b01f24;}</style></defs><g id="Layer_2" data-name="Layer 2"><g id="Page_2" data-name="Page 2"><path class="cls-1" d="M414.92,313.41c5.38,1.81,6.86,5.32,6.86,5.32"/><path class="cls-2" d="M33,60.34S24.8,59,21.35,59.69,5.51,68.61,1.7,68.39a20.78,20.78,0,0,0,8,12.33,66.42,66.42,0,0,0,8.66,8A65.64,65.64,0,0,0,28.14,95l.47-3.43s8.13-10,10.75-10.31l11.33-4.67L53,73.11S42.51,70.66,33,60.34Z"/><path class="cls-3" d="M33.5,80.06a19.17,19.17,0,0,0-15.19,8.32"/><path class="cls-3" d="M23.32,76.54a19.41,19.41,0,0,0-11.27,6.38"/><path class="cls-3" d="M15.63,72.76A17.16,17.16,0,0,0,13.28,74,17,17,0,0,0,8.1,79.11"/><path class="cls-3" d="M18.79,60.68s5,8.74,9.81,11.49"/><path class="cls-3" d="M25.11,59.61A2.58,2.58,0,0,0,25,60c-.16,2.13,2,3.86,3.69,5.2s3.85,3.21,6.7,5.81"/><path class="cls-4" d="M50.69,76.63C47.42,73.9,25.1,71.8,25.1,71.8c-11.58,2.5-18.41.07-22.43-2.63l-.35-.24"/><path class="cls-2" d="M43,173.33s-19.61-1.16-25-.17c0,0-11.66,3.75-14.14,5.44a11.44,11.44,0,0,1-1.51.44,11.57,11.57,0,0,1-2.32.25,12.07,12.07,0,0,0,.41,2,13.47,13.47,0,0,0,2.72,5s11.53,16.86,18.29,20.53c0,0,13.44,10.22,22.82,10.54l.87-5.46s8.91-4.9,11.94-7.64c0,0,12.93-12.21,14-14.64,0,0-19.27-7.15-26.61-13.5Z"/><path class="cls-3" d="M20.19,173a25.41,25.41,0,0,0,.22,5.57,26.26,26.26,0,0,0,2.51,7.83"/><path class="cls-3" d="M29.84,172.81a27.47,27.47,0,0,0,7.19,19"/><path class="cls-3" d="M14.05,199.73A27.77,27.77,0,0,0,33.7,190.5"/><path class="cls-3" d="M21.48,206.67l19.84-12.94"/><path class="cls-3" d="M41,173.23a37.7,37.7,0,0,0,3.45,17.85"/><path class="cls-3" d="M31.82,211.52s16.91-11.05,21.69-9.66"/><path class="cls-4" d="M3.22,179.34c3.1,1,6.76,2.26,10.84,3.74.59.21,4.23,1.53,8.27,3.1,8.74,3.38,16.75,6.91,21.88,9.23l12.84,8.91"/><path class="cls-2" d="M18.09,28.78s-1.84-8.45-3.83-11.09S7.66,7,7.66,7,40.1.27,46.2,2.36c0,0,29.92,6.74,38.64,16-1.49,1.22-3.78,3-6.73,5-3.22,2.15-4.35,2.59-6.11,3.76A31,31,0,0,0,62,38.29c-2.64,5-3.08,9.35-3.55,13.92a52.63,52.63,0,0,0,.41,14l-.13,2.22s-3.1,0-5.8,4.72c0,0-13.54-4-19.94-12.77,0,0-12.44-17.16-13-21.25C20,39.09,17.66,31.36,18.09,28.78Z"/><path class="cls-3" d="M33.63,2.63S34.76,12.27,37.74,15"/><path class="cls-3" d="M47.61,2.7s-2.34,9.67-.67,13.75"/><path class="cls-3" d="M57.32,5.34a18.5,18.5,0,0,0,1,13.33"/><path class="cls-3" d="M69.77,9.62S64,24.2,64.08,30.19"/><path class="cls-3" d="M14.93,18.8s10.94-4.52,13.26-3.49"/><path class="cls-3" d="M21,27.86s18.63-7.28,21.41-5.8"/><path class="cls-3" d="M23.37,32.56s21.24-7.27,30-3.7"/><path class="cls-3" d="M24.18,41.43s15-6.73,16.48-6.64,15.58-1.68,20.14.69"/><path class="cls-3" d="M28.29,53.57s12.26-6.13,16.05-6.42,11.09-1,11.09-1"/><path class="cls-3" d="M34.52,62.18s8.37-5.77,10.7-5.73S53,55.94,53,55.94"/><path class="cls-4" d="M62.75,37a88.4,88.4,0,0,1-9.42-8.15c-.77-.78-1-1.09-1.69-1.66-2.82-2.44-5-3-9.27-5.14-2.26-1.13-1.9-1.1-4.47-2.43a97.58,97.58,0,0,0-10.73-4.75C22.23,13,16.22,10.56,8.49,7.4"/><path class="cls-2" d="M250.38,147.43s1.1-15.5,39.14-10.63c0,0,15.4,5.31,18.71,4s-3.79-2.49-7.48,38c0,0-10.8,19.34-15.9,21.92,0,0-3.5,1.65-13.45,1.16,0,0,3,3.05-12.45,16.37,0,0-8.35,4.31-14.83,5.13s-15.33,0-18-4.59c0,0,1.72-4.69-.2-6.89s-4.54-7.65-7-8.2l11-9.82s12-3.42,15.51-14.84c0,0,5-11.54,4.67-19.19Z"/><path class="cls-3" d="M251.38,177.72a54.65,54.65,0,0,0,6.28-38.37"/><path class="cls-3" d="M263.6,171.48a62.08,62.08,0,0,0,9.17-35.56"/><path class="cls-3" d="M279.42,157.55a20,20,0,0,0,6.62-9.44,20.55,20.55,0,0,0,.39-11.44"/><path class="cls-3" d="M257.26,180.41a60.18,60.18,0,0,1,18.17,1.65,60.9,60.9,0,0,1,18.44,8"/><path class="cls-3" d="M245.77,193.59s10.17-.73,12.15.68,11.74,6.7,12.71,11.45"/><path class="cls-3" d="M240.49,200.17s24.66,2.44,26.55,10.37"/><path class="cls-3" d="M243.59,209.24s15.11,1.72,15.36,9"/><path class="cls-3" d="M265.79,169.31s27.27-6.19,33.58,2.82"/><path class="cls-3" d="M275.5,160.6s16.11-1.87,18.44,1.84"/><path class="cls-4" d="M304.24,141.4a223.4,223.4,0,0,0-35.55,25,228.79,228.79,0,0,0-41.52,47.25"/><path class="cls-2" d="M222.76,113.86S239.88,96.8,249.7,97.35c0,0-4.72,18.48,2.83,48.92,0,0,2.77,38.8-20.36,45.22l-11,9.55s-1.42.69-11.2-18.71l-5.64-4.94a18,18,0,0,0,9-3.14s.41.41,1-.3c0,0,11.62-15.8,10.29-40.35C224.62,133.6,224.27,118.5,222.76,113.86Z"/><path class="cls-4" d="M224.62,133.6s7.29-8.12,10.36-15c0,0,7.47-12.83,10.17-13.75l3.29-2.88"/><path class="cls-3" d="M233.49,128.9a29.55,29.55,0,0,1,15.26-4.28"/><path class="cls-3" d="M228.08,138.32a32.87,32.87,0,0,1,12-4.31,32.5,32.5,0,0,1,9.73,0"/><path class="cls-3" d="M224.75,154.09s22.79-1.57,26.44,8.17"/><path class="cls-3" d="M248.33,174.33c-4-8.35-26.13-7.69-26.13-7.69"/><path class="cls-2" d="M381.59,227.73s7-16.12,14-17.74c0,0,17.74-8.93,26.53-8.62,0,0,23.59,1.3,33.32-2l7.77-7.82s-6.73,12.1-8.6,22.82-5.05,18.76-6.25,22.64-9.07,24.37-26.27,27.44c0,0-21.76-18.82-37.67-27.18,0,0,.24-4.25-.69-5.67A7.23,7.23,0,0,1,381.59,227.73Z"/><path class="cls-3" d="M394.79,213.5s5.09,15,4.33,19.28,4.28,10.52,4.28,10.52"/><path class="cls-3" d="M408.14,205.81s9.24,13.11,5.07,29.56"/><path class="cls-3" d="M415.14,205.93s7.44,13.84,4.59,23.61"/><path class="cls-3" d="M432.07,201.64s-.05,11.93-3,16.29"/><path class="cls-3" d="M436.85,202s-1,10.18.85,14.24"/><path class="cls-3" d="M430,222.12s16.4-.23,19.32,8"/><path class="cls-3" d="M422.08,227.63s16.5.43,18.84,2.74,6.55,4,6.54,7.36"/><path class="cls-3" d="M409.7,237.5s16.83,1.15,19.72,3.27c0,0,8.58,2.66,9.68,7.15"/><path class="cls-3" d="M401.52,245s5.89-1.83,9.63-.25c0,0,20.35,5.09,22.6,10.28"/><path class="cls-4" d="M399.8,246.54S419,229,423.73,226.94c0,0,16.28-12.18,18.5-15.61l18.3-16"/><path class="cls-2" d="M413.89,336.73,433.77,344h0c12.67,3.29,24.88-3.32,24.88-3.32,19.22,1.32,23.13,6,23.13,6l-2.21-2.45s.33-10.68-9.81-30S431,285,431,285c-8.48-2.2-12.93,1-12.93,1l-.6,5.78a30,30,0,0,1-6.22,7.26,30.32,30.32,0,0,1-6.68,4.29"/><path class="cls-3" d="M433.67,286.85s.58,5.54-3.89,8.85-8.87,7.19-8.87,7.19"/><path class="cls-3" d="M441.8,291.72s-1.37,5.77-5.4,7-8.88,6.46-8.88,6.46"/><path class="cls-3" d="M453.09,296.54s-5,7-11.72,9.41"/><path class="cls-3" d="M462.22,304.18s-3.22,3-11,4.8"/><path class="cls-3" d="M450.39,317s6.94-5.06,13.16-3.92"/><path class="cls-3" d="M474.21,324.56s-11.23-2-12.82.92"/><path class="cls-3" d="M424.52,303.52s13.11,8.54,4.08,34.7"/><path class="cls-3" d="M433.36,306.82s14.15,16.89,9.88,29.94"/><path class="cls-3" d="M448.81,315.89s10.36,7.89,6.82,23.34"/><path class="cls-3" d="M460.44,324.45s1.17,10.58-.2,15"/><path class="cls-4" d="M409.84,299.32s27,7,33.25,12.63c0,0,31.11,20.71,34.05,29.1.58,1.05,1.16,2.1,1.75,3.15"/><path class="cls-5" d="M239.54,233.28s24.64-19.84,29.73-25.53,4.35-8.42,4.35-8.42,8.53,9.81,17.37,10.09l10.1.77s-7.55,7.57-8.12,14.12-4.19,17.14-4,21-6.14,17.36-6.14,17.36a24.44,24.44,0,0,0-14.57-4.28s-16.08.42-22.14,16.28c0,0-5.28-9.79-5-15.17,0,0-3-13.55-2.11-17.39C239,242.15,238.42,236.83,239.54,233.28Z"/><path class="cls-5" d="M294.1,293.36s12.93,38.45,24.2,46.7c0,0,7.67,5.62,8.47,12.65,0,0-30.29-9.75-38.47-22.81,0,0-5.63-12.94-13-17.65l.15-2.81s2.8-4,.76-13.62c0,0-4.85-6.37.23-23.93,0,0,4.59-8.52,6.42-9.18,0,0,5.81-12.77,6-15.85,0,0,4.24,8.26,4,13S289.2,287.51,294.1,293.36Z"/><path class="cls-5" d="M382.89,246.85s3.58-13.22-.09-16.68S370,215.63,362.36,213.78c0,0-40-15.43-40.35-20.53,0,0-15.16,18.28-20.92,16.94,0,0-8.24,7.27-8.63,17.62,0,0-3.77,13.09-3.6,19.05,0,0,4.39,8.5,4,13s3.27,20.4,4.43,19.45,11.91-16.58,15.2-16.4c0,0-.77-18.17,1.46-21.79l3-3.07s-.44-5.85,1.41-7.27,8.89-9.4,20.25-3.95c0,0,6.77,5.95,6.66,8,0,0,8.44-1.3,10.88.35s6.61,4.27,7.49,6C363.57,241.14,379.53,240.66,382.89,246.85Z"/><path class="cls-5" d="M404.92,296.57l-.38,6.82s12.35-6.73,12.9-11.55,1.48-16.46,2.75-18.67,1.91-8.73,1.91-8.73-33.21-27.22-37.67-27.18l-1.54,9.59s4.82,0,6,.06a11.63,11.63,0,0,1,3.35,1.33s-1.55,12.51-.1,17.13c0,0,.75,12.34,6,19.59Z"/><path class="cls-5" d="M297.26,279.32s1,26.85,10.05,34.71c0,0,6.63,9.82,11.93,16.5,2.57,3.24,4.83,5.75,5.85,6,0,0-5.3-18.69-8.35-21,0,0-11.57-16.32-13.82-17.8s-1.25-1-1.25-1,1.62-1.81,7.64.21c0,0,9.54,3.49,9.38,6.23,0,0,2.67-17.61,1.37-20.86,0,0-3.55-20.2-7.6-19.41,0,0-3.23,1.32-7.3,6.44Z"/><path class="cls-5" d="M339.23,345.81s-10.06,2.14-12.93-.72a16.07,16.07,0,0,1-4.95-12l3.74,3.45,3.86.22S338.71,343.08,339.23,345.81Z"/><path class="cls-5" d="M345.2,234.81a84.46,84.46,0,0,0-8.89.13c-3.62.24-5.42.36-6.75.92-5.06,2.12-6.69,8.91-7.64,12.84a41.53,41.53,0,0,0,.45,19.7c1.65,7.08,4.44,12,4.66,14.24s-1.68,18-2.35,20.82-4.44,3.21-4.44,3.21l-1.55-3.48"/><path class="cls-5" d="M398.15,285s-10.23,16.88-21.68,21.09c0,0-1.48,7.12-26.63,2.27l-25.16-4.86s-2,3.52-4.44,3.21a30.05,30.05,0,0,0,6.27,4.42c3.05,1.45,29.65,2,33.37,3.92,0,0,18.18,2.61,27.57-1.18,0,0,15.45-6.77,17.09-10.44l.38-6.82Z"/><path class="cls-5" d="M324.87,255.88s3.5-9.47,10.12-12.58a13.6,13.6,0,0,1,8.62-5.11s7.26-2.84,12.47-1.12c0,0,5.72,4.11,5.84,5.61,0,0-5.59,1-8.35,2.66S335,253.84,330.49,262c0,0-3.68,3.44-3.8,5.69S323.92,258,324.87,255.88Z"/><path class="cls-5" d="M326.69,267.65c.19,1.1.39,2.22.6,3.34q.54,2.82,1.13,5.5s.94,2.28,3.69.2,15-11.61,18.39-13.63l1.54-1.7s24.89,5,25.62,6.49c0,0,5.53,17.56,1.84,21.82,0,0-3.68,11.39-18.14,12.4,0,0,1.2,4.85-16.91,5.21,0,0,26.6,7.1,32-1.23,0,0,10-2.72,21.68-21.09,0,0-5.55-9.24-6-19.59,0,0-1.18-11.26.1-17.13,0,0-.69-2.93-9.31-1.39,0,0-2-6.52-19.32-5.71a3.24,3.24,0,0,1-1.65,1.54,6.48,6.48,0,0,1-1.92.1,7.76,7.76,0,0,0-2.78.84,39.68,39.68,0,0,0-3.65,1.72c-3.75,2.1-4,2-7,3.74-8.75,5-12.47,8.48-12.47,8.48A34.93,34.93,0,0,0,326.69,267.65Z"/><path class="cls-5" d="M330.17,277.56l12.08-8.76s-2.87,16.55.29,17.38a7.16,7.16,0,0,0-5.73-.72,6.51,6.51,0,0,0-2.69,1.73c1.39.41,3.33,1.12,5.64,2,2.92,1.14,6.05,2.55,6.85,3.57,1.6,2.06,12.44,9.55,14.75,9.28,0,0-1.49,5.75-16.91,5.21l-19.77-3.82S327.36,284,327,282.64C327,282.64,328.23,278.42,330.17,277.56Z"/><path class="cls-5" d="M385.34,350.87a7.66,7.66,0,0,1,3.68-5.58c13.31-1.81,15.26-5.23,15.26-5.23,2.17,8.16-5.77,27.74-5.77,27.74-5.6,13.43-22.38,19.24-22.38,19.24-7,5-19.28,18.06-19.28,18.06-5.59-10.82-26.38-15.2-28.35-16.64s-22.24-4.22-25.65-5.75-5.24-8.68-5.24-8.68"/><path class="cls-5" d="M292.25,266l.9-1.33s1.78,11.09,4.11,14.62c0,0,.87,19.45,6.28,29.64l17.81,24.13s-.44,7.19,4.95,12c0,0,3.77,3.2,12.93.72,0,0,5.14-.84,9.63,9.36,0,0,3.14,3.84,4.1,4l-38.33,10.54s6.85-3.82,9.6-5.5l12.7-5.7s-1.79-2.73-10.16-5.82c0,0-1.46-8.28-8.47-12.65,0,0-9.36-9-16.08-25.88,0,0-8-19.23-8.12-20.82,0,0-2.47-1.82-2.52-9.46C291.58,283.9,290.69,271.89,292.25,266Z"/><path class="cls-5" d="M404.54,303.39a21.61,21.61,0,0,0,10.38,10"/><path class="cls-5" d="M381,315.4s-20.68,11.83-28.55,15.68a3.54,3.54,0,0,1-4.15,1.29c-1.25-.35-1.56-2-1.56-2l6.76-2.69c14.44-5.62,17.39-11.74,17.39-11.74,7.94.14,10.11-.52,10.11-.52,11.37-2.58,14.91-5.71,15.49-6s1.57,5.21,1.57,5.21c-1.68,4.09-8.52,8.68-14.95,12.24a100.67,100.67,0,0,1-12.43,6.1c-3.76-.36-6.7-.45-8.73-.47a33.29,33.29,0,0,1-4.32-.23,29.15,29.15,0,0,1-5.18-1.14l-.14,2.44c4.21,9.14,28.91,10.85,28.91,10.85,16.92,3.39,21.85-3.67,29.15-9.25s11.38-16.39,11.38-16.39-2.72-4.39-6.86-5.32-10.38-10-10.38-10"/><path class="cls-5" d="M343.77,331.42s24.57-8.24,27.15-15.5l-11-.91s-9.27-2.43-30.83-3.36l-8.81-5S324.8,315.28,343.77,331.42Z"/><path class="cls-5" d="M385.13,350.78a16.6,16.6,0,0,1-3.39,8.53c-6,7.64-16.76,6.3-17.45,6.21,0,0-14.8-5-16.57-13.06,0,0-4.15-7.28-8.49-6.65,0,0-4.41-7-10.28-9.05l-3.86-.22s-4.71-16.63-6.06-17.4c0,0-13.52-20.32-17.36-22.39,0,0,3.47-2.34,9.53,1,0,0,6.46,2.46,7.49,5.47,0,0,2.55,7.18,7.6,11.77,0,0,17.4,17.39,20.23,18.39,0,0,12,12.17,18,13.22,1.9.58,3.89,1.14,5.95,1.67,3.32.85,6.49,1.52,9.5,2.05a8.5,8.5,0,0,1,2.85-.14A8.6,8.6,0,0,1,385.13,350.78Z"/><path class="cls-5" d="M249.65,268.3c15-17.94,33.2-5.59,33.2-5.59s-7.57,8.47-8.29,14.52-.59,14.06.79,16.79,2.21,11.54.09,15.42l-.15,2.81s9.28,7.6,11.55,14.76c0,0,4,14.27,37.42,24.76,0,0,11.44,4,12.67,6.76.36.8-10.13,3.19-12.7,5.7s-19.63,11.29-26.62,9.8-23.58-9.26-24.93-12.87-16.8-16-20-17.25-18.95-14.42-21.49-13.74a19.29,19.29,0,0,0,8.62-7.59l6.45-8s5.25-5.42,7.11-17.11c0,0,1.37-9.17.9-13.86,0,0-1.07-15.05-4.58-15.32,0,0,3.15.22,4.43,13.26s-2.71,27.05-6.94,31.93-12.67,16.87-16,16.68c0,0,6.81-13.18,8.8-17.74s5.88-18.58,5.69-23,2-11.62.5-14.68"/><path class="cls-5" d="M318.69,303.19s2-17.37,1.68-19.11c0,0-2.48-19-7.91-21.16,0,0-.82-17.36,1.46-21.79l3-3.07s-.14-5.94,1.41-7.27c0,0,6.37-6.41,13-5.82a14.6,14.6,0,0,1,5.85,1.2c6.54,2.86,8.6,9.71,8.93,10.9a20.32,20.32,0,0,0-4.14,1.32A20.91,20.91,0,0,0,335,243.3s-8.16,4.53-10.12,12.58c0,0-.54,8.73,1.82,11.77l1.73,8.84s.6,1.54,2.88.72a6.07,6.07,0,0,0-2.9,2,6.46,6.46,0,0,0-1.37,3.43l0,1.55"/><path class="cls-5" d="M346.63,237.27l-.87-2.53s7.31-1,9.44,0c0,0,8,4.8,8.37,6.38a3.19,3.19,0,0,1-1.94,1.61s1.28.45-2-2.85l-3.56-2.83S353.07,235.52,346.63,237.27Z"/><path class="cls-5" d="M353.06,331.17l28-15.77s11.64-2.66,15.49-6c0,0,1.6,3.75,1.57,5.21,0,0-3.87,5.41-8.24,8.16,0,0-14.75,9.24-19.14,10.18a24,24,0,0,1-14.29.18,5.53,5.53,0,0,1-1.34-.41A5.83,5.83,0,0,1,353.06,331.17Z"/><path class="cls-5" d="M342.25,268.8l8.25-5.74,1.54-1.7s24.92,4.07,25.62,6.49c0,0,4.56,14.3,2.59,20.46,0,0-3.16,11.49-18.89,13.76,0,0-12-5-14.75-9.28,0,0-7.93-4.88-12.49-5.6a6.9,6.9,0,0,1,8.42-1s-1.89,1.05-1.35-8.73Z"/><path class="cls-5" d="M346.43,271.5s7.32-4.45,13.2-1.73c0,0,10.57,8.42,7.18,16.48-7.11,5.12-9.72,6.27-10.69,6.22l-1.95-.11s-7.63-1.71-8.66-4.2C345.51,288.16,344.47,274.28,346.43,271.5Z"/><path class="cls-5" d="M346.45,280.94s3.25.4,3.6,1.35,4.25,7.42,6.53,7.54l3.51.94a11.36,11.36,0,0,1-2.83,1.21,10.59,10.59,0,0,1-3.09.38,23.75,23.75,0,0,1-3.84-1.09c-2-.72-4.17-1.77-4.82-3.11q-.13-3-.26-6.07Z"/><path class="cls-5" d="M360.09,290.77s2.33-13.25-11.5-16.12a3.53,3.53,0,0,1,2.46-3.66s10.69.16,12.56,2.83c0,0,5.59,6.31,3.2,12.43Z"/><path class="cls-5" d="M348.59,274.65a8.84,8.84,0,0,0-.38,6.39"/><path class="cls-5" d="M344.81,331.6c0-.31.43-.55.93-.84a4.51,4.51,0,0,1,1-.41s.45,1.76,1.56,2c0,0,2,1.25,4.15-1.29l-.14,2.44s2.63,5.69,12.25,7.84c0,0,12,3.06,16.66,3l7.77.92a5.57,5.57,0,0,0-2.6,2.52c-.54,1.15-.3,1.69-.91,2.12-1,.73-2.55-.73-4.39-.17l-.25.08a.49.49,0,0,1-.24.05.86.86,0,0,1-.27-.08,39.58,39.58,0,0,1-5.89-.92c-1.15-.27-1.4-.39-4.18-1.2-5.66-1.66-5.86-1.56-7.37-2.2a28.09,28.09,0,0,1-5.36-3.12A65.24,65.24,0,0,1,351,337l-1.88-1.7a39.11,39.11,0,0,0-3-2.52h0C345.25,332.15,344.81,331.83,344.81,331.6Z"/><path class="cls-5" d="M396.52,309.37s6.56-3.59,8-6c0,0,4.58,7.5,9.1,9.52,0,0,6.37,1.14,8.14,5.82,0,0-2,9.78-17.5,21.33,0,0-4.83,4.77-15.26,5.23,0,0-31.6-.94-36.68-11.77l.72-2.35s2.3,3.4,14.11,2.61c0,0,22.28-8.61,24.77-12.58,0,0,5.79-4.19,6.15-6.62Z"/><path class="cls-5" d="M370.92,315.92,381,315.4l-28,15.77-.58-.09s-4,2.9-5.71-.73c0,0,10.06-3.45,11-4.61C357.78,325.74,369.26,320.4,370.92,315.92Z"/><path class="cls-5" d="M112.89,302.21S127.8,311,134.64,310c0,0,6.55,1.35,8.81-.38l2.13.2-22,8.44s-3.27.42-6.5-5.08l-4.22-7.05A3.84,3.84,0,0,1,112.89,302.21Z"/><path class="cls-5" d="M204.35,177.39a16.22,16.22,0,0,1,7.39,8.06c2.46,5.82,9.81,19.12,12.92,22.33,0,0,1.64,25.12-.53,41.43,0,0,2.68,1.92,3.33,3.72s-5.83,9.54-5.83,9.54-9.31,14.15-9.75,26c0,0-11.2,18.85-25.31,22.61,0,0-10.12,4.75-13.77,2,0,0,7.12-14.3,11.67-19,0,0-.91-6.23,2.29-9.34s11.45-19.59,12.4-32.18c0,0,4.62-5.81,4.86-10.1s1.93-12,.64-16.14-18.06-38.93-24.8-40.57c0,0-18.15-7.62-32.83-8.59l3.35-1.87s1.91-3.76,27.76-4.59C178.14,170.77,194.37,174,204.35,177.39Z"/><path class="cls-5" d="M76.87,316.39s-22.78-21.23-23.38-29.5c0,0-.67-14.21,3-24,0,0,6-11.2,12.66-15.52,0,0,.29,15.73,5.65,24.23,0,0-.49,8.91,2.06,12.33s7,19,16.5,24.43c0,0,18.56,13.78,30.26,9.88,0,0,30.7-11.24,30.78-12.7s26.72-11.82,26.92-15.46l2.84-1.92.32,6s-10.64,14.79-11.67,19c0,0-7.73,10.18-17.87,12.35,0,0-6.47,4.93-19.31,2.94,0,0-10.81-2.24-20.13-1.84,0,0-18.5,1.74-20.94-.24,0,0,.62,1.84-1.21,2.11S76.87,316.39,76.87,316.39Z"/><path class="cls-5" d="M76.1,265.48s1.51-39.18,10.62-46.09c0,0,28-11.1,32.87-13.66a36.45,36.45,0,0,1,29.49-1.64s22.41,12.84,21.95,33.08c0,0,8.4,13.75,4.46,25.75,0,0-13.42,21.73-17.27,24.35s-24.13,10.22-28.6,8.23-27.14-6.3-31.78-21c0,0-2.86-11.28-5.86-12.32,0,0-.18,11.11,2.81,16.3s5.83,16.68,18.1,23.69c0,0-1,3,0,3.92s6.54,13.67,10.72,12.13c0,0-12,3.4-30.26-9.88,0,0-5.52-2.39-9.75-10.93,0,0-7.08-14.16-8.37-16.53,0,0-.42-7.55-.44-9.3S75,265.79,76.1,265.48Z"/><path class="cls-5" d="M199.16,252.63s-15.43-23.86-22.91-25.45c0,0-7.15-1.28-6.54,1,0,0-2.58-12.39-20.63-24.06,0,0-11.58-6.34-27.33.59,0,0-31.83,14.08-35,14.71,0,0-4.74,3.4-5.19,9.17s-3.38,11.14-4.36,23.06-1.07,13.86-1.07,13.86l-1.31,6.14a55.28,55.28,0,0,1-5.65-24.23s3.79-23.86,8.67-31c0,0,22-34.32,29.43-32.3,0,0,9.64-7.26,13.92-6.65,0,0,7.71-2.73,22.94.08,0,0,19.55-.22,38.06,9.76,0,0,12.38,14.1,22.5,39.14,0,0,.69,10.65-1,18.11C203.66,244.5,201.71,249.68,199.16,252.63Z"/><path class="cls-5" d="M112.89,302.21s17.67,10.42,30.56,7.41l2.13.2,8.81-4.26,13.39-6.9s11.88-4.94,13.53-8.56l2.84-1.92,6.37-9s6.63-13.69,7.13-18c0,0,1.85-7,1.51-8.54,0,0-12.06-18.88-19.27-23.52,0,0-6.12-4.91-10.18-1,0,0,1.76,5.89,1.32,9,0,0,8.39,13.55,4.46,25.75,0,0-11.66,19.87-17.27,24.35a76.93,76.93,0,0,1-27.47,8.5s-15.87-4.67-17.17-6.07S103,284.87,99.84,278.78c0,0-3.11-5.54-3.45-9,0,0-1.3-6.07-4.41-7.55,0,0,.23,8.52,1.7,13.72,0,0,5.07,12.42,8.5,16.54C102.18,292.48,108.41,300.46,112.89,302.21Z"/><path class="cls-5" d="M139.5,220.61s11.3-7.49,20.2-2.68c0,0,8.83,16.81,11.33,19.24,0,0,7.95,12.17,4.46,25.75,0,0-11,18.77-17.27,24.35,0,0-13.87,7.66-27.47,8.5,0,0-29.55-6.28-32.91-21.23,0,0-1.92-10.55-5.86-12.32,0,0,3-11.06,7.93-13.12,0,0,.86-12.41,3.91-14.53,0,0,23.68-18.71,29.42-19.37C133.24,215.2,139.05,216.27,139.5,220.61Z"/><path class="cls-5" d="M150.05,273.36s2.42-7.54.9-8.76l-4.15,3.3s-1.88,10.56-20.65,9.9c0,0-7-2.37-8.67-15.63a19,19,0,0,1,7.66-18.77s6.76-6.11,6.31-7.3c0,0,3.58.48,3.76-2.19s-3.13-2.7-2.17-4.08c0,0,6.75-2.26,9.32,8.72"/><path class="cls-5" d="M99.91,249.1s-3,10.56,1.13,17.59c0,0,1.66,9.63,3.43,10.64l.57,3-5.2-1.51s-4.5-14.54-7.86-16.56C92,262.22,95.34,250.62,99.91,249.1Z"/><path class="cls-5" d="M138.61,270.74S140,274,135.07,275s-13.06-2.43-13-6.57a21.39,21.39,0,0,1-2.56-7.25s-.93-8.79.08-11"/><path class="cls-5" d="M130.1,261.7a5.56,5.56,0,0,0,4.3,2.49,5,5,0,0,0,2.88-.92s.54,5.42-2,7.33c0,0-6.51-.08-6-3.67.89-7.07,1.86-9.05,1.86-9.05s10.39-4.63,9.89,4.29c0,0,1.08,8.34-2.41,8.57-5.49.37-11.09-2.74-11.09-2.74-5.42-3.6-2.24-11.95-2.24-11.95,2.49-10,19.65-6.53,19.65-6.53a23.69,23.69,0,0,0-13.48-13.42,30.74,30.74,0,0,1-6.31,7.3c-4.32,3.72-8.83,9.73-7.66,18.77s5.51,17.42,13.1,16c0,0,14-1,16.22-10.23l5.95-4.73c1.18-11.51-9.34-20.65-9.34-20.65l-1-4,3.37.18c5.89-.2,9.83,5.89,9.83,5.89,4.7,5.25,3.14,26.9,2.48,29.18s-5.07,4.71-7.2,4.59-.79-5-.79-5c0,.71-2.31,3.08-2.31,3.08-2.37,4.14-9.87,7.82-9.87,7.82-5,2.76-20.18.84-20.18.84-2.63-.85-5-9.54-7-11.49s-1.3-11.77-1.3-11.77a30.46,30.46,0,0,1,4.15-17c1.84-7.56,13.44-11,15.33-13a5.79,5.79,0,0,1,4.2-1.91q3.24-4.61,6.46-9.22"/><path class="cls-5" d="M146.3,263.77s-.88-7.75-8-6.82a13.17,13.17,0,0,0-7.15.93s-2.54,7.25-1.66,10.4c0,0-2.59,1.41-4.91-4.85,0,0-.74-8.28,2.32-10.57,0,0,4.27-5.24,14.64-3.78l3.41.44S148.21,260.25,146.3,263.77Z"/><path class="cls-5" d="M39.91,259.22S29.28,264.28,28,276s-1,29.08.22,31.43,7.22,15.76,5.41,25.46c0,0,22.52,13,28.17,23.13,0,0,11.68,7.51,22.52,6.48,0,0,17.21,1.28,26.91-5.37,0,0,12.18-24.22,24.42-28.74A70.34,70.34,0,0,0,110.27,327s-11.41,1.62-15.72-.64c0,0,.72,3.85-2.83,1.45,0,0-34-24.43-38.23-40.88Z"/><path class="cls-5" d="M225.12,236.21s11.52,6.2,12.63,14-1.26,45.05-6.12,54.67S215.85,333,215,338.23a69.84,69.84,0,0,0-.67,12s-15.62,3.15-17.59,5.2-18.13,9.39-21.08,12.37-17.36,12.07-32.71,10.3c0,0-20.75-2.39-23.09-8.7,0,0-4.15-11.17-8.61-12.28,0,0,15.54-27.25,24.42-28.74a33.12,33.12,0,0,0,19.31-2.94,37.49,37.49,0,0,0,17.87-12.35s7.59,4.23,25.45-8.55c0,0,9.74-9.34,13.63-16.08,0,0,1.4-14.51,6-19.39,0,0,3.9-8.26,7-10.8,0,0,2.91-3.35,2.6-5.36,0,0-2.42-3.8-3.33-3.72Z"/><path class="cls-5" d="M71.07,189.68S56.58,208,45.11,212c0,0-3.06,21.95-7.45,28s2.25,19.29,2.25,19.29l13.58,27.67s0-20.83,3-24c0,0,7.54-13,12.66-15.52,0,0,2.81-24.18,11.15-34.87,0,0,21.69-31,26.95-28.46,0,0-2.74-6.32-14.8-4.73C92.44,179.33,73.79,184.35,71.07,189.68Z"/><path class="cls-2" d="M237.08,383.16s9.62,14.06,23.91,22.65c0,0,17.24,11.17,19.39,12.17l1,1.78s7.53-9.43,8.08-16.87c0,0,2.1-23.95-3-34.1,0,0-12.33-12.46-14.09-14.94,0,0-25.56-18.92-28.55-18.82l-2.84-.16s-1.28,6.65.13,11.61S240.76,368.42,237.08,383.16Z"/><path class="cls-3" d="M244.36,385.3s7.59-10.45,7.79-14.21,4.16-15.8,2.27-20.68"/><path class="cls-3" d="M262.86,366.08s-2.74,22.86-7.75,24.24"/><path class="cls-3" d="M269.49,376.69s-2.44,15.9-5.14,17.82"/><path class="cls-3" d="M273.59,386.41s10.58,5.25,16,3.66"/><path class="cls-3" d="M277.4,398.79s7.19,4,11.61,2.1"/><path class="cls-3" d="M265,369.4s3.5.8,5,1,5.62,5.24,9.09,4.78c0,0,8.1.27,9,2"/><path class="cls-3" d="M253.42,349.62s8.91,5,10.94,7.73,11.75,7.22,11.75,7.22,5.9,3.14,7.6,1.79"/><path class="cls-4" d="M281.72,418.59c-.77-3.82-1.93-9.11-3.58-15.35-2.71-10.22-4.35-16.56-7.63-23.94-6.32-14.26-10.85-15.56-16.14-28a34.55,34.55,0,0,0-5-8.6,34.94,34.94,0,0,0-8.1-7.33"/><path class="cls-2" d="M185.66,362.58s-2.76,15.66-1.12,20.23,6.17,24.88,11.11,29.4c0,0,2.07,9.56.29,11.82,0,0,22.74-5.82,26.1-11.06s14.84-16.64,15.4-22.51,11.82-39.22-3.73-52.12l-2.56-8.17a50.75,50.75,0,0,0-7.91.11c-2.33.24-4.61.75-5.91,1.74L215,338.23l-.67,12s-13.29,2.49-17.59,5.2l-6.76,4L185.24,362Z"/><path class="cls-3" d="M220.67,365.65s-15.78,11.08-23.27,10.83-13.29-1-13.29-1"/><path class="cls-3" d="M188.81,389s12.83-.32,14.59-1.78c0,0,12-5,12.74-8l3.19-2.41"/><path class="cls-3" d="M194.94,397.46s18.24-4,21.22-9.1"/><path class="cls-3" d="M198.8,411.91s6.83-5.15,9.89-3.83"/><path class="cls-3" d="M220.93,344.05s10.52,13.26,18.23,16.54"/><path class="cls-3" d="M221.22,355.86s9,11.24,16.86,15"/><path class="cls-3" d="M220.41,368.47A83.83,83.83,0,0,1,236,384.66"/><path class="cls-3" d="M219,378.58s11.31,11,13.37,15.82"/><path class="cls-3" d="M216.63,386.68s9.06,9.6,8.54,14.62"/><path class="cls-3" d="M212.61,398.44a28.44,28.44,0,0,0-.28,4.89c.18,1.65,2.42,7,4.23,8"/><path class="cls-4" d="M223.24,330.28s-3.15,12.46-2.27,19.24-.73,23-2,29.06c-1.63,8-3.56,21.33-12.89,34.2a64.83,64.83,0,0,1-9.2,10.2"/><path class="cls-6" d="M89.24,69.45S84.4,52.79,94.7,56.8c0,0,35.1-9.59,40.39,2.93,0,0,9.8,15.92,4.1,26.62,0,0-10.24,18-19.42,16.76,0,0-25.4-2.11-30.15-21.46Z"/><path class="cls-6" d="M55.88,66.64A38.82,38.82,0,0,1,58,40.72,37.76,37.76,0,0,1,69.62,26.4S106.14,8.78,106.39,4.17L109.78.31s8.92,11.19,32.11,15.07c0,0,20.44,11.83,21.32,22,0,0-13.35,1-16.31,2.27,0,0-6.83-7-8.11-10,0,0-11.17,8.62-14.92,8.42,0,0-14.48.64-17.36.48,0,0-6.24,3.12-6.45,6.86,0,0-4,3.83-21.25,2.87,0,0-4.38,6.12-4.69,11.59a41.8,41.8,0,0,0-18.24,6.76Z"/><path class="cls-6" d="M210.57,22.42s-8.41,1-12.85-.71c0,0-17.24-7.88-31.1-12,0,0-14-1.81-18.16,4.44l-2.56,3.76s14.73,8.42,17.31,19.45L146.9,39.64S163.15,50.28,167.63,62L189,95.45l-1.2,25.09s16.56-16.11,18.39-18.28c0,0,8.19-10.45,8.65-18.83,0,0,5.89-16,1.71-30.79C216.51,52.64,202.38,24.78,210.57,22.42Z"/><path class="cls-6" d="M163.21,37.37s19.2,3.5,23.5,8.16c0,0-.63,11.44,2.48,17.69,0,0,10.46,22-.23,32.23L167.63,62s-4.26-11.62-20.73-22.39Z"/><path class="cls-6" d="M189,95.45s-3.14,15.69-30.63,29.84-47.11,14.11-47.11,14.11S85,148.86,82.71,151.94l-2.07,2.67s13.14-1.62,18.29,1.87a72.88,72.88,0,0,0,30.69,6s31.21-3.4,33.32-6.71l4.88.7s3.71-25.25,19.94-35.91Z"/><path class="cls-6" d="M141.75,132.61s2.83-16.64,11.92-20.39c0,0,16.56-11.67,18.89-20.24,0,0-2.06-12.88-1.1-23.56l17.5,27S183,118,141.75,132.61Z"/><path class="cls-6" d="M158.62,108.42s3.31-16.77-4-25.47c0,0-14.64,8-13.77,25.33,0,0,9.83,3.52,7.61,8C148.5,116.31,157,109.75,158.62,108.42Z"/><path class="cls-6" d="M172.56,92s-3.82,8.54-13.94,16.44c0,0,3.48-15.79-4-25.47,0,0,.18-7.62.4-9.65s1.66-12.37,1.66-12.37-8.3-9.36-20.88-10.31l-8.32,0s-3-1.75-4,1.23c0,0-5.29-8.44-23.43-6.38,0,0-1.8-2.18,6.45-6.86,0,0,14.12.36,19-.78,0,0,9.45-4.61,13.24-8.12,0,0,5,7.84,8.11,10,0,0,19.85,13.2,24.56,28.78C171.46,68.42,170.79,84.24,172.56,92Z"/><path class="cls-6" d="M74.12,59.88l14.22.79-1,10.19s-9,3.81-9.58,6.92c0,0-1.59,6.46-.28,10.67,0,0,9.84,12.27,9.88,18,0,0,4.13,3,8.34,3.18,0,0,7.38,20.11,14.28,25.66l-2.15.95s-14.48-9.68-20.54-17.71c0,0-10.49-13.88-11.27-17.56,0,0-5.16-10.08-5.4-17.49C70.59,83.43,68.71,68.37,74.12,59.88Z"/><path class="cls-6" d="M113.19,139.31s-17-20.27-17.52-29.73c0,0,13,3.62,18,6.07,0,0,22.07-2.81,29.14-1.83l5.71,2.49s-3.42,2.51-6.75,16.3C141.75,132.61,130.49,137.13,113.19,139.31Z"/><path class="cls-6" d="M55.61,65.5c.45,1.7-3.32,2.25-5.16,4.11a27.18,27.18,0,0,0-2.38,2.74,27.63,27.63,0,0,0-2.28,3.52A37.5,37.5,0,0,0,44.4,101c6.87,18.1,29.82,30.19,29.82,30.19,14.19,10.24,33.58,5,33.58,5a85.34,85.34,0,0,1-31.38-34c-12.28-23.51-2.3-42.29-2.3-42.29-.54-5.71,4.69-11.59,4.69-11.59,18.68.67,21.25-2.87,21.25-2.87,19-2.14,23.43,6.38,23.43,6.38-1.9,0-1,3-1,3-3.93-1.31-13,2.37-13,2.37a77.65,77.65,0,0,1-19.56-1.09c-2.14,2.43-2.6,14.79-2.6,14.79-2,8,1,20.19,1,20.19,1.34,6.74,12.5,9.94,12.5,9.94,8,6.9,21.61,5.06,21.61,5.06a61.24,61.24,0,0,1,18.42,2.23c-.43-10.16,3-13.51,3-13.51C145.15,90,154.66,83,154.66,83c-.47-7.2,2.06-22,2.06-22a35,35,0,0,0-29.2-10.36s-3-1.75-4,1.23c0,0-1.81.51-1,3,0,0,10-.14,12.58,4.94a31.15,31.15,0,0,1,5,25.14s-10.9,17.9-17.5,18.31c0,0-13.89.15-17.83-4,0,0-15.64-9.47-15.33-19.62,0,0-.74-15.46.44-23.51"/><path class="cls-6" d="M86.84,71.28c-6.85,2.77-9.08,5.89-9.68,8.45-.73,3.18.29,8.72.29,8.72s10,12.88,9.88,18c0,0,4.52,3.51,8.34,3.18l18,6.07s25.34-3.48,29.14-1.83l5.71,2.49s.61-2.68-.77-3.84a76.79,76.79,0,0,0-6.84-4.19s-13.08-2.9-21.46-2.1c0,0-14,.14-18.57-5.19,0,0-10.86-3.51-12.5-9.94a54,54,0,0,1-1.52-19.77Z"/><path class="cls-6" d="M45.79,75.87s-16.23,3.95-22.08,15c0,0-2.84,25-11.25,40.06,0,0,11.36,15.51,13.7,26,0,0,14.45,7.38,17.25,9.28,0,0-.82-16.64,2.6-20.53,0,0,11.68-12.5,23.91-17,0,0-16.38-8.24-21.39-19.8C48.53,108.83,38.53,96.25,45.79,75.87Z"/><path class="cls-6" d="M129.62,162.46a54.47,54.47,0,0,1-8.46,14.95s-12.5,4.58-13.92,6.65c0,0-1.73-6-14.8-4.73,0,0-20.12,5.92-21.37,10.35,0,0-26.21-10.44-27.53-14.82,0,0-1.69-2-.13-8.66,0,0-1.25-13.34,2.6-20.53,0,0,16.66-16.88,23.91-17,0,0,8.49,5.47,11.79,6.5,0,0,9.89,4.6,26.09,1.06l2.15-.95,3.24,4.07-2,.09s-23.24,8-28.51,12.54l-2.07,2.67s13.62-1.73,18.29,1.87C98.93,156.48,110.64,162.71,129.62,162.46Z"/><path class="cls-6" d="M212.17,92.43s9,12.24,11.23,24.23c0,0,4,27.58-2.43,43.87a71.31,71.31,0,0,1-7.55,13.83l-.17.22a32.16,32.16,0,0,1-8.9,2.81c-12.71,2-22.91-4.34-26.21-6.62,0,0-25.42.89-27.76,4.59,0,0-3.06,2.7-6.28,2.13s-10.38-2.41-22.94-.08a71,71,0,0,0,8.46-14.95s24.71-2.44,33.32-6.71l4.88.7s4-20.49,12.61-29.28c0,0,14.35-12.46,17.48-16.58,0,0,9.14-8.15,10-10.83Z"/><path class="cls-6" d="M95.16,79.65s-1.64-7.37,1.28-9.85,8.38-.42,17.29-2.7c0,0,18.77,1.77,17.72,15.48a5.68,5.68,0,0,1-.3,5.54s-10.29,8.57-11.38,15c0,0-16.83-8-16.88-9.72C102.89,93.39,94.85,82.67,95.16,79.65Z"/><path class="cls-6" d="M121.65,74.57s-15-1.67-16.87,8.58c0,0,6.17,15.48,15,20,0,0,1.72-7.17,11.38-15a6.39,6.39,0,0,0,.3-5.54s.22-5.2-1.89-7.59Z"/><path class="cls-6" d="M116.57,90.54S126,83.4,126,80.16c0,0,4.51.22,5.45,2.42a5.44,5.44,0,0,1-.3,5.54c-1.85,3.12-6.58,4.77-9,9.88A20.37,20.37,0,0,0,116.57,90.54Z"/><path class="cls-6" d="M104.78,83.15a39.79,39.79,0,0,0,11.79,7.39,17.89,17.89,0,0,1,5.6,7.46,9.3,9.3,0,0,0-2.4,5.11S108.35,95.4,104.78,83.15Z"/><path class="cls-6" d="M55.88,66.64a25.57,25.57,0,0,1,18.24-6.76s-9.36,15.05.64,38.86c0,0,8.53,22.23,33,37.45,0,0-22,5.76-37.88-7.56,0,0-17.93-9.79-23.67-23.57a38.71,38.71,0,0,1-3-12.1c-.37-4.5-1.1-13.59,4.83-20.61A21.26,21.26,0,0,1,55.88,66.64Z"/><path class="cls-6" d="M74.73,59.91l14.45-3.64c-.48,1.46-1,2.91-1.43,4.36Z"/></g></g></svg>