<svg xmlns="http://www.w3.org/2000/svg" viewBox="0 0 451.98 497.11"><defs><style>.cls-1,.cls-3,.cls-4{fill:none;}.cls-1{stroke:#ccb50a;}.cls-1,.cls-3,.cls-4,.cls-5,.cls-6,.cls-7{stroke-miterlimit:10;}.cls-2{fill:#65b330;}.cls-3{stroke:#82bc43;}.cls-3,.cls-4{stroke-width:1.25px;}.cls-4{stroke:#85a170;}.cls-5{fill:#b01f25;}.cls-5,.cls-6,.cls-7{stroke:#fff;}.cls-5,.cls-6{stroke-width:0.4px;}.cls-6,.cls-7{fill:#b01f24;}.cls-7{stroke-width:0.25px;}</style></defs><g id="Layer_2" data-name="Layer 2"><g id="Page_2" data-name="Page 2"><path class="cls-1" d="M88.79,65.07c-4.38-3.62-4.5-7.43-4.5-7.43"/><path class="cls-2" d="M354.55,438.26s7.18,4.22,10.66,4.78,18-2.64,21.46-1.07a20.68,20.68,0,0,0,0-6.19,21,21,0,0,0-3.1-8.2,66.16,66.16,0,0,0-12-20l-1.67,3s-11.18,6.43-13.74,5.76l-12.24.3-3.39,2.47S349.39,425.22,354.55,438.26Z"/><path class="cls-3" d="M361.17,419.67a19.14,19.14,0,0,0,17.17-2.32"/><path class="cls-3" d="M369.41,426.6a19.43,19.43,0,0,0,12.8-1.9"/><path class="cls-3" d="M375.23,432.89a16.32,16.32,0,0,0,2.63-.3,16.92,16.92,0,0,0,6.68-2.92"/><path class="cls-3" d="M368,443s-1.55-10-5-14.25"/><path class="cls-3" d="M361.67,441.77a1.93,1.93,0,0,0,.21-.37c.92-1.93-.52-4.33-1.57-6.17s-2.45-4.38-4.17-7.83"/><path class="cls-4" d="M343.9,416.71c2.06,3.72,22.15,13.68,22.15,13.68,11.7,1.82,17.21,6.54,20,10.5l.24.35"/><path class="cls-2" d="M385.8,329.21s17.88,8.12,23.25,9.12c0,0,12.23.68,15.15,0a11.68,11.68,0,0,1,1.57.14,11.56,11.56,0,0,1,2.25.59,12.77,12.77,0,0,0,.35-2,13.63,13.63,0,0,0-.73-5.68s-4.72-19.87-9.71-25.73c0,0-8.89-14.35-17.53-18l-2.77,4.78s-10.08,1.38-13.89,2.85c0,0-16.44,6.77-18.34,8.64,0,0,15.44,13.58,20,22.15Z"/><path class="cls-3" d="M406.92,337.69a26.12,26.12,0,0,0,1.79-5.28,25.78,25.78,0,0,0,.46-8.21"/><path class="cls-3" d="M397.84,334.4a27.45,27.45,0,0,0,.12-20.35"/><path class="cls-3" d="M422.24,314.93a27.83,27.83,0,0,0-21.66,1.57"/><path class="cls-3" d="M417.79,305.79l-23.16,5"/><path class="cls-3" d="M387.55,330a39.48,39.48,0,0,0,2-5.55,38.32,38.32,0,0,0,1.21-12.35"/><path class="cls-3" d="M409.88,297.56s-19.75,4.25-23.72,1.23"/><path class="cls-4" d="M425,337.85c-2.53-2.06-5.49-4.54-8.77-7.38-.48-.41-3.4-3-6.61-5.85-6.95-6.3-13.16-12.46-17.11-16.47l-8.8-12.92"/><path class="cls-2" d="M357.16,473.06s-1.31,8.56-.39,11.73,2.33,12.32,2.33,12.32-32.7-5.32-37.64-9.46c0,0-25.52-17-30.34-28.81,1.83-.6,4.61-1.45,8.07-2.23,3.78-.85,5-.85,7.05-1.31a31.25,31.25,0,0,0,13.32-6.86c4.25-3.72,6.23-7.63,8.31-11.73a53.2,53.2,0,0,0,4.62-13.17l.91-2s2.9,1.12,7.11-2.32c0,0,11.22,8.55,14,19.08,0,0,5.46,20.47,4.54,24.5C359.09,462.76,358.5,470.81,357.16,473.06Z"/><path class="cls-3" d="M333.28,491.91s2.41-9.41.59-13"/><path class="cls-3" d="M320.26,486.83s5.65-8.19,5.56-12.6"/><path class="cls-3" d="M312.14,480.89a18.56,18.56,0,0,0,3.88-12.8"/><path class="cls-3" d="M302.05,472.43s10.6-11.56,12.7-17.17"/><path class="cls-3" d="M356.54,483.51s-11.84.3-13.63-1.49"/><path class="cls-3" d="M354.16,472.9s-20,.11-22.06-2.27"/><path class="cls-3" d="M353.59,467.64s-22.43-.82-29.3-7.28"/><path class="cls-3" d="M356,459.07s-16.4.91-17.76.3-15.15-4-18.55-7.87"/><path class="cls-3" d="M356.54,446.26s-13.65,1.34-17.29.24-10.7-3.06-10.7-3.06"/><path class="cls-3" d="M353.8,436s-9.88,2.39-12,1.51-7.47-2.31-7.47-2.31"/><path class="cls-4" d="M318.43,449.37a87,87,0,0,1,5.86,11c.45,1,.59,1.38,1,2.15,1.75,3.29,3.61,4.62,6.81,8.12,1.7,1.87,1.38,1.71,3.29,3.88a98.91,98.91,0,0,0,8.31,8.27c3.93,3.56,8.68,8,14.77,13.68"/><path class="cls-2" d="M182.87,279s-6.58,14.07-40.35-4.11c0,0-12.47-10.48-16-10.49s2.65,3.68,20.6-32.75c0,0,17-14.18,22.7-14.76,0,0,3.86-.29,13,3.74,0,0-1.7-3.93,17.5-10.82,0,0,9.33-1,15.68.53s14.32,5.46,15.14,10.74c0,0-3.29,3.76-2.29,6.5s1.5,8.76,3.58,10.15L218.59,243s-12.45-1.13-19.8,8.29c0,0-8.84,9-11.24,16.23Z"/><path class="cls-3" d="M192.8,250.38a54.7,54.7,0,0,0-19.63,33.56"/><path class="cls-3" d="M179.15,251.82a62,62,0,0,0-21.31,29.9"/><path class="cls-3" d="M159.39,259.15a20,20,0,0,0-9.56,6.44,20.51,20.51,0,0,0-4.47,10.54"/><path class="cls-3" d="M188.27,245.76a60.44,60.44,0,0,1-30.72-22.12"/><path class="cls-3" d="M203.73,237.57s-9.76-3-11.1-5-8.56-10.47-7.76-15.25"/><path class="cls-3" d="M211,233.33S188.87,222.2,190,214.13"/><path class="cls-3" d="M211.37,223.75s-13.49-7-11.1-13.93"/><path class="cls-3" d="M176.33,253.06s-27.68-4-30.34-14.67"/><path class="cls-3" d="M164.14,257.71s-15.7-4-16.55-8.32"/><path class="cls-4" d="M130.43,265.33a223.75,223.75,0,0,0,42.16-10.63,228.73,228.73,0,0,0,55.7-29.22"/><path class="cls-2" d="M196.61,320.25S174.52,330,165.55,326c0,0,11-15.56,14.9-46.69,0,0,11.32-37.21,35.22-34.9l13.67-5s1.57-.14,3.75,21.48l3.49,6.63a18.09,18.09,0,0,0-9.5-.29s-.24-.53-1.05-.08c0,0-16.51,10.59-24.08,34C202,301.16,196.87,315.38,196.61,320.25Z"/><path class="cls-4" d="M202,301.16s-9.71,5-15,10.32c0,0-11.57,9.3-14.43,9.19l-4.1,1.5"/><path class="cls-3" d="M192,302.37a29.86,29.86,0,0,1-8.76.25,29.55,29.55,0,0,1-7-1.73"/><path class="cls-3" d="M200.42,295.51a32.93,32.93,0,0,1-12.78-.29,32.55,32.55,0,0,1-9.07-3.5"/><path class="cls-3" d="M209.18,282s-21.83-6.69-21.75-17.1"/><path class="cls-3" d="M194.43,254.64c.78,9.24,21.63,16.54,21.63,16.54"/><path class="cls-2" d="M89.18,157s-12.27,12.56-19.44,11.54c0,0-19.76,2-27.86-1.46,0,0-21.55-9.68-31.82-10.08L0,161.52s10.62-8.88,16.21-18.22,11.44-15.7,14-18.89,17.21-19.51,34.37-16.2c0,0,13.56,25.36,25.41,38.88,0,0-1.75,3.88-1.38,5.54A7.22,7.22,0,0,1,89.18,157Z"/><path class="cls-3" d="M71.75,165.56S72.4,149.7,74.63,146s-.23-11.35-.23-11.35"/><path class="cls-3" d="M56.53,168s-3.92-15.55,5.87-29.41"/><path class="cls-3" d="M50.05,165.33s-2-15.6,4.18-23.69"/><path class="cls-3" d="M32.7,163.26s4.32-11.12,8.64-14.13"/><path class="cls-3" d="M28.37,161.21s4.6-9.14,4.31-13.6"/><path class="cls-3" d="M42,144.88s-15.39-5.66-15.15-14.41"/><path class="cls-3" d="M51.34,142.58s-15.24-6.32-16.6-9.32-4.67-6.1-3.46-9.21"/><path class="cls-3" d="M66.44,137.8s-15.3-7.1-17.24-10.12c0,0-7.05-5.56-6.47-10.14"/><path class="cls-3" d="M76.75,133.75s-6.14-.4-9.07-3.21c0,0-17.17-12-17.41-17.7"/><path class="cls-4" d="M78.93,132.91s-24.27,9.51-29.37,9.73c0,0-19.56,5.52-22.87,7.93L3.86,159"/><path class="cls-2" d="M98.11,43.67l-16-13.93h0c-10.64-7.62-24.41-5.83-24.41-5.83C40.28,15.79,38.3,10,38.3,10l1.19,3.08S35.35,23,37.88,44.65,63.63,85.8,63.63,85.8c7.13,5.09,12.44,3.68,12.44,3.68L78.7,84.3a30,30,0,0,1,16.18-6.15"/><path class="cls-3" d="M61.76,83.14s1.45-5.37,6.8-6.87,10.86-3.53,10.86-3.53"/><path class="cls-3" d="M55.92,75.68s3.35-4.89,7.53-4.57,10.61-2.85,10.61-2.85"/><path class="cls-3" d="M47.11,67.13s7.2-4.75,14.31-4.58"/><path class="cls-3" d="M41.32,56.73s4.08-1.65,12-.53"/><path class="cls-3" d="M57,49s-8.29,2.23-13.68-1.06"/><path class="cls-3" d="M37.44,33.41s9.76,5.9,12.29,3.73"/><path class="cls-3" d="M76.28,70.85S67.11,58.19,84.91,37"/><path class="cls-3" d="M69.21,64.61s-7.15-20.84,1.51-31.5"/><path class="cls-3" d="M58,50.6S51.2,39.52,60,26.37"/><path class="cls-3" d="M50.25,38.44s2.71-10.29,5.58-14"/><path class="cls-4" d="M88.48,80.05S65.75,63.8,62,56.33c0,0-21.61-30.49-21.34-39.37-.17-1.19-.34-2.38-.5-3.57"/><path class="cls-5" d="M223.78,202.77s-30.12,9.67-36.92,13.16-7.08,6.3-7.08,6.3-4.44-12.22-12.59-15.64L158,202.24s9.75-4.36,12.64-10.27,10.06-14.5,11.26-18.21,11.95-14,11.95-14A24.5,24.5,0,0,0,206,169s15.16,5.37,26.5-7.26c0,0,1.43,11-.78,15.95,0,0-2,13.73-4.26,17C227.42,194.66,226.09,199.85,223.78,202.77Z"/><path class="cls-5" d="M194.38,127.11s1.73-40.53-5.84-52.27c0,0-5.14-8-3.37-14.85,0,0,24.78,20,27.73,35.09,0,0,.61,14.1,5.82,21.14l-1.15,2.57s-4.06,2.76-5.59,12.44c0,0,2.24,7.68-8.8,22.26,0,0-7.34,6.3-9.29,6.27,0,0-10,9.84-11.29,12.63,0,0-1-9.22,1-13.56S196.86,134.33,194.38,127.11Z"/><path class="cls-5" d="M94.82,138.69s-8.08,11.06-5.9,15.6,6.76,18.17,13.21,22.63c0,0,31.82,28.76,30.3,33.64,0,0,20.71-11.64,25.61-8.32,0,0,10.29-3.83,14.37-13.35,0,0,8.21-10.87,10.19-16.5,0,0-1-9.5,1-13.56s4.27-20.22,2.84-19.74-17.06,11.2-20.07,9.85c0,0-5.8,17.24-9.17,19.82l-3.87,1.8s-1.69,5.63-3.93,6.29-11.66,5.58-20.32-3.58c0,0-4.18-8-3.35-9.83,0,0-8.35-1.81-10-4.23s-4.63-6.36-4.84-8.26C110.81,151,95.74,145.68,94.82,138.69Z"/><path class="cls-5" d="M92.08,84.38l2.8-6.23S80.94,80,78.7,84.3s-7.28,14.83-9.26,16.44-4.91,7.47-4.91,7.47,21.23,37.32,25.41,38.88l4.88-8.4s-4.5-1.73-5.54-2.2a11.32,11.32,0,0,1-2.65-2.43s5.93-11.13,6.23-16c0,0,3.73-11.79,1.38-20.46Z"/><path class="cls-5" d="M186.4,139.09s8.72-25.41,3.06-36c0,0-2.67-11.55-5.21-19.68-1.24-4-2.46-7.1-3.32-7.71,0,0-1.74,19.35.28,22.57,0,0,4.95,19.39,6.51,21.58s.81,1.39.81,1.39-2.16,1.11-7.05-2.94c0,0-7.65-6.68-6.53-9.18,0,0-8.81,15.49-8.76,19,0,0-3.92,20.14.14,20.85,0,0,3.49-.07,9.13-3.39Z"/><path class="cls-5" d="M171.06,62s10.15,1.61,11.81,5.3a16.1,16.1,0,0,1,.33,13l-2.27-4.56-3.52-1.59S170.57,64.7,171.06,62Z"/><path class="cls-5" d="M125.69,163.44a83.82,83.82,0,0,0,8.35,3.07c3.45,1.07,5.18,1.6,6.63,1.56,5.48-.17,9.44-5.92,11.72-9.24a41.55,41.55,0,0,0,6.66-18.56c1-7.2.15-12.8.75-15s8-16.17,9.66-18.6,5.29-1.4,5.29-1.4l.2,3.8"/><path class="cls-5" d="M94.24,97.64s15.6-12.09,27.8-11.91c0,0,3.93-6.12,25.67,7.43l21.75,13.55s3.11-2.57,5.29-1.4a30.29,30.29,0,0,0-4.26-6.37c-2.33-2.45-27-12.47-29.75-15.63,0,0-16-9-26.16-8.78,0,0-16.85.78-19.7,3.62l-2.8,6.23Z"/><path class="cls-5" d="M152.22,151.06s-6.66,7.59-14,8.12a13.56,13.56,0,0,1-9.87,1.68s-7.8,0-12-3.43c0,0-3.87-5.88-3.44-7.33,0,0,5.57,1.1,8.75.51s20.34-1.29,27.5-7.23c0,0,4.67-1.9,5.6-4S153.88,149.39,152.22,151.06Z"/><path class="cls-5" d="M154.75,139.42q.31-1.63.63-3.33.51-2.82.91-5.54s0-2.47-3.37-1.51-18.16,5.46-22,6.13l-2.05,1S107.39,122.59,107.23,121c0,0,1.14-18.37,6.11-21,0,0,7.52-9.31,21.39-5.07,0,0,.61-5,17.64,1.21,0,0-22.28-16.17-30.33-10.34,0,0-10.33-1-27.8,11.91,0,0,1.87,10.62-1.38,20.46,0,0-2.93,10.93-6.23,16,0,0-.4,3,8.19,4.63,0,0-.49,6.79,16,12.26a3.25,3.25,0,0,1,2.09-.85,6.49,6.49,0,0,1,1.83.6,7.73,7.73,0,0,0,2.89.21c2.53-.09,4-.3,4-.3,4.25-.61,4.41-.42,7.91-1,10-1.55,14.68-3.45,14.68-3.45A34.79,34.79,0,0,0,154.75,139.42Z"/><path class="cls-5" d="M155,128.93l-14.41,3.84s8.61-14.41,6-16.32a7.22,7.22,0,0,0,5.09,2.72,6.61,6.61,0,0,0,3.13-.64c-1.15-.89-2.71-2.25-4.54-3.93-2.31-2.11-4.73-4.54-5.11-5.79-.75-2.49-8.19-13.37-10.43-14,0,0,3.45-4.83,17.64,1.21l17.09,10.64s-9.47,17.18-9.66,18.6C159.8,125.31,157.16,128.82,155,128.93Z"/><path class="cls-5" d="M129.83,40.71a7.68,7.68,0,0,1-5.43,3.89c-13.07-3.08-16.12-.59-16.12-.59.9-8.39,15.33-23.83,15.33-23.83,10-10.53,27.79-9.93,27.79-9.93C159.76,8.1,175.88.3,175.88.3,177.21,12.4,195.05,24,196.37,26s19.25,11.92,21.89,14.58,1.78,10,1.78,10"/><path class="cls-5" d="M186.31,153.28l-1.32.92s2.32-11,1.41-15.11c0,0,6.16-18.48,4.77-29.93l-8-28.91s3-6.56-.33-13c0,0-2.37-4.34-11.81-5.3,0,0-5.1-1.06-5.63-12.2,0,0-1.55-4.71-2.39-5.22l39.56,3.91s-7.76,1.11-10.93,1.68l-13.9.78s.7,3.18,7.4,9.07c0,0-1.61,8.26,3.37,14.85,0,0,5.5,11.79,5.73,29.92,0,0,.59,20.83.11,22.35,0,0,1.66,2.59-1,9.74C193.35,136.85,189.87,148.37,186.31,153.28Z"/><path class="cls-5" d="M94.88,78.15a21.58,21.58,0,0,0-6.09-13.08"/><path class="cls-5" d="M121.14,75.37s23.55-3.63,32.28-4.4a3.51,3.51,0,0,1,4.32.28,2.69,2.69,0,0,1,.74,2.44l-7.27.09c-15.5.07-20.45,4.73-20.45,4.73-7.36-3-9.62-3.14-9.62-3.14-11.54-1.68-16,0-16.63.07s.41-5.42.41-5.42c3-3.23,11.07-5,18.34-6.07a98,98,0,0,1,13.79-1.23c3.38,1.67,6.1,2.81,8,3.56A33.1,33.1,0,0,1,149,68,29.29,29.29,0,0,1,153.42,71l1-2.23c-.66-10-23.1-20.5-23.1-20.5-14.58-9.23-21.72-4.4-30.53-1.81s-16.5,11.21-16.5,11.21,1,5.08,4.5,7.43,6.09,13.08,6.09,13.08"/><path class="cls-5" d="M161.66,73.77s-25.88-1.12-30.9,4.74l10,4.8s7.78,5.6,27.58,14.2l6.43,7.8S173.58,95.64,161.66,73.77Z"/><path class="cls-5" d="M130,40.87a16.63,16.63,0,0,1,6.22-6.75c8.36-5,17.91.12,18.51.46,0,0,12,10,10.79,18.13,0,0,1.26,8.29,5.54,9.26,0,0,1.61,8.1,6.35,12.13l3.52,1.59s-1.56,17.21-.57,18.41c0,0,5.33,23.82,8.17,27.13,0,0-4.08.94-8.55-4.32,0,0-5.14-4.61-5-7.8,0,0,.19-7.61-2.87-13.71,0,0-10-22.47-12.29-24.41,0,0-6.86-15.68-12-18.79-1.56-1.22-3.21-2.46-4.95-3.69-2.8-2-5.52-3.75-8.13-5.32A8.47,8.47,0,0,1,132,42.3,8.8,8.8,0,0,1,130,40.87Z"/><path class="cls-5" d="M226.89,166.44c-20.42,11.38-33-6.68-33-6.68s10.11-5.19,13-10.59,5.59-12.91,5.29-16,2.07-11.56,5.44-14.42l1.15-2.57s-5.95-10.42-5.49-17.92c0,0,1.36-14.77-26.06-36.53,0,0-9.24-7.85-9.4-10.85,0-.88,10.6.65,13.9-.78s22.38-3.49,28.37.41,18.69,17.1,18.65,21,10,20.93,12.53,23.29,12.51,20.26,15.13,20.53a19.3,19.3,0,0,0-10.77,4l-8.89,5.15s-6.84,3.18-12.77,13.43c0,0-4.56,8.07-5.81,12.61,0,0-4.4,14.44-1.22,15.94,0,0-2.86-1.33.63-14s12.22-24.29,17.92-27.33,17.87-11.2,20.91-9.83c0,0-11.09,9.86-14.58,13.41S239.62,144,238.2,148.19s-6,10.13-5.74,13.53"/><path class="cls-5" d="M175,109.11s-8.08,15.5-8.42,17.24c0,0-4.49,18.62-.2,22.59,0,0-5.46,16.5-9.17,19.82l-3.87,1.8s-2,5.6-3.93,6.29c0,0-8.24,3.7-14.21.77a14.62,14.62,0,0,1-5-3.22c-5.08-5-4.54-12.14-4.43-13.38a20.6,20.6,0,0,0,4.34.26,21.09,21.09,0,0,0,8.23-2.1s9.25-1.3,14-8.12c0,0,3.64-7.95,2.53-11.64l1.54-8.87s0-1.65-2.43-1.7a6.09,6.09,0,0,0,3.43-.83,6.42,6.42,0,0,0,2.51-2.71l.58-1.44"/><path class="cls-5" d="M125.24,160.64l-.11,2.67s-7.16-1.74-8.8-3.4c0,0-5.77-7.37-5.52-9a3.18,3.18,0,0,1,2.39-.81s-1-.87.83,3.37l2.31,3.92S118.59,160,125.24,160.64Z"/><path class="cls-5" d="M152.9,70.68l-31.76,4.69s-11.83-1.69-16.63.07c0,0-.14-4.08.41-5.42,0,0,5.55-3.67,10.62-4.67,0,0,17.08-3.33,21.51-2.63a23.94,23.94,0,0,1,13.41,5,5.11,5.11,0,0,1,1.1.86A5.54,5.54,0,0,1,152.9,70.68Z"/><path class="cls-5" d="M140.63,132.77l-9.76,2.4-2.05,1S107,123.47,107.23,121c0,0,.87-15,4.93-20,0,0,7.06-9.6,22.57-6.08,0,0,9.39,9,10.43,14,0,0,5.66,7.4,9.65,9.72a6.91,6.91,0,0,1-8.22-2.08s2.14-.31-1.87,8.63Z"/><path class="cls-5" d="M137.69,128.75s-8.42,1.54-12.94-3.11c0,0-6.85-11.66-.79-18,8.47-2.24,11.32-2.37,12.21-2l1.78.8s6.51,4.33,6.58,7C144.53,113.53,140.52,126.86,137.69,128.75Z"/><path class="cls-5" d="M141.06,119.93s-2.89-1.54-2.87-2.55-1.31-8.45-3.39-9.38l-3-2.13a10.85,10.85,0,0,1,3.08-.12,11.11,11.11,0,0,1,3,.75,23.21,23.21,0,0,1,3.19,2.4c1.62,1.39,3.26,3.15,3.39,4.63q-1,2.88-1.93,5.76Z"/><path class="cls-5" d="M131.85,105.87s-6.92,11.52,5,19.17a3.52,3.52,0,0,1-3.61,2.53s-9.92-4-10.71-7.14c0,0-3-7.89,1.47-12.75Z"/><path class="cls-5" d="M136.81,125a8.87,8.87,0,0,0,2.64-5.83"/><path class="cls-5" d="M160.76,73.23c-.11.29-.6.36-1.17.45a4.12,4.12,0,0,1-1.11,0s.21-1.8-.74-2.44c0,0-1.43-1.89-4.32-.28l1-2.23S154,62.48,145.8,57c0,0-10.14-7.17-14.48-8.78L124.4,44.6a5.64,5.64,0,0,0,3.33-1.42c.91-.88.88-1.47,1.61-1.65,1.23-.32,2.11,1.58,4,1.73h.26a.51.51,0,0,1,.24,0,1.09,1.09,0,0,1,.23.16,40.41,40.41,0,0,1,5.16,3c1,.66,1.17.86,3.47,2.62,4.69,3.57,4.91,3.55,6.09,4.69a26.84,26.84,0,0,1,3.88,4.84,62.38,62.38,0,0,1,4.2,7.33l1.16,2.26A38,38,0,0,0,160,71.62h0C160.55,72.56,160.84,73,160.76,73.23Z"/><path class="cls-5" d="M104.51,75.44s-7.41,1-9.63,2.71c0,0-1.58-8.65-5.07-12.15,0,0-5.55-3.35-5.52-8.36,0,0,5.33-8.42,24-13.63,0,0,6.21-2.72,16.12.59,0,0,29.16,12.21,30,24.14l-1.52,1.94s-.92-4-12.23-7.51c0,0-23.88,0-27.64,2.87,0,0-6.9,1.84-8.11,4Z"/><path class="cls-5" d="M130.76,78.51l-9.62-3.14,31.76-4.69.52.29s4.77-1.28,5.06,2.72c0,0-10.63-.38-11.93.36C146.55,74.05,133.92,74.91,130.76,78.51Z"/><path class="cls-5" d="M366.72,183.83s-10.79-13.51-17.51-15.07c0,0-5.64-3.61-8.37-2.81l-1.91-.95h23.53s3.21.78,4.25,7.07l1.41,8.09A3.85,3.85,0,0,1,366.72,183.83Z"/><path class="cls-5" d="M236.58,267.55a16.18,16.18,0,0,1-4-10.17c-.21-6.31-2.31-21.37-4.06-25.48,0,0,7.48-24,15.35-38.49,0,0-1.81-2.75-1.78-4.67s8.87-6.81,8.87-6.81,13.76-9.87,18.43-20.78c0,0,17.21-13.58,31.73-12,0,0,11.16-.8,13.58,3,0,0-11.77,10.81-17.7,13.52,0,0-1.37,6.15-5.48,7.9s-17.72,14.18-23.12,25.59c0,0-6.4,3.77-8.15,7.69s-6.12,10.53-6.39,14.84,2.91,42.81,8.61,46.76c0,0,14.21,13.63,27.57,19.79l-3.81.55s-3.13,2.83-27.55-5.67C258.68,283.13,244.67,274.32,236.58,267.55Z"/><path class="cls-5" d="M405.43,183.5s13.65,28,11.24,35.93c0,0-4.46,13.5-11.39,21.31,0,0-9.58,8.31-17.38,9.95,0,0,5.37-14.8,3.41-24.65,0,0,3.65-8.14,2.51-12.24s.3-20.22-6.65-28.73c0,0-12.38-19.52-24.71-20.07,0,0-32.68-.51-33.28.82s-29.18,1.45-30.67,4.77l-3.34.78,1.83-5.69s15.25-10,17.7-13.52c0,0,10.86-6.72,21.11-5.11,0,0,7.81-2.28,19.08,4.18,0,0,9.29,6,18.13,8.94,0,0,17.89,5,19.47,7.73,0,0,.07-2,1.88-1.53S405.43,183.5,405.43,183.5Z"/><path class="cls-5" d="M387.9,231.3s-15.47,36-26.45,39.22c0,0-30.1.33-35.59,1a36.43,36.43,0,0,1-28.11-9s-16.32-20-8.62-38.76c0,0-2.92-15.85,5.06-25.63,0,0,20.32-15.47,24.86-16.54s26.18-.89,29.64,2.57,23.07,15.62,22.15,31c0,0-1.37,11.56,1.05,13.6,0,0,4.16-10.31,3.23-16.22s.53-17.66-8.4-28.6c0,0,2-2.42,1.4-3.67s-1.2-15.1-5.66-15.16c0,0,12.44,1.13,24.71,20.07,0,0,4.3,4.21,5.19,13.7,0,0,1.52,15.76,1.88,18.44,0,0-2.31,7.2-2.93,8.83S389.06,231.42,387.9,231.3Z"/><path class="cls-5" d="M268.4,199.17s5.86,27.81,12.27,32c0,0,6.21,3.77,6.45,1.44,0,0-2,12.5,10.63,29.87,0,0,8.53,10.06,25.72,9.24,0,0,34.76-1.72,38-1.17,0,0,5.65-1.47,8.13-6.69s7.15-9.2,12.34-20,6-12.56,6-12.56l3.41-5.26a55.2,55.2,0,0,1-3.41,24.65s-12.1,20.91-19.22,25.86c0,0-32.83,24.14-39.06,19.59,0,0-11.6,3.32-15.37,1.22,0,0-8.18-.22-21.39-8.3,0,0-18.33-6.8-32-22.76,0,0-6.5-17.6-7-44.6,0,0,3.18-10.19,7.43-16.55C261.29,205.15,265,201,268.4,199.17Z"/><path class="cls-5" d="M366.72,183.83S354,167.77,340.84,166l-1.91-.95-9.75.82-15,1.64s-12.86.35-15.69,3.13l-3.34.78L286,177.51s-11.1,10.41-13.1,14.24c0,0-4.23,5.84-4.48,7.42,0,0,4.49,22,9.56,28.87,0,0,4,6.78,9.16,4.54,0,0,.47-6.12,2-8.89,0,0-3-15.65,5.06-25.63,0,0,18-14.37,24.86-16.54a76.94,76.94,0,0,1,28.69,1.91s13.13,10,13.85,11.82,8.11,8.3,8.91,15.12c0,0,.91,6.3,0,9.66,0,0-1,6.13,1.41,8.62,0,0,2.85-8,3.34-13.41,0,0-.28-13.41-2-18.49C373.22,196.75,370.27,187.07,366.72,183.83Z"/><path class="cls-5" d="M312.62,250.45s-13.24,3-19.82-4.73c0,0-2.21-18.86-3.67-22,0,0-3.06-14.21,5.06-25.63,0,0,17-13.59,24.86-16.54,0,0,15.69-2.18,28.69,1.91,0,0,25.33,16.46,23.1,31.62,0,0-2,10.54,1.05,13.6,0,0-6.74,9.27-12.1,9.41,0,0-5.25,11.28-8.86,12.16,0,0-28.81,9-34.41,7.53C316.52,257.75,311.48,254.67,312.62,250.45Z"/><path class="cls-5" d="M321.68,197.44s-5,6.16-4,7.85l5.06-1.59s5.54-9.19,22.83-1.84c0,0,5.67,4.71,2.49,17.69a19,19,0,0,1-13.88,14.79s-8.51,3.27-8.51,4.54c0,0-3.18-1.73-4.3.7s2,3.64.56,4.58c0,0-7.11-.3-5.57-11.47"/><path class="cls-5" d="M359.79,238.06s6.62-8.77,5.25-16.83c0,0,1.9-9.58.61-11.16l.53-3,4.32,3.26s-1,15.2,1.39,18.28C371.89,228.65,364.6,238.28,359.79,238.06Z"/><path class="cls-5" d="M331.42,204s-.16-3.54,4.82-2.68,11.32,6.95,9.8,10.81a21.34,21.34,0,0,1-.21,7.68s-2.29,8.54-4,10.2"/><path class="cls-5" d="M336.13,215.48A5.6,5.6,0,0,0,333,211.6a5,5,0,0,0-3-.17s1.45-5.25,4.47-6.13c0,0,6,2.4,4.33,5.59-3.37,6.28-5,7.78-5,7.78s-11.35.6-7.69-7.56c0,0,2-8.16,5.32-7.13,5.26,1.62,9.37,6.54,9.37,6.54,3.77,5.3-2.19,12-2.19,12-5.89,8.39-20.68-1-20.68-1a23.68,23.68,0,0,0,7.77,17.36,30.58,30.58,0,0,1,8.51-4.54c5.36-1.93,11.72-5.93,13.88-14.79s1.1-18.23-6.51-19.59c0,0-13.48-4.07-18.81,3.74L315.51,206c-5.23,10.33,1.32,22.63,1.32,22.63l-.45,4.09-3.08-1.39c-5.58-1.91-7.07-9-7.07-9-2.5-6.58,6.72-26.23,8.15-28.12s6.42-2.58,8.37-1.71-1.07,5-1.07,5c.29-.65,3.26-2.05,3.26-2.05,3.7-3,12-3.77,12-3.77,5.62-.79,19.14,6.45,19.14,6.45,2.14,1.75,1.24,10.7,2.43,13.25s-3,11.46-3,11.46a30.52,30.52,0,0,1-10,14.43c-4.43,6.39-16.49,5.46-19,6.68a5.76,5.76,0,0,1-4.61.27l-9.33,6.29"/><path class="cls-5" d="M321.75,207.73s-2,7.55,5,9.24a13.1,13.1,0,0,0,7,1.7s5-5.86,5.28-9.11c0,0,2.93-.4,2.85,6.29,0,0-2.28,8-6,9,0,0-5.87,3.36-15-1.73l-3-1.63S318.7,210.33,321.75,207.73Z"/><path class="cls-5" d="M419.43,250.12s11.74-.9,17.17-11.39,11.32-26.8,11.06-29.42-1.09-17.3,4.08-25.71c0,0-16.36-20.22-18-31.69,0,0-8.21-11.19-18.7-14.12,0,0-15.61-7.36-27.05-4.63,0,0-20.06,18.23-33.1,18.07A70.53,70.53,0,0,0,378,161.67s11.23,2.57,14.45,6.23c0,0,.7-3.86,3.15-.34,0,0,23,35,21,51.87Z"/><path class="cls-5" d="M238.29,205.2s-8.53-9.92-6.78-17.59,17.33-41.6,25.31-48.83,24.83-20.64,27.54-25.18a70.17,70.17,0,0,0,4.93-11s15.72,2.66,18.29,1.45,20.3-2.27,24.12-4,20.52-5,34.22,2.12c0,0,18.52,9.67,18.44,16.39,0,0-.13,11.92,3.63,14.56,0,0-24.28,19.86-33.1,18.07a33.17,33.17,0,0,0-19.08-4.18,37.43,37.43,0,0,0-21.11,5.11s-5.57-6.66-26.82-1.13c0,0-12.44,5.22-18.49,10.12,0,0-6.51,13-12.55,15.95,0,0-6.6,6.31-10.4,7.58,0,0-3.92,2.08-4.35,4.06,0,0,.9,4.42,1.78,4.67Z"/><path class="cls-5" d="M365.4,303.87s20.1-11.89,32.23-11.49c0,0,10.72-19.39,17-23.44s4.82-18.82,4.82-18.82l-2.76-30.69s-7.51,19.42-11.39,21.31c0,0-11.71,9.47-17.38,9.95,0,0-11.29,21.56-22.91,28.55,0,0-31.35,21.13-35.37,16.9,0,0,.3,6.88,12.13,9.73C341.75,305.87,361,307.87,365.4,303.87Z"/><path class="cls-2" d="M279.81,63.73S275.88,47.15,265.61,34c0,0-12.08-16.61-13.73-18.31l-.29-2S241.18,19.78,238,26.53c0,0-10.55,21.61-9.39,32.92,0,0,7,16.06,7.8,19,0,0,17.07,26.82,19.9,27.81l2.59,1.17s3.58-5.76,4-10.89S271.09,76.17,279.81,63.73Z"/><path class="cls-3" d="M273.78,59.12s-10.83,7-12.37,10.47-9.54,13.27-9.53,18.49"/><path class="cls-3" d="M249.63,70.43s10.75-20.36,15.92-19.85"/><path class="cls-3" d="M247.24,58.14s8-14,11.19-14.79"/><path class="cls-3" d="M246.9,47.6s-8-8.69-13.65-9.15"/><path class="cls-3" d="M247.78,34.68s-5.29-6.27-10.09-6.13"/><path class="cls-3" d="M248.81,66.57s-3-2-4.27-2.73-3.36-6.91-6.76-7.72c0,0-7.47-3.15-7.66-5.12"/><path class="cls-3" d="M252.53,89.18S246,81.3,245.09,78s-8.38-11-8.38-11-4.38-5.05-6.46-4.4"/><path class="cls-4" d="M250.84,14.65c-.65,3.84-1.46,9.19-2.16,15.61-1.13,10.52-1.87,17-1.46,25.09.79,15.57,4.55,18.41,5,31.94a34.11,34.11,0,0,0,6.53,19.57"/><path class="cls-2" d="M320.43,101.38s8.19-13.63,8.3-18.49,3.16-25.44.17-31.43c0,0,1.5-9.66,4-11.13,0,0-23.31-2.72-28.33,1S284.72,51.5,282.09,56.78s-25.1,32.38-15.2,50l-.54,8.55a50.18,50.18,0,0,0,7.42,2.73c2.27.61,4.58,1,6.14.5l4.45-5,4.93-11s13.31,2.43,18.29,1.45l7.76-1.34,5.27-.64Z"/><path class="cls-3" d="M288.85,86s18.71-4.69,25.61-1.77,12,5.71,12,5.71"/><path class="cls-3" d="M327,75.61S314.86,71.31,312.7,72c0,0-13.06.37-14.74,2.86L294.11,76"/><path class="cls-3" d="M324.28,65.48s-18.47-2.79-23.08.89"/><path class="cls-3" d="M325.86,50.62s-8.23,2.35-10.61,0"/><path class="cls-3" d="M280.87,106s-5.07-16.15-11.1-22"/><path class="cls-3" d="M284.83,94.91s-4.41-13.74-10.37-20"/><path class="cls-3" d="M290.11,83.41a83.37,83.37,0,0,1-8.7-20.68"/><path class="cls-3" d="M295.05,74.48s-6.63-14.28-6.81-19.56"/><path class="cls-3" d="M300.17,67.78s-5-12.22-2.73-16.72"/><path class="cls-3" d="M308.14,58.24a27.37,27.37,0,0,0,2-4.47c.43-1.6.26-7.4-1.07-9"/><path class="cls-4" d="M273.77,118.05s7.41-10.5,9-17.15,8.91-21.17,12.26-26.42c4.4-6.91,11-18.63,24.3-27.3A64.91,64.91,0,0,1,331.59,41"/><path class="cls-6" d="M305.33,409.59s-1.46,17.28-9.63,9.85c0,0-36.2-3.64-36.66-17.22,0,0-3.44-18.37,5.73-26.32,0,0,16-13.08,24.13-8.69,0,0,23,11.09,20.45,30.86Z"/><path class="cls-6" d="M335.46,424.17a38.74,38.74,0,0,1-11.23,23.45,37.74,37.74,0,0,1-16,9.19s-40.41,3.36-42.3,7.57l-4.55,2.38s-4.31-13.64-24.56-25.58c0,0-14.84-18.36-12-28.16,0,0,12.82,3.85,16,3.72,0,0,3.86,9,4,12.23,0,0,13.52-4.05,16.94-2.51,0,0,13.75,4.59,16.38,5.77,0,0,6.95-.67,8.49-4.09,0,0,5.07-2.15,20.86,4.94,0,0,6.29-4.14,8.53-9.14A40.45,40.45,0,0,0,322,425,42.35,42.35,0,0,0,335.46,424.17Z"/><path class="cls-6" d="M175.21,410s8.2,2.12,11.74,5.28c0,0,13.27,13.54,24.73,22.34,0,0,12.41,6.71,18.55,2.36l3.73-2.59s-10.73-13.14-9.18-24.35l16,3.72S229.46,401,229.5,388.4q-4-19.42-7.93-38.84l10.11-23S210.45,335.67,208,337c0,0-11.39,6.82-14.83,14.47,0,0-11.24,12.85-12.63,28.13C180.5,379.64,183.7,410.72,175.21,410Z"/><path class="cls-6" d="M224.78,413s-16.67-10.16-19-16c0,0,4.7-10.45,4-17.4,0,0-1.89-24.26,11.77-30l7.93,38.84s-.2,12.37,11.32,28.34Z"/><path class="cls-6" d="M221.57,349.56s8.56-13.52,39.28-16.87,49,3.72,49,3.72,27.85.56,31.11-1.49l2.89-1.74s-12.85-3.2-16.41-8.31A73.05,73.05,0,0,0,301,308.28s-30.36-8-33.51-5.68l-4.31-2.4s-12.51,22.23-31.49,26.36Z"/><path class="cls-6" d="M279,331.8s-8.6,14.52-18.44,14.76c0,0-19.64,4.95-24.89,12.12,0,0-2.69,12.77-7.42,22.39l-6.64-31.51S235.19,330.63,279,331.8Z"/><path class="cls-6" d="M254.54,348.34s-9.1,14.46-5.44,25.19c0,0,16.54-2.22,21.94-18.71,0,0-7.92-6.81-4.22-10.23C266.82,344.59,256.51,347.67,254.54,348.34Z"/><path class="cls-6" d="M235.63,358.68s6.63-6.6,18.91-10.34c0,0-8.91,13.48-5.44,25.19,0,0-2.9,7-3.83,8.86s-6,10.95-6,10.95,4.39,11.72,15.78,17.12l7.76,3s2.21,2.73,4.2.3c0,0,1.91,9.78,19.59,14.36,0,0,.89,2.68-8.49,4.09,0,0-13.05-5.4-18.05-6.1,0,0-10.48.92-15.27,2.84,0,0-1.87-9.12-4-12.23,0,0-13.8-19.44-12.61-35.67C228.21,381.07,234.51,366.54,235.63,358.68Z"/><path class="cls-6" d="M316,423.94l-13-5.83,4.63-9.15s9.73-.34,11.41-3c0,0,3.8-5.47,4.09-9.86,0,0-4.79-15-2.79-20.3,0,0-2.78-4.26-6.64-6,0,0,.32-21.42-4.13-29.07l2.35-.12s10.05,14.23,12.82,23.9c0,0,4.82,16.72,4.23,20.43,0,0,1.2,11.26-1.23,18.26C327.76,403.22,324.11,418,316,423.94Z"/><path class="cls-6" d="M308,335.78s8.56,25,5.7,34c0,0-10.87-8.06-14.61-12.12,0,0-21.61-5.28-27.85-8.74l-4.44-4.37s4.09-1.11,12.14-12.79C279,331.8,291.1,331.62,308,335.78Z"/><path class="cls-6" d="M335.31,425.34c.19-1.75,3.91-.92,6.29-2a28.08,28.08,0,0,0,3.21-1.71,29.82,29.82,0,0,0,3.39-2.46A37.65,37.65,0,0,0,356,407a37.16,37.16,0,0,0,2.51-10.78c.08-19.36-17-38.88-17-38.88-9.58-14.65-29.55-16.72-29.55-16.72a85.38,85.38,0,0,1,17.1,43c3,26.35-13,40.3-13,40.3-1.54,5.52-8.53,9.14-8.53,9.14-17.19-7.32-20.86-4.94-20.86-4.94C268.15,423.35,267,413.78,267,413.78c1.76.73,2-2.44,2-2.44,3.2,2.63,13,2.47,13,2.47a77.62,77.62,0,0,1,17.87,8c2.86-1.5,7.74-12.88,7.74-12.88,4.78-6.75,6.25-19.22,6.25-19.22,1.16-6.77-8.11-13.76-8.11-13.76-5-9.32-18.35-12.47-18.35-12.47a61.34,61.34,0,0,1-16.4-8.69c-3.24,9.63-7.6,11.55-7.6,11.55-2.95,4-14.34,7.16-14.34,7.16-2.14,6.89-9.81,19.81-9.81,19.81a34.92,34.92,0,0,0,23.54,20.14s2.21,2.73,4.2.3c0,0,1.87.17,2-2.44,0,0-9.38-3.45-10-9.12A31.16,31.16,0,0,1,263.36,377s16.59-12.8,22.9-10.82c0,0,13,4.84,15.22,10.11,0,0,11.19,14.44,7.27,23.81,0,0-4.85,14.7-8.84,21.79"/><path class="cls-6" d="M308.23,408.74c7.39-.13,10.58-2.24,12.06-4.42,1.83-2.7,2.86-8.24,2.86-8.24s-4.7-15.6-2.79-20.3c0,0-2.95-4.9-6.64-6L299.11,357.7s-24.9-5.83-27.85-8.74l-4.44-4.37s-1.54,2.29-.66,3.87a79,79,0,0,0,4.88,6.36s11.17,7.4,19.28,9.65c0,0,13.09,4.89,15.47,11.51,0,0,8.88,7.17,8.11,13.76a54.4,54.4,0,0,1-5.67,19Z"/><path class="cls-6" d="M348.2,419.18s16.56,2.13,26-6.07c0,0,11.62-22.33,24.86-33.36,0,0-5-18.56-3.46-29.19,0,0-10.84-12.07-12.78-14.86,0,0-5.19,15.84-9.78,18.24,0,0-15.39,7.48-28.43,7.33,0,0,12.33,13.56,12.87,26.16C357.46,387.43,362.28,402.75,348.2,419.18Z"/><path class="cls-6" d="M301,308.28a54.79,54.79,0,0,1,13.26-10.92s13.31.21,15.37-1.22c0,0-.51,6.19,12.13,9.73,0,0,20.9,1.68,23.65-2,0,0,20.73,19.15,20.4,23.7,0,0,.86,2.44-3,8.13,0,0-3.61,12.91-9.78,18.24,0,0-21.6,9.79-28.43,7.33,0,0-6-8.14-8.68-10.3,0,0-7.58-7.83-24-10.34l-2.35.12-1.57-5,1.88.63s24.57.83,31.11-1.49l2.89-1.74s-13.33-3.27-16.41-8.31C327.49,324.87,318.8,314.86,301,308.28Z"/><path class="cls-6" d="M198.82,344.06s-4-14.66-1.8-26.65c0,0,6.14-27.19,18-40.08a71,71,0,0,1,12-10.2l.24-.15a31.93,31.93,0,0,1,9.31.57c12.59,2.66,19.83,12.27,22.1,15.58,0,0,24,8.28,27.55,5.67,0,0,3.82-1.42,6.63.26s8.83,6,21.39,8.3A71.25,71.25,0,0,0,301,308.28s-23.94-6.58-33.51-5.68l-4.31-2.4S252.07,317.88,240.9,323c0,0-17.86,6.48-22.26,9.2,0,0-11.45,4.33-13.24,6.52Z"/><path class="cls-6" d="M303.46,397.94s-1.11,7.48-4.72,8.74-8-2.62-17.11-3.68c0,0-16.89-8.39-11-20.8a5.69,5.69,0,0,1,2.27-5.07s12.67-4.31,16-9.92c0,0,12.84,13.51,12.28,15.13C301.18,382.34,304.84,395.24,303.46,397.94Z"/><path class="cls-6" d="M276.91,393.19s13.4,6.93,18.83-2c0,0-.21-16.67-6.84-24,0,0-4.17,6.09-16,9.92a6.41,6.41,0,0,0-2.27,5.07s-2.07,4.77-1,7.76Z"/><path class="cls-6" d="M287.38,380.1s-11.35,3.29-12.52,6.3c0,0-4.14-1.81-4.22-4.2a5.45,5.45,0,0,1,2.27-5.07c2.84-2.25,7.85-2.09,11.92-6A20.48,20.48,0,0,0,287.38,380.1Z"/><path class="cls-6" d="M295.74,391.23a39.73,39.73,0,0,0-8.36-11.13,17.79,17.79,0,0,1-2.55-9,9.32,9.32,0,0,0,4.07-3.92S296.8,378.51,295.74,391.23Z"/><path class="cls-6" d="M335.46,424.17a25.53,25.53,0,0,1-7.06,1.7A26.12,26.12,0,0,1,316,423.94s14.15-10.69,13.34-36.5c0,0,0-23.81-17.41-46.81,0,0,22.55,2.5,32.65,20.64,0,0,13.23,15.57,13.64,30.49a39,39,0,0,1-1.52,12.38c-1.28,4.33-3.86,13.08-11.9,17.5A21.26,21.26,0,0,1,335.46,424.17Z"/><path class="cls-7" d="M315.46,423.7l-14.8-1.79,2.91-3.56Z"/></g></g></svg>