<svg xmlns="http://www.w3.org/2000/svg" viewBox="0 0 146.96 163.63"><defs><style>.cls-1,.cls-12,.cls-13,.cls-17,.cls-7,.cls-8{fill:none;}.cls-1,.cls-11,.cls-16,.cls-18{stroke:#fff;}.cls-1,.cls-11,.cls-12,.cls-13,.cls-16,.cls-17,.cls-18,.cls-7,.cls-8{stroke-miterlimit:10;}.cls-2{fill:#4d8a25;}.cls-3{fill:#0d2d22;}.cls-4{fill:#475e2a;}.cls-5{fill:#405525;}.cls-6{fill:#65b32e;}.cls-7{stroke:#82bc43;}.cls-11,.cls-16,.cls-18,.cls-7{stroke-width:0.25px;}.cls-8{stroke:#84a170;}.cls-13,.cls-17,.cls-8{stroke-width:0.5px;}.cls-9{fill:#579a28;}.cls-10{fill:#506930;}.cls-11{fill:#8b162a;}.cls-12{stroke:#3fab36;}.cls-13{stroke:#ab1c35;}.cls-14{fill:#9b6537;}.cls-15{fill:#c6793f;}.cls-16{fill:#de9ebf;}.cls-17{stroke:#b27291;}.cls-18{fill:#63174b;}</style></defs><g id="Layer_2" data-name="Layer 2"><g id="Page_1" data-name="Page 1"><path class="cls-1" d="M30.55,84.55a31.15,31.15,0,0,1,.68,3.78v.92"/><path class="cls-1" d="M25.54,104.12s-2.27-4.4-.47-6.33h0a12.29,12.29,0,0,1,2.21-1.72h0A9.7,9.7,0,0,1,29.62,95h0a9.08,9.08,0,0,1,2.22-.46h0a7.86,7.86,0,0,1,1.74,0h0a.75.75,0,0,0,.69.14l-3,4.86A23.26,23.26,0,0,1,25.54,104.12Z"/><path class="cls-1" d="M20.61,101.5s.68,1.65,3.77,1.52"/><path class="cls-1" d="M22.49,94.7s.91,2.1,2.34,2.29"/><path class="cls-1" d="M21.71,98.58a2.68,2.68,0,0,0,1.95,1.56"/><path class="cls-1" d="M23.4,92s.55,2.81,2.5,3.39"/><path class="cls-1" d="M29.05,89.43s-.69,1.2.27,3.44"/><path class="cls-2" d="M55.83,65.19S56.15,73,55,76.65c0,0-1.23,7.58-1.66,10.25a31.1,31.1,0,0,1-1.12,7.43c-.13,1.78-.28,3.57-.46,5.4q-.59,6-1.42,11.59.8-3.27,1.5-6.81t1.24-6.94A56.6,56.6,0,0,1,54.23,90c.64-2,1.39-10,1.39-10s2-12.69,1.54-14.81Z"/><path class="cls-2" d="M40.25,145s-1.65,8.88-2.48,11c0,0-.94,4.8-2.79,6.77,0,0-.76.64,1.2.81a24.17,24.17,0,0,0,1.36-2.49s5.68-19.77,5-21.11Z"/><path class="cls-2" d="M44.47,135.72s-1,13-1.43,13.5l-.46.5s-1.84,3.34-1.31,9.26a.9.9,0,0,0,1.36,0s.49-8.59,1.1-9.32,1.16-15.08,1.16-15.08Z"/><path class="cls-3" d="M47.26,141.19s1.74-9.31,5.07-12.33a22,22,0,0,1,6.35-6.72s7.92-7.4,10.41-8.23c0,0,3-1.68,4.38-1.67a3.39,3.39,0,0,0-1.21,1.82s-3.24,6.72-4.07,8.31-5.44,5.21-7.1,6.26c0,0-5,3.55-6.72,4.46C54.37,133.09,47.4,138.11,47.26,141.19Z"/><path class="cls-3" d="M33.18,123.17a20.28,20.28,0,0,0,0,3.74s.4,2.24,9,9.06l1.27-3.18s-.18.31-.84-.44-6.37-6.38-7.69-7.09Z"/><path class="cls-4" d="M80.39,79.28s5.44-6.56,7-7.16A48.7,48.7,0,0,1,92.49,67s2.83-3.89,5.19-4.84L100.13,61a13.76,13.76,0,0,1,.71-3.1,4.89,4.89,0,0,1-.14-1,4.76,4.76,0,0,1,.11-1.11A3.17,3.17,0,0,1,102.35,54a2.84,2.84,0,0,1,1.43-.29,11,11,0,0,1,.08,1.91,4.38,4.38,0,0,1-.62,2.64l-1.71,2.39a19.68,19.68,0,0,1,5.46-1.5s2.07.14,1.25,1.26c0,0,.92.83-6.71,1.07,0,0-3,.77-3.85,1.54,0,0-1.63,1.09-1.93,2l-2.48,2.51s-2.26,2-3,2.6c0,0-2.14,1.74-2.17,2.22,0,0-1.72,1.37-2.09,1.77,0,0-4.55,6.07-6.21,6.68Z"/><path class="cls-4" d="M101.53,60.67s5.9-7,7.62-8l6-6a3.75,3.75,0,0,0,.63-1.91c0-1-.34-3.33-.34-3.33s.85-3,2.41-2.14c0,0,.82.54.38,2.51,0,0,5.34-6.43,7.24-6.66,0,0,4.66-2,5,2.28a14.15,14.15,0,0,1-6,3.91l-6,2.86s6.15-3.47,8.64-2.52c0,0,1.9.81,1.15,2.14,0,0-2.24,1.57-9.52,2.76l-3.59.1"/><path class="cls-5" d="M119.51,59.17l8.47-4s3.63-6.1,5.38-6.85c0,0,2.5-1.44,2.44,0,0,0-3.8,5.45-6.1,6.28,0,0,11.45-4.91,12.51-4.91,0,0,4.19-.65,4.75.16a4.65,4.65,0,0,1-4.06,3.25l-11.17,2.07s5.63-.41,7,.12c0,0,2,.31,1.34,1.09a19.63,19.63,0,0,1-8.66.32l-3.72-.47-9.38,4.39Z"/><path class="cls-5" d="M68.09,102.31l7.47-7.57S83,86.94,84,86.62c0,0,6-4.16,7.28-4.36,0,0,6.37-7.48,8.13-7.67,0,0,3.12-.85,2.92.78,0,0-3.44,4-6.95,5.49,0,0,10.4-2.19,17.68-.56a3.22,3.22,0,0,1-.71,2.35,14.89,14.89,0,0,1-3.94.72c-1.79,0-13.1-1.17-13.1-1.17s10.27,1.88,9,5c0,0,0,1.11-1.49.59s-9.36-4.55-9.36-4.55-1.4-.52-5.17,1.76c0,0-5.76,3.51-7.32,5.68,0,0-5.91,6.37-6.94,7.17a22,22,0,0,0-2.29,2.21Z"/><path class="cls-5" d="M95.4,80.86s7.49-3.55,9.87-4.66c0,0,4.14-1.43,4.8-2.3,0,0,6-6.36,7-7.26,0,0,3.11-3.36,5.49-2.67,0,0,.86,1.36-1.15,2.92l-10,7.1s11.08-5.79,16.13-7.39c0,0,6.07-2.79,7.06-.41,0,0,.21,2.87-2,3.57s-21.26,5.13-21.26,5.13,8.54-3.45,16.05-1.85c0,0,2.54.9,1.84,2.75,0,0-5.78.9-18,.21l-3.08,0Z"/><path class="cls-6" d="M24.4,26.9l-.34-2.58a11.71,11.71,0,0,0,.3-9.25S22.29,10.3,19.2,8a25.74,25.74,0,0,0-6.54-3.5S9.07,2.62,7,2.86c0,0-1-.79-1.51-.76,0,0-2.41,0-2.87.41A10.79,10.79,0,0,1,0,1.64,53,53,0,0,0,3.19,7.31S5.7,10.42,5.75,12.5c0,0,2.54,5.14,3.11,6s4.64,4.75,6.5,5.09c0,0,4.31,2.22,6.08,1.5l1.94-.29.36,2.39c0,.09.18.67.35.66S24.34,27.43,24.4,26.9Z"/><path class="cls-7" d="M22.43,22.61a4.85,4.85,0,0,1-2.85.77"/><path class="cls-7" d="M21.13,20.29s-3.31,1.6-4.35,1.43"/><path class="cls-7" d="M19.16,17.16a18.35,18.35,0,0,1-4.82,1.38"/><path class="cls-7" d="M16.38,14.23s-4,1.26-4.57.94"/><line class="cls-7" x1="12.99" y1="11.18" x2="8.52" y2="11.58"/><line class="cls-7" x1="8.75" y1="7.84" x2="5.88" y2="8.22"/><path class="cls-7" d="M6.48,6S6.3,3.8,5.35,3.2"/><path class="cls-7" d="M10.77,9.46s0-3.23-.65-3.94"/><path class="cls-7" d="M14.07,12s.48-4.15-.37-5.6"/><path class="cls-7" d="M17.29,15.15s.73-1.45.43-1.87"/><path class="cls-7" d="M19.56,17.63s1.48-2.78,1.27-3.28"/><path class="cls-7" d="M21.37,20.83s1.56-2.65,1.4-3.31"/><path class="cls-8" d="M.66,2.6a54.89,54.89,0,0,1,6.58,4L14.07,12s6.33,5.82,6.86,7.7A15,15,0,0,0,23.48,24c.25,1.1.45,2.23.62,3.39l0,.14"/><path class="cls-3" d="M105.14,23.55s3-1.94,10-2,16.64.45,18.55,0l3-1.14a6.57,6.57,0,0,1-2.53,2.54c-1.52.67-3.82,3-7,3,0,0-7.58-.55-13.68-1.72,0,0-2.75-.52-4.24.19A11,11,0,0,0,105.14,23.55Z"/><path class="cls-6" d="M19.41,78.71,19.2,77.1a7.34,7.34,0,0,0,.19-5.79,13.14,13.14,0,0,0-3.23-4.45,15.94,15.94,0,0,0-4.09-2.19,8.69,8.69,0,0,0-3.57-1s-.63-.5-.94-.48c0,0-1.51,0-1.8.26a6.46,6.46,0,0,1-1.62-.55,32.62,32.62,0,0,0,2,3.55s1.56,2,1.6,3.25c0,0,1.59,3.22,1.95,3.73s2.9,3,4.06,3.19c0,0,2.7,1.39,3.81.94l1.21-.18L19,78.87c0,.06.11.42.22.41S19.38,79.05,19.41,78.71Z"/><path class="cls-7" d="M18.18,76a3,3,0,0,1-1.79.48"/><path class="cls-7" d="M17.36,74.58a8.75,8.75,0,0,1-2.72.89"/><path class="cls-7" d="M16.13,72.62a11.65,11.65,0,0,1-3,.86"/><path class="cls-7" d="M14.39,70.78s-2.49.79-2.86.59"/><line class="cls-7" x1="12.27" y1="68.88" x2="9.47" y2="69.13"/><line class="cls-7" x1="9.61" y1="66.78" x2="7.82" y2="67.02"/><path class="cls-7" d="M8.2,65.63s-.12-1.38-.71-1.75"/><path class="cls-7" d="M10.88,67.8s0-2-.4-2.47"/><path class="cls-7" d="M12.94,69.39s.31-2.59-.23-3.5"/><path class="cls-7" d="M15,71.36s.46-.91.27-1.17"/><path class="cls-7" d="M16.38,72.91s.93-1.74.8-2"/><path class="cls-7" d="M17.52,74.92s1-1.66.87-2.08"/><path class="cls-8" d="M4.55,63.51A32.3,32.3,0,0,1,8.67,66l4.27,3.38s4,3.65,4.3,4.83a9.47,9.47,0,0,0,1.6,2.69c.15.69.28,1.4.38,2.12l0,.09"/><path class="cls-6" d="M15.58,91,15.44,90a4.84,4.84,0,0,0,.12-3.83,8.56,8.56,0,0,0-2.13-3,10.71,10.71,0,0,0-2.71-1.45,5.75,5.75,0,0,0-2.36-.66s-.42-.33-.63-.31c0,0-1,0-1.18.16a4.4,4.4,0,0,1-1.08-.36,22.64,22.64,0,0,0,1.32,2.35,5,5,0,0,1,1.06,2.15s1.06,2.13,1.29,2.47a8.1,8.1,0,0,0,2.69,2.11s1.79.92,2.52.62l.81-.12.15,1s.07.28.14.28S15.56,91.26,15.58,91Z"/><path class="cls-7" d="M14.76,89.26a2,2,0,0,1-1.18.32"/><path class="cls-7" d="M14.22,88.3a5.87,5.87,0,0,1-1.8.59"/><path class="cls-7" d="M13.41,87a7.65,7.65,0,0,1-2,.58"/><path class="cls-7" d="M12.26,85.79a7,7,0,0,1-1.9.39"/><line class="cls-7" x1="10.86" y1="84.53" x2="9" y2="84.69"/><line class="cls-7" x1="9.1" y1="83.14" x2="7.91" y2="83.3"/><path class="cls-7" d="M8.16,82.38s-.08-.91-.47-1.16"/><path class="cls-7" d="M9.94,83.81s0-1.33-.27-1.63"/><path class="cls-7" d="M11.3,84.87a5.63,5.63,0,0,0-.15-2.32"/><path class="cls-7" d="M12.64,86.17s.3-.6.17-.77"/><path class="cls-7" d="M13.57,87.2s.62-1.16.53-1.36"/><path class="cls-7" d="M14.33,88.52s.64-1.09.58-1.37"/><path class="cls-8" d="M5.75,81a22.22,22.22,0,0,1,2.72,1.66l2.83,2.24s2.62,2.41,2.84,3.19a6.31,6.31,0,0,0,1.06,1.78c.1.46.19.93.26,1.41v.06"/><path class="cls-6" d="M102,23.7l1.61-.21a7.31,7.31,0,0,0,5.79.18,13.08,13.08,0,0,0,4.45-3.24A16.1,16.1,0,0,0,116,16.34a8.69,8.69,0,0,0,1-3.57s.49-.63.47-.94c0,0,0-1.51-.26-1.8a6.82,6.82,0,0,1,.54-1.62,32.76,32.76,0,0,0-3.54,2S112.25,12,110.94,12c0,0-3.21,1.6-3.72,2s-3,2.91-3.18,4.07c0,0-1.39,2.71-.94,3.81l.18,1.22-1.49.22c-.05,0-.42.12-.41.22S101.61,23.67,102,23.7Z"/><path class="cls-7" d="M104.63,22.47a3,3,0,0,1-.49-1.78"/><path class="cls-7" d="M106.08,21.65a9,9,0,0,1-.9-2.72"/><path class="cls-7" d="M108,20.42a11.51,11.51,0,0,1-.87-3"/><path class="cls-7" d="M109.87,18.68s-.79-2.5-.59-2.87"/><line class="cls-7" x1="111.77" y1="16.55" x2="111.52" y2="13.75"/><line class="cls-7" x1="113.86" y1="13.89" x2="113.62" y2="12.1"/><path class="cls-7" d="M115,12.47s1.38-.12,1.75-.71"/><path class="cls-7" d="M112.85,15.16s2,0,2.47-.41"/><path class="cls-7" d="M111.26,17.22s2.59.3,3.5-.23"/><path class="cls-7" d="M109.29,19.25s.91.45,1.17.26"/><path class="cls-7" d="M107.75,20.67s1.74.92,2,.79"/><path class="cls-7" d="M105.74,21.8s1.66,1,2.08.88"/><path class="cls-8" d="M117.13,8.82a33.66,33.66,0,0,1-2.49,4.12l-3.38,4.28s-3.64,4-4.82,4.31a9.47,9.47,0,0,0-2.69,1.6c-.69.16-1.4.29-2.12.39h-.09"/><path class="cls-2" d="M34.94,66.62s4.19,6.55,5.62,11c.38,1.19,1.12,3.08,2,5.93,0,0,1,3.31,1.78,6.87C49.15,112.14,47,128.54,47,128.54c-.39,3-.86,5.5-1.22,7.15a63.29,63.29,0,0,0,2.12-11.51,75.81,75.81,0,0,0-.12-13.34,125.92,125.92,0,0,0-1.77-14.22A107.7,107.7,0,0,0,34.94,66.62Z"/><path class="cls-2" d="M46.4,63.82s.23,2.29.45,3.47,1.64,3.45,1.59,8a115.79,115.79,0,0,1,1.22,15c.2,4.28.28,8.75.19,13.41a199.58,199.58,0,0,1-3.76,34.95,167,167,0,0,0,4.57-34.23,167.24,167.24,0,0,0-.37-16.87c-.13-2.36-.29-4.74-.45-7.14-.24-3.76-.53-7.89-.7-9.42a38.56,38.56,0,0,0-1.61-4.74C47.17,65.4,46.79,64.58,46.4,63.82Z"/><path class="cls-2" d="M63.81,63.91s-1.37,6-2.56,10.16c0,0-3.83,14.64-4,15.36s-4.48,11.48-4.92,16.46l-2,5.43-1.45,13.29s3.25-17.48,4.59-20.49c0,0,2.75-10.55,4.65-13.44,0,0,2.64-12,3.49-14.13s2.6-7.94,3.35-9.49l1.86-4.3Z"/><path class="cls-2" d="M45.37,130.75S47,139.7,46.68,141.4a16.62,16.62,0,0,0,.49,4.33c.49,1-.41,3.53.41,4.15,0,0,1,.43,1.29,0,0,0,.2-2.64.27-2.94s-1.32-1.65-1.48-4.44c0,0-1.38-12-.4-13.19,0,0-.32-5,0-5.55l-1-.3Z"/><path class="cls-2" d="M81.51,53.76S67.32,73.19,66.81,74.45a67.38,67.38,0,0,1-4.22,7s-3.21,12.7-5.67,16.74L52.33,108s6.06-11.79,7-12.21c0,0,3.25-12.81,4.3-14.33L76.66,62.16s4.1-7.15,5.59-8Z"/><path class="cls-2" d="M73.71,53.47s-11,24.21-11.62,27c0,0,4.45-9.14,5.81-11.18s3.86-11.86,6.2-14.46Z"/><path class="cls-3" d="M46.09,138.67s.83-8.22,4.23-12.44a43.73,43.73,0,0,1,5.56-11.39s2.76-5.65,4.57-6.87c0,0,9.31-7.48,13.28-8.84,0,0,7.24-4.36,11-5.45,0,0,6.12-2.38,8.11-2.55l4.57.34S94,92.36,93,93.68A27.83,27.83,0,0,1,83,100.53s-14,5-15.66,6.47-7.16,4.14-8.25,6a21.7,21.7,0,0,0-5.83,8.26L50,128.78a33,33,0,0,0-1.85,5.44,32.29,32.29,0,0,0-.92,7l-1-.57Z"/><path class="cls-9" d="M73.25,90l3.23-2.81c1.29-1.14,3.61-6.62,3.91-7.86S85,68.56,85,68.56c.54-2.43,4.1-8.65,4.1-8.65l-4.2,6c-.49.39-4.45,4-4.45,4-2,2.08-5.53,8.89-5.53,8.89s1.43-2.52-.25.65S73.25,90,73.25,90l-6.44,8.54L60.45,108S71.57,94.14,72.74,92.72c0,0,2.2-2.37,2.59-2.72,0,0,7.42-5.44,7.76-6.06a58.19,58.19,0,0,1,7.4-5.23s9.36-5.38,12-6.11c0,0,10.39-6.28,11.56-7.41,0,0,4.57-4.38,6.12-7,0,0,2.72-5.23,4.86-5.52a29.61,29.61,0,0,0-9.36,5.74s-7.14,3.9-9.13,5.38c0,0-12.66,8.54-13.81,10.12,0,0-10.39,8.1-10.89,8.92Z"/><path class="cls-9" d="M59.59,108.77s.93-6.42,0-9.64c0,0-1.15-6.37-1-8,0,0-.93-5.85-.39-7.55A38.53,38.53,0,0,0,59,79.35l.05-1L59,74.21s.53-.74,1,0,4.08,11.84,4.15,15,1.55,9.22-2.06,15.12Z"/><path class="cls-10" d="M115.6,42.58c1.45.24,2.47.89,2.54,1.62a1,1,0,0,1-.09.48,3.29,3.29,0,0,1-.63.73,3.52,3.52,0,0,1-2,.83,4,4,0,0,0,.36-1.14,7.25,7.25,0,0,0,0-1.48C115.68,43.18,115.63,42.82,115.6,42.58Z"/><path class="cls-2" d="M70.26,44.55s-2.53.7-2.54,6.13a11.77,11.77,0,0,1,.8,1.44,10.77,10.77,0,0,1,.87,3.28,3,3,0,0,1,0-.7,3.45,3.45,0,0,1,.82-1.65,13.19,13.19,0,0,1,2-2l1.46,2.41a15.68,15.68,0,0,1,.78,4.14s2.13-4,2.17-7.28c0,0-1-.46-.41-2.15A20,20,0,0,1,70.26,44.55Z"/><path class="cls-11" d="M76.25,48.18a3,3,0,0,0,0,1.66c.29.53,4.1,4.49,11.56,6.2a27.89,27.89,0,0,0,16-2.31s2.76-2.46,5.75-2c0,0,2-1.61,1.64-3.53,0,0-.38-3.91-3.62-5.34,0,0-3-4-18.13-7.22l-.85,1S92,40.46,90.36,47.73C90.36,47.73,86.18,52.34,76.25,48.18Z"/><path class="cls-11" d="M63.08,25.4s-6.38-4.61-4-13.72c0,0,.81-6.86,8.69-11.12,0,0,3.39-1.66,7.51,1.52,0,0,4.12,2.45,5.49,4.55,0,0,1.74,10.62-2.81,14.88l-3,.74s-1-3.88-6.34-4C68.58,18.26,64.05,22.21,63.08,25.4Z"/><path class="cls-12" d="M115.16,40.9c-1.55-.61-9.63.21-9.63.21"/><path class="cls-13" d="M96.66,48.49a8.13,8.13,0,0,0,5.28-4.59,2.25,2.25,0,0,0,.53-2.6"/><path class="cls-13" d="M104.84,47.78s2.92-1.7,2.92-3.59"/><path class="cls-11" d="M89.42,29.08s6.15-5.23,12-5.23c0,0,3.07-3.2,2.81-5.81,0,0-.66-8-2.94-10.27,0,0-.14-3.2-7.92-2.55,0,0-8.36.33-12.28,5.1,0,0,.78,6.94-3.14,11.19C77.92,21.51,85.83,27,89.42,29.08Z"/><path class="cls-11" d="M107.55,42.84s6.91-.24,7.61-1.94a5.65,5.65,0,0,0,1.17-5S116,28.7,112,26.29c0,0-2.87-3.87-10.61-2.44a19.52,19.52,0,0,0-12,5.23v6.54S103.27,38.18,107.55,42.84Z"/><path class="cls-13" d="M64.41,22.85s-4.36-9-4.19-14.16"/><path class="cls-13" d="M67.24,19.27S64.59,5.94,65.33,2.51"/><path class="cls-13" d="M74.26,20.94s.11.34,1.14-3.74c0,0,1.51-10.13,3.95-11.22"/><path class="cls-11" d="M90.36,47.73s.81-5.13,0-7c0,0-.53-5.33-7.53-8.38,0,0-7-3.7-7.91-10,0,0-.06-3.59-6.34-4,0,0-5.19,4.87-5.5,7.14,0,0-1.34,5.53.44,9.24,0,0,1.5,4.6,2.6,5.75,0,0,4.7,5.87,10.13,7.79a15.89,15.89,0,0,0,8.16,1.63S89.06,49.91,90.36,47.73Z"/><path class="cls-13" d="M82.17,21.21s3.59-7.13,5.45-8.38,3.08-4.75,5.68-6c0,0,0-.89.56-.89"/><path class="cls-13" d="M90.73,23.54S102,14.8,103.49,15.13"/><path class="cls-13" d="M81.9,23.3a3.34,3.34,0,0,1,2.21-2"/><path class="cls-13" d="M84.11,24.57s1.57-1.45,3-1.27"/><path class="cls-13" d="M87.13,26s2.32-1.55,3.07-1.38"/><path class="cls-13" d="M79.9,31.59s-8.15,4.83-7.23,8.17"/><line class="cls-13" x1="89.82" y1="30.26" x2="110.12" y2="26.29"/><path class="cls-13" d="M89.65,34.64s9.11,1.3,11.41,1.36,4.91.71,6.83.24c0,0,5-1.3,5.52-1"/><path class="cls-14" d="M74.92,22.25l3-.74,11.5,7.57v6.54l-.85,1a13,13,0,0,0-5.74-4.35s-4.49-2.66-5.55-4.7a15.78,15.78,0,0,1-1.75-3.07S75.16,23.17,74.92,22.25Z"/><path class="cls-15" d="M75.53,24.53a12.31,12.31,0,0,1,5,0,8.17,8.17,0,0,1,3.22,1.21,7.61,7.61,0,0,1,2.66,3.22c1,1.78.95,3.55.07,4.35a1.85,1.85,0,0,1-1,.47S77.49,30.13,75.53,24.53Z"/><path class="cls-2" d="M41.2,62.59s3.63,14.64,4.41,17.62c2.3,8.72,2.35,10.84,2.51,13a61.59,61.59,0,0,1-.09,8.17c-.06,2.58.07,4.34.12,5.29.39,6.93-2.11,32-2.06,32a224.61,224.61,0,0,0,2.78-34.85c0-5.95-.22-10-.44-13.29a119.89,119.89,0,0,0-3.08-19.85,3.73,3.73,0,0,1-.52-2.2c0-1.54-.72-2.54.14-5.32a11.19,11.19,0,0,1-2.66-2Z"/><path class="cls-16" d="M52.28,44.74s10.92-1.23,14.14,4.1c0,0,5,5.39,2.29,12.33,0,0-.25,2-8.92,3.71,0,0-12.4,1.93-17.48-3.77a9.78,9.78,0,0,1,0-5.52s.69-3.72-1.92-6c0,0-.68-3-.31-4A23.88,23.88,0,0,1,40,43s1.81.18,1.83-.93c0,0,.13-1.24.94-1.12a11.85,11.85,0,0,0,1.39,3.46S45.82,45.9,52.28,44.74Z"/><path class="cls-16" d="M49.9,26.26s8.35-4,13.18-.86c0,0-1.19,6.19.44,9.24,0,0,1.62,5,2.6,5.75A5.8,5.8,0,0,1,62.27,44s-8.75.27-10,.76c0,0-6.52,1.14-8.15-.38a6.9,6.9,0,0,1-1.41-4,5.8,5.8,0,0,0-.17-1.85,5.61,5.61,0,0,0-.75-1.67,5.68,5.68,0,0,0,1.64-.7,4.93,4.93,0,0,0,2.21-3.09s.94-3.07,2-4Z"/><path class="cls-16" d="M19.6,47.08s-3,1.26-2.94,6.9c0,0-.34,6,1.47,9.29,0,0,3.61,4.78,5.59,5.21,0,0,8.74-.74,11.22-1.86,0,0,5.08-1.24,6.26-4l1.11-1.48a11.65,11.65,0,0,1,0-5.52s.69-3.78-1.92-6c0,0-.68-3-.31-4L40,43s-2.24,2.6-5.77,0c0,0-1.82.95-1.8-2.27l-2.21,1.1S28,44.27,19.6,47.08Z"/><path class="cls-16" d="M25,28.52s-2.89-4.25-9.68-2.62c0,0-8.34,4.32-9.22,6a10,10,0,0,0,1.14,6.3s0,4.59,2.74,5.92a55.22,55.22,0,0,0,9.66,3s9.84-3.31,10.59-5.3a14,14,0,0,1,2.21-1.1s-2-1.34,0-3.22c0,0-3.27-4.91-5.75-6.38Z"/><path class="cls-16" d="M24.3,26.74s-.4-9.6,7.18-11.76c0,0,3.53-3.2,6.14-2.87,0,0,15.61,4.73,12.28,14.15,0,0-3.79,4.2-4.25,6.81a5,5,0,0,1-3.85,3.79,5.29,5.29,0,0,0-5.8-2s-3.4,1.33-3.58,2.6c0,0-3.65-5.56-5.75-6.38C26.67,31.08,24.26,28,24.3,26.74Z"/><path class="cls-17" d="M25.61,22.29s2.33,6.26,4.65,7.91"/><path class="cls-17" d="M30.24,28.39S27,19.66,27.5,18.18"/><path class="cls-17" d="M32.12,15.68s-.12,3.77,0,4.8,2,6.86,2,6.86"/><path class="cls-17" d="M43.59,15.35a13.24,13.24,0,0,1-.26,3.31,14.5,14.5,0,0,1-1.27,2"/><path class="cls-17" d="M46.24,17.42A30.33,30.33,0,0,1,45.55,21a31.14,31.14,0,0,1-1.83,4.57"/><path class="cls-17" d="M50.36,32.89S55.88,28,58.15,27.6l4.93-2.2"/><path class="cls-17" d="M64.41,37.15s-2.2,1.81-3.48,2.68-4.69,2.78-4.69,2.78"/><path class="cls-17" d="M43.38,38.55s2.95-.29,3.53-1.9a6.38,6.38,0,0,0,.28-2"/><path class="cls-17" d="M44.15,42s2.93-.16,3.51-1a2,2,0,0,0,.28-1"/><path class="cls-17" d="M32.42,31.41a5,5,0,0,0,1.3,3.26"/><path class="cls-17" d="M35.64,32.67s2.09-2.39,2.09-3.83"/><path class="cls-17" d="M38.43,33.87a2.93,2.93,0,0,1,0-2s.77-1.18,1.53-1.22"/><path class="cls-17" d="M43.72,31.93A6.54,6.54,0,0,1,42,34.15"/><path class="cls-17" d="M26,36.61a4.23,4.23,0,0,0,2.23,2.18"/><path class="cls-17" d="M33.07,45.15s-1.9,2.15-1.9,3.19"/><path class="cls-17" d="M36.25,46.34s-1.77,3.31.62,4"/><path class="cls-17" d="M10.67,30.2s10.47.89,12.94,3.26"/><path class="cls-17" d="M13.71,28.25s10.8.48,12.1,3.58"/><path class="cls-17" d="M7,32.27a59.2,59.2,0,0,0,13.77,5l4.47.87"/><path class="cls-17" d="M11,43.93s9.17-.7,9.69-.64"/><path class="cls-17" d="M18.56,63.1a87.06,87.06,0,0,1,5.73-7.41c1.87-1.88,2.8-2.64,2.8-2.64"/><path class="cls-17" d="M25.26,61.11S28,54,30,52.23c0,0,1.91-2.79,3.83-1.89"/><path class="cls-17" d="M36.13,65.09A31.84,31.84,0,0,0,37.86,60c.33-1.89.67-7.34.67-7.34"/><path class="cls-17" d="M40.59,43.15s1.86,2.19,2.89,2.34"/><path class="cls-17" d="M60.6,64.46a86.08,86.08,0,0,1-6.5-6.75c-1.6-2.12-2.21-3.14-2.21-3.14"/><path class="cls-17" d="M66,57.66s-6.64-3.73-8.09-6c0,0-2.48-2.29-1.31-4.06"/><path class="cls-15" d="M32.4,40.68s-2.07-1.33,0-3.22A3,3,0,0,1,33.72,36,13.57,13.57,0,0,1,36,34.86a5.5,5.5,0,0,1,5.8,2,5.71,5.71,0,0,1,.92,2.77l0,1.27a.77.77,0,0,0-.7.38,3.21,3.21,0,0,0-.3,1s-.27.81-1.77.64c0,0-2.23,2.62-5.77,0C34.2,43,32.38,43.9,32.4,40.68Z"/><path class="cls-18" d="M32.76,81.25s-.5-4.85,2.29-6.61c0,0,2.3-2,5.78,1.23,0,0,3.36,2.62,3.77,5.78,0,0,.41,7.66-.61,8,0,0-1.07,1.18-1.07,0s.48-5.95-1.66-5.36c0,0-2.73.92-3.54,5.36,0,0-.86,1.69-1.25,1.76a1,1,0,0,1-.69-.14S33.21,88.08,33.43,85"/><path class="cls-18" d="M36.47,91.39s-2.09,3.29-3,4.86-5.4,4.46-7.13,5.51-4.3,3.72-3.25,4.35a1.55,1.55,0,0,0,2.11,1,5.5,5.5,0,0,0,5.49,1.62s4.47-.63,5.12-1.73c0,0,3-.26,5.32-4.14,0,0,.73-3.72,1.62-4.82,0,0,1.81-6.8.2-8.46,0,0,.61-5.08-1.27-5.41,0,0-3.12.56-3.93,5.41C37.72,89.63,37,91.23,36.47,91.39Z"/><path class="cls-18" d="M13.12,101.39s-2,.35-2.06,1.38c0,0-.5.8,1.62,1.73,0,0,4.5,2,5.74,3.49,0,0,4.61.74,5.52,0l.21-.75s-.61.07-1.09-1.13c0,0-.63-.34,0-1.26l2.07-2.26a4.91,4.91,0,0,0-3.79-1.52Z"/><path class="cls-18" d="M16.76,89.59s-2-.6-2.83,0-4.46,5-4.46,6.74a5.53,5.53,0,0,0,2.38,4.36l1.27.7,7.45-.3c.2,0,3.15-.32,4.6,1.5l5.72-3.92s2.27-1.66,2.55-2.42l3-4.86-.69-.14a8.52,8.52,0,0,0-3.71.37h0A14.44,14.44,0,0,0,29,93.08h0s-1.37,1-1.73,1.41h0a3.44,3.44,0,0,1-1.5.15h0a10.06,10.06,0,0,1-4.68-1.75h0a41.29,41.29,0,0,1-4.33-3.3h0"/><path class="cls-18" d="M14.64,87s-.57-7,1.27-8.51l7.62-3.87s2.66-2.48,6.66,1.71c0,0,2.54,1.91,3.24,8.7,0,0-.44,2.22,2.35,6.22a10.49,10.49,0,0,0-8.51,3.24s-2.09.89-6-1.46C21.3,93,15.78,89.54,14.64,87Z"/><path class="cls-2" d="M33.58,107.3s-2.13.4-2.13,1.42v2.16a7.31,7.31,0,0,0,3.49-2s2.1-1,2.85-.74c0,0,7.65,9.55,6.91,12.55,0,0,1.12,3.88-1.23,12.15,0,0-10.09,25.68-14.24,30l1.77.39s2.2-1.74,2.2-2.79S44.84,136,45,134.24,46.3,124,46.3,124s-.89-9.65-4.84-13.5c0,0-1.42-1.48-1.3-2.54a5.65,5.65,0,0,1,.36-1.58s3,.42,3.29-1.71l2-.58a17.18,17.18,0,0,0-6.45,0l-.44,1A9.25,9.25,0,0,1,33.58,107.3Z"/></g></g></svg>