<svg xmlns="http://www.w3.org/2000/svg" viewBox="0 0 154.71 320.15"><defs><style>.cls-1{fill:#1cabe3;stroke:#1b58a5;stroke-miterlimit:10;stroke-width:0.5px;}.cls-2{fill:#e5f2fc;}.cls-3{fill:#f4fafe;}.cls-4{fill:#fff;}</style></defs><g id="Layer_2" data-name="Layer 2"><g id="Page_1" data-name="Page 1"><path class="cls-1" d="M142.32,274.52a42.75,42.75,0,0,1-6,14.81s-3.18,5.24-5.33,8.45-3.08,8.38-2.12,11.45,4.27,8.2,7.82,9.71A13.18,13.18,0,0,0,149,317.67s5.17-4.87,5.33-9.58c0,0,.28-3.6,0-3.95,0,0-2.25-9.94-4.92-12.86-3.1-3.38-5.51-7.76-6.74-14.26C142.48,276,142.38,275.1,142.32,274.52Z"/><path class="cls-2" d="M141.61,295.48l2.42-7.85,1.42,5.43-1.68,5.83A4,4,0,0,1,141.61,295.48Z"/><path class="cls-3" d="M133.2,299.18l2.92-3.9,1.85.89-1,1.42s-2,.32-2.58,1.59Z"/><path class="cls-4" d="M138,297.76l.66.54-.66,1.54a9.44,9.44,0,0,1-1.46-.16S137.59,297.87,138,297.76Z"/><path class="cls-4" d="M137.25,297.94l-1.39,1.59-1.57-.14s-.17-.05.09-.21a.41.41,0,0,1,.05-.09l.06-.1a2.35,2.35,0,0,1,.19-.25,1.3,1.3,0,0,1,.17-.17,1,1,0,0,1,.18-.17.82.82,0,0,1,.17-.1,5.27,5.27,0,0,1,.9-.47,4.55,4.55,0,0,1,.86-.24S137.28,297.83,137.25,297.94Z"/><path class="cls-4" d="M136.1,301.16a2.35,2.35,0,0,1,.63-.23,2.53,2.53,0,0,1,.84.08s-.53,2.11-.53,2.3a7.68,7.68,0,0,0-.08,2l-2.53-.12a6.68,6.68,0,0,1,.48-1.93S135.44,301.54,136.1,301.16Z"/><path class="cls-4" d="M133.18,300.88a8.45,8.45,0,0,1,1.52,0s.31.08.31.2a16.69,16.69,0,0,0-.91,2,9.07,9.07,0,0,0-.43,1.57l-1.9-.3-1.12-.24a8.72,8.72,0,0,1,1-1.72S132.7,301,133.18,300.88Z"/><path class="cls-1" d="M14.08,130.05a43.15,43.15,0,0,1-1.56,5.68,43.2,43.2,0,0,1-4.44,9.13s-3.19,5.24-5.33,8.45S-.34,161.69.63,164.75s4.26,8.21,7.82,9.72a13.18,13.18,0,0,0,12.31-1.28s5.18-4.86,5.33-9.57c0,0,.28-3.61,0-4,0,0-2.24-9.94-4.91-12.85-3.1-3.39-5.52-7.76-6.74-14.26C14.24,131.5,14.14,130.63,14.08,130.05Z"/><path class="cls-2" d="M13.36,151l2.43-7.86,1.41,5.43-1.67,5.84A4,4,0,0,1,13.36,151Z"/><path class="cls-3" d="M5,154.7l2.92-3.89,1.85.89-1,1.42a3.89,3.89,0,0,0-2.57,1.58Z"/><path class="cls-4" d="M9.73,153.29l.66.54-.66,1.53a9.31,9.31,0,0,1-1.46-.16S9.35,153.4,9.73,153.29Z"/><path class="cls-4" d="M9,153.46l-1.39,1.59L6,154.92s-.16,0,.1-.22l0-.08a.64.64,0,0,0,.06-.1,1.69,1.69,0,0,1,.2-.25l.17-.18.17-.16a.85.85,0,0,1,.18-.1,4.26,4.26,0,0,1,.89-.47,4.06,4.06,0,0,1,.86-.24S9,153.36,9,153.46Z"/><path class="cls-4" d="M7.85,156.69a2.46,2.46,0,0,1,.64-.23,2.55,2.55,0,0,1,.84.08s-.53,2.1-.53,2.3a7.66,7.66,0,0,0-.08,2l-2.54-.12a7,7,0,0,1,.48-1.93S7.2,157.07,7.85,156.69Z"/><path class="cls-4" d="M4.94,156.4a9.51,9.51,0,0,1,1.52,0s.31.08.31.21a16.55,16.55,0,0,0-.92,2,9.16,9.16,0,0,0-.42,1.57l-1.9-.3-1.13-.25a8.82,8.82,0,0,1,1-1.71S4.46,156.57,4.94,156.4Z"/><path class="cls-1" d="M115.88,1.71a43.15,43.15,0,0,1-1.56,5.68,43.44,43.44,0,0,1-4.44,9.13s-3.19,5.23-5.33,8.45-3.09,8.38-2.12,11.44,4.27,8.21,7.82,9.72a13.19,13.19,0,0,0,12.32-1.28s5.17-4.86,5.32-9.57c0,0,.28-3.61,0-4,0,0-2.24-9.94-4.91-12.85-3.1-3.39-5.51-7.76-6.74-14.26C116,3.16,115.94,2.29,115.88,1.71Z"/><path class="cls-2" d="M115.17,22.67l2.42-7.86L119,20.24l-1.68,5.83A4,4,0,0,1,115.17,22.67Z"/><path class="cls-3" d="M106.76,26.36l2.92-3.9,1.85.9-1,1.41s-2,.33-2.58,1.59Z"/><path class="cls-4" d="M111.53,25l.66.54L111.53,27a9.44,9.44,0,0,1-1.46-.16S111.15,25.05,111.53,25Z"/><path class="cls-4" d="M110.81,25.12l-1.39,1.59-1.58-.13s-.16,0,.1-.22l0-.08.06-.1a1.69,1.69,0,0,1,.2-.25,1.21,1.21,0,0,1,.17-.18l.17-.16a.85.85,0,0,1,.18-.1,3.83,3.83,0,0,1,.89-.47,5,5,0,0,1,.87-.25S110.84,25,110.81,25.12Z"/><path class="cls-4" d="M109.65,28.35a2.46,2.46,0,0,1,.64-.23,2.55,2.55,0,0,1,.84.08s-.53,2.1-.53,2.3a7.66,7.66,0,0,0-.08,2L108,32.42a7,7,0,0,1,.48-1.93S109,28.73,109.65,28.35Z"/><path class="cls-4" d="M106.74,28.06a9.51,9.51,0,0,1,1.52,0s.31.08.31.2a16.78,16.78,0,0,0-.92,2,9.16,9.16,0,0,0-.42,1.57l-1.9-.3-1.12-.25a9,9,0,0,1,1-1.72S106.26,28.22,106.74,28.06Z"/></g></g></svg>