<svg xmlns="http://www.w3.org/2000/svg" viewBox="0 0 266.19 86.09"><defs><style>.cls-1{fill:#95c9ec;stroke-width:8px;}.cls-1,.cls-4{stroke:#fff;}.cls-1,.cls-2,.cls-3,.cls-4{stroke-miterlimit:10;}.cls-2{fill:#42a5dd;stroke:#2c81c4;stroke-width:0.75px;}.cls-3{fill:#85cfe9;stroke:#3dbee7;}.cls-4{fill:#fafdff;}</style></defs><g id="Layer_2" data-name="Layer 2"><g id="Page_1" data-name="Page 1"><path class="cls-1" d="M5.78,39.38S33.58-1.26,158.35,4.57c0,0,81,6.42,102.3,34.81a11.15,11.15,0,0,1,1.52,6.16C260.46,72.08,149,85.47,90.93,81.36c-14.69-1-23.66-3.17-41.57-7.69-39.64-10-43.94-19-45-23.19A17.57,17.57,0,0,1,5.78,39.38Z"/><path class="cls-2" d="M35.76,40.24S57,9.17,152.4,13.63c0,0,61.94,4.91,78.22,26.61A8.51,8.51,0,0,1,231.78,45c-1.31,20.29-86.49,30.53-130.92,27.39-11.24-.79-18.09-2.42-31.79-5.88C38.77,58.82,35.48,52,34.69,48.73A13.41,13.41,0,0,1,35.76,40.24Z"/><path class="cls-3" d="M70,41.23S83.8,21.1,145.6,24c0,0,40.13,3.18,50.67,17.24a5.56,5.56,0,0,1,.76,3.05c-.85,13.15-56,19.78-84.82,17.74-7.28-.51-11.72-1.57-20.59-3.8C72,53.27,69.85,48.82,69.35,46.73A8.67,8.67,0,0,1,70,41.23Z"/><path class="cls-4" d="M112.4,42.45s4.52-6.61,24.8-5.66c0,0,13.17,1.05,16.63,5.66a1.82,1.82,0,0,1,.25,1c-.28,4.32-18.39,6.49-27.84,5.82A33.79,33.79,0,0,1,119.48,48c-6.44-1.63-7.14-3.09-7.31-3.78A2.87,2.87,0,0,1,112.4,42.45Z"/></g></g></svg>