<svg xmlns="http://www.w3.org/2000/svg" viewBox="0 0 26.87 58.65"><defs><style>.cls-1{fill:#65b32e;}.cls-2,.cls-3{fill:none;stroke-miterlimit:10;stroke-width:1.25px;}.cls-2{stroke:#82bc43;}.cls-3{stroke:#84a170;}</style></defs><g id="Layer_2" data-name="Layer 2"><g id="Page_1" data-name="Page 1"><path class="cls-1" d="M23.53.31,20.09,3.4S12.4,3.54,6.21,11c0,0-5.22,7.21-6,13.81A44.25,44.25,0,0,0,.79,37.53s.42,6.9,2.6,9.79c0,0-.28,2.18.22,2.88,0,0,2,3.59,3.09,3.87,0,0,1.27,4,1,4.58,0,0,4.36-6.69,5.56-9.64,0,0,2.4-6.41,5.42-8.31,0,0,5.35-8.24,6.06-9.79s3-11,1.83-14c0,0-.49-8.31-3.1-10.28L21.35,4l3.2-2.61s.76-.93.67-1.09S23.53.31,23.53.31Z"/><path class="cls-2" d="M19,7.29s3,1.52,3.63,3.53"/><path class="cls-2" d="M16.72,11.24s5.24,3.48,5.91,5.15"/><path class="cls-2" d="M13.82,16.87s4.41,3.17,6.26,5.89"/><path class="cls-2" d="M11.93,23.52s5.34,4.77,5.38,5.92"/><line class="cls-2" x1="10.41" y1="31.17" x2="14.9" y2="37.42"/><line class="cls-2" x1="9.19" y1="40.35" x2="12.25" y2="44.24"/><path class="cls-2" d="M8.46,45.29s-3.09,2.2-3.15,4.11"/><path class="cls-2" d="M9.8,36S5,38.72,4.56,40.35"/><path class="cls-2" d="M10.68,28.87S4.15,31.78,2.76,34.3"/><path class="cls-2" d="M12.49,21.37s-2.77.2-3.12,1"/><path class="cls-2" d="M14.16,15.88s-5.39.23-5.93,1"/><path class="cls-2" d="M17.31,10.41s-5.27,0-6.11.83"/><path class="cls-3" d="M8.53,56.84a90.92,90.92,0,0,1,.15-13.18l2-14.79S13.73,14.45,16.05,12s4.1-7.52,4.1-7.52q2.12-2,4.46-3.86l.2-.16"/></g></g></svg>