<svg xmlns="http://www.w3.org/2000/svg" viewBox="0 0 203.76 232.5"><defs><style>.cls-1{fill:#db8e72;}.cls-2{fill:#f3aece;}.cls-3{fill:#e62e2f;}.cls-4{fill:#65b330;}.cls-5{fill:#bd4931;}.cls-6{fill:#fff6ee;}.cls-7{fill:none;stroke:#a3938e;}.cls-10,.cls-7,.cls-9{stroke-miterlimit:10;}.cls-8{fill:#1d1d1b;}.cls-9{fill:#fff;stroke:#fff;stroke-width:0.5px;}.cls-10{fill:#fffef7;stroke:#c6bdb4;}.cls-11{fill:#f4a8ab;}</style></defs><g id="Layer_2" data-name="Layer 2"><g id="Page_1" data-name="Page 1"><path class="cls-1" d="M58.35,19.66S28.69,38.36,24.5,70.28c0,0-7.09,48-7.09,71.57,0,0-4.51,30.63-17.41,45.14,0,0,48,15.8,63.51,15.8,0,0,69.64,2.9,103.49-5.16l36.76-10s-17.41-22.89-19.35-61.25c0,0-5.48-75.12-17.41-88,0,0-12.25-23.86-50.94-26.76C116.06,11.6,86.08,6.77,58.35,19.66Z"/><path class="cls-2" d="M56.64,20.79a21.75,21.75,0,0,0-4.56-2.49,24,24,0,0,0-15.36-.58S30,20.4,33.52,27.82s6.62,5.57,7,5.57a47.53,47.53,0,0,0,4.63-2.68c1.27-1.31,2.66-2.66,4.16-4A86.49,86.49,0,0,1,56.64,20.79Z"/><path class="cls-2" d="M56.7,20.79l1.65-1.13S68.16,15.35,74.67,14c0,0,5.07-2.3,4.25-5.33,0,0-.41-6.65-9.64-8.62A22.09,22.09,0,0,0,58.06,17.72Z"/><path class="cls-3" d="M54.15,19.14a2.1,2.1,0,0,1,.5-1,3,3,0,0,1,3.19-.52c-.13.36-.27.73-.42,1.1-.24.61-.5,1.2-.75,1.77l-1.15-.62Z"/><path class="cls-4" d="M87.45,133c-.15,11.59-.72,24.14-1.92,37.47a475.86,475.86,0,0,1-9.42,60.65l55.82,1.42s-16.51-86.24-13.24-99.74a61,61,0,0,1-7.88,1.47,59.56,59.56,0,0,1-9.24.42,56.86,56.86,0,0,1-9.75-1.24Z"/><path class="cls-5" d="M118.66,131.81s8.87-1.45,13.7,8.46l4.83,9.91-15.9,2.52Z"/><path class="cls-5" d="M85.86,132.29s-8.87-1.45-13.7,8.46l-4.82,9.91,15.89,2.52Z"/><path class="cls-6" d="M43.73,103l-3.19-9.28S49.82,105.86,53,105.57c0,0-5.51-20.59,6.09-27S74.76,68.45,86.65,67c0,0,29.87-6.09,30.74-7.25s16.24-14.51,16.82-13.35l.58,1.16s-3.48,11.9-6.67,14.22-10.73,9.57-10.73,9.57,16-4.64,19.43-7.54l8.41-8.12S160.31,71.35,158,94c0,0-5.51,18.56-20.88,29.58,0,0-20.59,13.63-44.08,9.57,0,0-24.07-.58-40.6-17.11Z"/><path class="cls-7" d="M101.46,95.79s7.93,3.79-1.48,10.73"/><ellipse class="cls-8" cx="78.17" cy="84.58" rx="2.9" ry="6.72"/><path class="cls-9" d="M79.92,79.21s-2,.82-1.75,2.37a3.32,3.32,0,0,0,2.9,3S80.63,80.39,79.92,79.21Z"/><ellipse class="cls-8" cx="124.7" cy="84.58" rx="2.9" ry="6.72"/><path class="cls-9" d="M126.45,79.21s-2,.82-1.75,2.37a3.32,3.32,0,0,0,2.9,3S127.16,80.39,126.45,79.21Z"/><path class="cls-10" d="M81.07,112.65H121.8s-8.5,9.31-18.13,10.43S81.8,115,81.07,112.65Z"/><path class="cls-11" d="M101.44,123.17s1.49-6,9.38-5.87a16.49,16.49,0,0,1,4.88.61s-6.09,4.49-11.31,5.07A11.19,11.19,0,0,1,101.44,123.17Z"/></g></g></svg>