<svg xmlns="http://www.w3.org/2000/svg" viewBox="0 0 100.57 137.06"><defs><style>.cls-1{fill:#efcaa6;stroke:#ddbc9b;stroke-miterlimit:10;}</style></defs><g id="Layer_2" data-name="Layer 2"><g id="Page_4" data-name="Page 4"><path class="cls-1" d="M29.45,70.58S18.5,57.33,1.8,63.38c0,0-5.19,12.1,5.18,20.45,0,0,13.25,18.72,19,39.75l10.37,13,43.5-1.73a165.24,165.24,0,0,1,19-41c.24-1.47.53-3.47.77-5.85A107,107,0,0,0,100,74.5C99.44,62,95.37,49.42,94.56,47a7.27,7.27,0,0,0-4.26-3.18,7.52,7.52,0,0,0-6.39,1.52,5,5,0,0,0-.49.9,7,7,0,0,0-.3,3.76s.12,1.19.34,3.92c.12,1.54.13,2.8.14,5.32,0,1.23,0,2.84-.07,4.74.17-2,1.81-23.41-5.44-25.84a4.49,4.49,0,0,0-1.84-.21,9.56,9.56,0,0,0-3.43,1,10.05,10.05,0,0,0-4.42,4.36c-1.29,2.44-1.1,4.62-1,7.7.12,2.87.2,7.07,0,12.4,0,.09.12-4.29.13-5.92,0-2.77,0-4.15-.08-5.31,0-.39-.1-1.39-.1-2.75,0-.95,0-1.63,0-1.82a20,20,0,0,0-2.53-10A16.47,16.47,0,0,0,62,33.85c-2.15-1.19-5.47-2.58-7.93-1.25-2,1.08-3,3.75-3.45,15.75-.32,9.39,0,17,.06,17s-.31-6.91-.06-17c.06-2.43.14-4.49.22-6.28.29-6,.48-8.46.55-10.22.3-7.92-4-19.53-4.44-20.7a75.35,75.35,0,0,0-4.18-9A9.69,9.69,0,0,0,36.52.55a7.54,7.54,0,0,0-.83.15c-3.64.88-8.75,5.54-8.26,25Z"/></g></g></svg>