<svg xmlns="http://www.w3.org/2000/svg" viewBox="0 0 220.08 305.55"><defs><style>.cls-1{fill:#65b330;}.cls-2,.cls-3{fill:none;}.cls-2{stroke:#82bc43;stroke-width:0.5px;}.cls-2,.cls-3,.cls-4{stroke-miterlimit:10;}.cls-3{stroke:#85a170;stroke-width:0.75px;}.cls-4{fill:#b01f25;stroke:#fff;stroke-width:0.4px;}</style></defs><g id="Layer_2" data-name="Layer 2"><g id="Page_4" data-name="Page 4"><path class="cls-1" d="M100.1,176.83a2.91,2.91,0,0,0,0,1.91c.4.78.45,5.37.51,7.5a5.41,5.41,0,0,0-4,.23s2.57,1.17,2.74,2c0,0,.45,2.07,1.29,2.13,0,0-2.56,14.88-4,19,0,0-2.49-1.32-3.32-1.26,0,0,1.37,1.21,1.4,2.21a22,22,0,0,1,.2,3.53l0,1L90,228.91s-7.09-4.31-7.09-5c0,0-8.32-15.29-8.93-16.63v4.28S67.2,196.47,31.06,188.4l-10.21-1.1s-.64,1-.37,1a9.05,9.05,0,0,1,4.46,4.33s2,5.73,3.66,7.79c0,0,1.25,12.95,9.22,23.13,0,0,14.38,11.62,20.69,11.18,0,0,15.72-1.88,19.37-5.87,0,0,2.22-1.66,4-1.21,0,0,6.53,3.21,7,4.09L78,256.49s-2.59-2.31-4.16-2.25c0,0,1.36,1.23,1.36,2.25,0,0-.27,3.14.07,3.75l.68,1.44s-4.68,11.74-5.34,16.08a8,8,0,0,1-1.32-2.63c0-.79-.46-7.89-.19-11.84l-1.46,2.22s-1.41-7.7-2.71-8.56l-.32,2.38S51.35,242.47,39.5,241c0,0,2.29,2.8,2.29,3.44s2.42,10.83,2.42,12.1,3.57,17.59,10.58,19.88c0,0,2.69,2.38,8.59.57a11,11,0,0,1,3.47-.39l2.88,4.09-3.58,17.17s-.73,6.64.22,7.74l8-3.87s0-10.3.81-15c0,0,2.63-13.58,3.36-15.41,0,0,5.55-17.38,6.86-20.09,0,0,5.89-1.13,7.32-2.49a57.54,57.54,0,0,1,12.49.52s7.19,1.36,8.44.94l-3.33-2.5,4.59-.11s30.87-9.7,38.28-22c0,0,1.66-3.76,3.54-4.59l3.44-3.13v-1.57s-2.29,2.19-4.48,1.67c0,0-12.41-1.67-16-4,0,0-18.36-1.78-24.62,1.35,0,0-14.18,3.86-17.52,9.81,0,0-6.15,1.67-3.86,18.56,0,0-4.48,3.76-7.09,4.18l2.09-4.8s2-2.11,4-1.89a2.34,2.34,0,0,0-2.68-2l3.37-8.61s2.64-8.3,3.41-9.7,2.8-7.25,2.8-7.25,2.13-6,2.09-7.18c0,0,0,.31.93-.19,0,0,1.66-1.79,2.43-1.94l2.59-.09a4.68,4.68,0,0,0-3.4-2l-1.38.21s1.45-8.91,1.45-10.95c0,0,.56-6.24.66-10.44a23.73,23.73,0,0,1,2.81-2.25l2.77-.07a7.68,7.68,0,0,0-3.15-2,3.49,3.49,0,0,0-2.39.33h0l-1.15-.62h0Z"/><path class="cls-2" d="M76.6,258s-.31,1.47,0,1.85l.32.37s.65-.72.65-1.11S77.1,258.23,76.6,258Z"/><path class="cls-2" d="M95.74,211.31s-.13.46,0,.61a.55.55,0,0,0,.28.18l.31-.4A1,1,0,0,0,95.74,211.31Z"/><path class="cls-2" d="M100.63,205a4.31,4.31,0,0,1,1.69-.73h.35s-.22.83-.64,1S100.85,205.47,100.63,205Z"/><path class="cls-2" d="M103.94,179.58a3.45,3.45,0,0,1,1.31-.7h.35s-.17,1-.57,1.06A.84.84,0,0,1,103.94,179.58Z"/><path class="cls-2" d="M42,200.43s2,4.8,5.17,6.33c0,0,7.54,7,7.81,9.46"/><path class="cls-2" d="M62.79,208.72s1.61,2.41,3.5,3.06c0,0,5.5,4.59,6.75,10.67"/><path class="cls-2" d="M51.66,222.12a4.45,4.45,0,0,1,1.63-.3,4.66,4.66,0,0,1,1.67.3,21,21,0,0,1,2.82-1.24,22,22,0,0,1,4.5-1.09l3.57,0"/><path class="cls-2" d="M39.91,213.14s3.25,1.77,5.27,1.86l6.11-.15"/><path class="cls-2" d="M62.14,261.72s.73,2.82,1.41,3.46a13.24,13.24,0,0,1,.56,6.55"/><path class="cls-2" d="M52.39,266.09A6.24,6.24,0,0,0,55,267.23a21.64,21.64,0,0,1,4,.5l2,.77"/><path class="cls-2" d="M53.53,252.56a8.54,8.54,0,0,0,.36,3.19s2,4.42,2,5.29l.13,2.83"/><path class="cls-2" d="M48.83,258.76s1.87,2.09,2.37,2.18l3.09.95"/><path class="cls-2" d="M113.63,223.78s-2.47,4-2.47,5.12c0,0-.9,4.27-1.62,5l-2.19,2.88"/><path class="cls-2" d="M127.72,218.84s-4.33,3.13-4.51,3.74a8.06,8.06,0,0,0-1.78,3.78"/><path class="cls-2" d="M117.22,229.84a12.47,12.47,0,0,0,4.72,0s4.82-.7,5.78-1.42c0,0,4.4-.85,5.12-.79a15.81,15.81,0,0,1,4.63,0"/><path class="cls-2" d="M101.65,240.78a16.55,16.55,0,0,0,6.56,1.3,12.14,12.14,0,0,0,5.06-.65s3.79-1.58,5.6-1.27"/><path class="cls-3" d="M44,243.91s6.64,14.78,8.9,16.32c0,0,4.38,5.35,7.37,7.61,0,0,6.57,6.56,7.22,7.44"/><path class="cls-3" d="M79.92,225l-17-6.24s-12.89-3.53-19-7.46a69.18,69.18,0,0,1-13.43-13.84l-3.79-6.24"/><path class="cls-3" d="M85.63,249.44s11.89-4.27,16-8.66L114.17,232s7.26-4.91,7.26-5.61c0,0,8.87-4.52,12.34-5.1,0,0,8.06-1.22,9.86-1.22,0,0,8.06,0,10,.23"/><path class="cls-4" d="M44.56,38.45S55.45,19.12,65,14.46c0,0,16.44-11.11,19.11-12.66,0,0,8.88-.45,13.1-1.56,0,0,16.44-2,25.77,22.22,0,0-7.56,4.77-10,3.44S109.6,21,109.6,21s-5.47,1.7-7.74,0-3.21-5.48-6.6-6.23S82.42,13.44,80.72,14s-10.38,8.12-9.81,18.12,1.7,18.12,3.77,20.2c0,0,2.69,14.5-2.74,25.36,0,0-1.63,3.62-2.71,2.53s-5.44-7.78-5.8-11.58S57.28,50.89,51.85,47.27c0,0-5.43-5.07-6-6A27,27,0,0,1,44.56,38.45Z"/><path class="cls-4" d="M116.79,10.94s11.39-5.25,16.26-4.89,19.38,3,25.32,10,9.75,5.83,13.08,16.53c0,0,.11,9.41-1.07,15.12s-11.27,18.9-14.49,22.83-4.21,6.3-7,8.66-2.37,0-2.37,0a11.92,11.92,0,0,0,2.81-5.48c.45-2.23-.14-3-.19-7.11a45.57,45.57,0,0,1,.49-7.13c.49-3.58.73-5.37,1.45-6.81,1.94-3.84,4.45-3,7.14-7.3a13.32,13.32,0,0,0,2.19-7.5,12.88,12.88,0,0,0-1-4.56A15.67,15.67,0,0,0,154.83,27s-2.06-2.41-4.57-2.53-7.87.72-8.59.36-2.5-3.34-12.17-3.58c0,0-7.07-.59-6.52,1.2C123,22.46,119.34,14,116.79,10.94Z"/><path class="cls-4" d="M74.68,52.32s5.87,5.07,6.17,3.25,0-10.88,1.51-11.79c0,0-4.54-7.56-2.57-12.55,0,0,3.78-8,7.86-8.62,0,0,16.39.88,14.21-1.62,0,0-3.39-5-6.6-6.23,0,0-10.43-1.8-14.54-.76A21.09,21.09,0,0,0,70.9,30.33S70.93,46.8,74.68,52.32Z"/><path class="cls-4" d="M110.88,28.55a16.66,16.66,0,0,1,3.31-2.42s3.62-.07,5.37-1.77l3.42-1.9s-.47-1.45,3.81-1.29c0,0,9.78,0,12.94,2.25l1.94,1.42a17.92,17.92,0,0,1,0,8.38c-1.14,4.2-.52,7.58-2.88,9.21,0,0-9.7-5.53-12.26-8.8,0,0-3.4-4.33-8.67-4.22C117.86,29.41,112.14,27.16,110.88,28.55Z"/><path class="cls-4" d="M140.14,57.13a83.16,83.16,0,0,1,11-4.49,9.74,9.74,0,0,1,2.69-3.07c1.69-1.18,4.18-2.64,4.45-4.23,0,0,2.45-4.16,2.19-6.88,0,0-.46-8.11-5.62-11.45a10.55,10.55,0,0,0-4.57-2.53l-8.59.36a15.8,15.8,0,0,1,.36,6.61l-1.72,8.86-1.52,2.12Z"/><path class="cls-4" d="M110.88,28.55s-6.37-1-9.69,2.13S86.07,42.12,86.48,44.18v1.6l-4.11-2s-4.64-7.54-2.57-12.55c0,0,3.82-8,7.86-8.62,0,0,13.74,1.27,14.21-1.62a10.66,10.66,0,0,0,7.74,0s.64,3.46,3.38,4.91l1.21.23Z"/><path class="cls-4" d="M99.28,78.62,83.77,63.13s-3.12-3.61-2.92-7.56c0,0-1.24,1.31-6.17-3.25a47.18,47.18,0,0,1-1,21,9.71,9.71,0,0,1-1.72,4.34S70.78,80,69.23,80.21a14.55,14.55,0,0,1,5.24,0,4.56,4.56,0,0,1,4.79-2.94,32.07,32.07,0,0,1,6.26.11s7.34,6,9.25,6.48c0,0,3.51-.74,3.51-1.59A20.74,20.74,0,0,1,99.28,78.62Z"/><path class="cls-4" d="M107.36,66.94s-4.79-7.47-8.53-9.81c0,0-14.17-8.24-16.47-13.35a37.22,37.22,0,0,0-1.51,11.79s-2.36,3.79,12.54,17.16l5.89,5.89S105.6,68.81,107.36,66.94Z"/><path class="cls-4" d="M138.79,42.43s-10.1,7-13.31,11.2c0,0-16,13.8-18.12,13.31,0,0-5.17-7.46-10.64-11.09,0,0-11.81-6.12-14.36-12.07l4.11,2v-1.6a33.31,33.31,0,0,1,4.86-5.44l7.94-6.43s3.33-2.81,4.55-3.17c0,0,1.79-.86,7-.59a2,2,0,0,1,1.75-.45s4.48.4,5.23,1.31a19,19,0,0,1,6.16,2s4.55,4.36,6.2,5.53C130.22,36.9,137.87,41.93,138.79,42.43Z"/><path class="cls-4" d="M140.14,57.13s0,.77-3,3.16-13,5.8-14.89,8.93-14.62,14.74-14.9,19l-1.48.75s-10.61-3-11.11-5.16c0,0,3.34-.6,3.51-1.59l1-3.65s6.85-11.34,8.08-11.68c0,0,5.36-2,7.48-4.6,0,0,9.83-7.75,10.64-8.71,0,0,4.78-5.41,6.14-5.79l7.17-5.41Z"/><path class="cls-4" d="M141.39,92.74s1.12-9.92,5.17-13.57c0,0,2.64-3.77,2.81-5.48,0,0,0-2.3-.09-4.71,0,0-.29-7.49.26-8.56,0,0,.92-6.22,1.25-7l.33-.78s-8.86,3.06-11,4.49c0,0-2.82,4.43-11,7.41,0,0-6.72,3.24-6.91,4.68,0,0-6.57,8.32-7.78,8.75,0,0-6,6.76-6.56,8.53a2.58,2.58,0,0,0-.56,1.77l0,1.39s7.58,2.8,11.3,3.08a107.45,107.45,0,0,0,11.19,1.2s7.33.62,9.81.44C139.64,94.38,141.23,93.85,141.39,92.74Z"/><path class="cls-4" d="M141.39,92.74S153,87,154.06,83.86c0,0,2-9.26.38-11.5a49.44,49.44,0,0,1-5.51,6.81,1.87,1.87,0,0,1-2.32.69l-.05-.69a18.82,18.82,0,0,0-3.51,6.19S141.24,91.07,141.39,92.74Z"/><path class="cls-4" d="M74.47,80.21a9.8,9.8,0,0,1,4.79,1c2,1.15,13.08,9.14,15.51,9.14,0,0,15.51,10,24.19,11.22,0,0,13,2.9,14.81,2.66,0,0,4.46,1.28,7.61.47,0,0,13.33-7.29,13.22-8.91,0,0,10-9.84,9.49-14.82V80.2s-8.46,3.46-9,2.35h-.76s.17,2-2.6,3.94c0,0-5.85,4.17-6.88,4.41l-3.45,1.84s-.14,1-1.75,1.64c0,0-10.36,0-13.28-.66,0,0-15-1.4-19-4.06l0-1.39-1.48.75s-8.61-2-11.11-5.16c0,0-6.3-3.53-9.25-6.48a27.66,27.66,0,0,0-6.26-.11S75.54,77.07,74.47,80.21Z"/><path class="cls-4" d="M46.44,35.31s-.57-.75-5,0-15.65,10.88-18,14.87-12,16-12.12,22.18S8.74,82.09,8.74,99.58c0,0-2,5.83-1.84,9.82,0,0,7.56,4.78,10.78,8.34,0,0,13.89,10.45,21.81,12.51,0,0,9.3,2.53,13.09,5.4,0,0,12.4.69,15.16,0,0,0,13.86,2.07,16.52,2.07,0,0,11.15.34,13-1.27,0,0,8.36-2.64,10.09-2.87l7.47-.8s-15.69-5.64-18.16-5.64S85.8,123.37,82,121.6c0,0-5.42-.12-9.08-2.12,0,0-12.15-3.19-15.33-6.61,0,0-5.29-7.5-5.29-10.93l-1.51-.55s-1.65,2.19-2.61,3.57a47.24,47.24,0,0,0-3.56-5,48.62,48.62,0,0,0-4.79-5.11,64.42,64.42,0,0,1-4-5.45q-1.38-2.09-2.46-4s-4-8.38-4.95-13.19c-.18-1-.49-2.55-1-4.43-.84-3.25-1.12-3.27-1.09-4.09.1-3,5.61-3,6.74-7.63.3-1.22,1.37-5.91,3.62-7.67,0,0,1.76-5.66,4.59-7l3.26-2.82Z"/><path class="cls-4" d="M44.56,38.45,41.3,41.27s-3.28,1.78-4.59,7c0,0-2.56,2.12-3.62,7.67,0,0-.43,3.13-3.14,4.06,0,0-3.32,1.4-3.6,3.57,0,0,1.3,4.37,2.06,8.52,0,0,2.57,9.61,5.55,14.24,0,0,4.64,7.72,6.69,9.2,0,0,6.07,6.63,7.55,9.4l2.61-3.57,1.51.55a7.56,7.56,0,0,1,6.12.42A38,38,0,0,0,76,105.85s9.6.55,13.75,2.84a8.21,8.21,0,0,0,4.28,1.2s8.7.34,12.08,0a10.73,10.73,0,0,1-5.57-3.6s-10.25-2.18-12.87-4.48c0,0-9.27-2.72-12.43-5.56,0,0-8.08-5.23-11.24-8.07a11.6,11.6,0,0,1-5.24-3.38c-2.07-2.51-9.22-10.63-10.44-12.44s-9.76-5.46-10.3-8-.4-9.09,1.76-10.71c0,0,4.34-2.58,5.7-2.58l1.76-.68S52.39,66.68,59.3,74.25c0,0,2.23.21,3.18-2.71l1-2.91h0S59,52.08,51.85,47.27l-6-6Z"/><path class="cls-4" d="M114.81,132.78a12.16,12.16,0,0,0,2.65-8.5c-.19-5.54-6-13.09-11.35-14.39,0,0-12.73,0-13,0A13.17,13.17,0,0,1,88.23,108,56.3,56.3,0,0,0,76,105.85s-8.22.5-9.77-.85c0,0-6.16-1.31-7.79-2.64a9.08,9.08,0,0,0-6.12-.42s.59,4.86,5.29,10.93c0,0,4.83,4.56,15.33,6.61A24.3,24.3,0,0,0,82,121.6s10.26,4.84,13.06,5.28a40.67,40.67,0,0,1,10.8,2.83Z"/><path class="cls-4" d="M59.3,74.25s-2.6,5.56-2.23,8.54c0,0,3,4.38,6.93,5.39l2.23-.79s.73-3.32,2.35-4.49l.65-2.69a31.88,31.88,0,0,1-2.67-3.86,33.41,33.41,0,0,1-3.21-7.25,6.12,6.12,0,0,1-.68,2.16A6.68,6.68,0,0,1,59.3,74.25Z"/><path class="cls-4" d="M59.3,74.25S56.78,79,57.07,82.79L48.32,72.36a23.39,23.39,0,0,0-5.87-4s-3.69-2.12-4.43-4c0,0-.69-7.1,1-9.89,0,0,3.45-2.72,6.41-3.4l1.76-.68s3.11,9.24,4,10.48c0,0,3.47,7.89,6.32,11.33Z"/><path class="cls-4" d="M171.44,35s-.83-.48,7.71,3.47c0,0,12.66,6.6,15.67,7.33,0,0-9.49,16.2-9.18,22.31a29.47,29.47,0,0,0-1.9,15.77,27.11,27.11,0,0,0-7.34,6.71c-2.55,3.42-3.14,6-5.79,6.74-2.09.57-3.24-.62-5.5.31-1.51.63-2.27,1.68-3.41,3.14-1.36,1.74-3.37,4.19-6.13,7.16l-5.17,3.81-7.34,5.42-3.38,1.24s6.08-4,7.52-6.34c0,0,4.12-8,4.78-9.58l2.62-6.69s8.44-9.26,9-12a7.06,7.06,0,0,0,.54-3.54s-5.06,2.68-9.78,2.35c0,0,1.58-7.47.12-10.19,0,0,9.1-11.27,9.44-12.57,0,0,6-8.66,6.5-12.11C170.38,47.68,172,36.52,171.44,35Z"/><path class="cls-4" d="M124.78,128.15s5.91,1.55,9.38,0l1-1.73s6.42.53,10.59-2.6c0,0,13.37-5.21,16.49-12a16.3,16.3,0,0,1-.53-4.76s-15,11.72-20.37,12.79l-8,2.74-5.84,3.23Z"/><path class="cls-4" d="M170.61,97.31a26.5,26.5,0,0,1-3,5.51c-1.43,1.67-5.89,4.27-5.89,4.27l-10,7.24s-5.49,3.92-8.51,4.93L135.07,122l-1.71.59,6.32-4.23,3.38-1.24L152.8,110l2.77-2,5.19-6s3-4.19,4.35-4.33a3.42,3.42,0,0,1,2.69-.31s1.63.4,2,.15Z"/><path class="cls-4" d="M154.6,95.78s-4.69,12.84-7.4,16.27-14.44,11.38-18,12.83-9.12,8.13-9.12,9V137s-2.87-4.46-5.3-4.2a15.36,15.36,0,0,0,2.45-10.08s-2.21-9.55-11.15-12.81c0,0-2.55-.52-5.57-3.6,0,0-11.33-2.38-12.87-4.48,0,0-9.15-2.58-11.07-4.56l-7.85-5.41L64,88.18l2.23-.79s1-3.66,2.35-4.49l.65-2.69a10.8,10.8,0,0,1,5.24,0s3.91-.28,6,1.76c0,0,9.92,7,11.34,7.21a6.68,6.68,0,0,0,3,1.16s8.77,5.77,10,5.74c0,0,7.91,4.58,14.2,5.48,0,0,11.22,2.57,14.81,2.66a16.5,16.5,0,0,0,7.61.47s10.58-6.08,10.87-6.6Z"/><path class="cls-4" d="M121.2,139.26l13.69-4.6s-4.69-2.43-5-3.06a11.29,11.29,0,0,0-4.35-.18s-2.82,2.59-3.17,4.28a3.21,3.21,0,0,0-.34,1.69Z"/><path class="cls-4" d="M181.15,119.14a14.42,14.42,0,0,1-.61,6.17c-1.07,2.76-1.43,5.17-2.95,6.69s-6.87,3.74-9.27,4.37c0,0-16.33,5.17-17.76,6.6,0,0-11.68,5.8-20.69,6.51,0,0-7.32.92-9.37,1.44,0,0,1,.58-5.12.25l-.57-.25s4.86-3.16,6-5.56c0,0,1.53-3.83.44-6.1L120.11,137v-3.07s1.54-3,2.34-3.31l2.33-2.45s5.82,1.74,9.38,0l1-1.73s7.14.24,10.59-2.6c0,0,7.59-3,9.15-4.71a17.43,17.43,0,0,0,7.34-7.26s-.93-3.34-.53-4.76c0,0,4.89-2.72,5.5-3.86,0,0,2.69-3.43,3.36-5.92,0,0,2.14-.59,2.75-2.09a30.6,30.6,0,0,1,7.94-9.63l2.44-1.73s-1.81-7,1.9-15.77c0,0,.17-4,1.23-5.86,0,0,1.74-5.16,2.56-6.14l2.71-5.45a8,8,0,0,0,2.32,2.94c1.52,1.09,5.49,6.67,7.2,7.21,0,0,6.39,8.92,8.56,15.23l1.08,2s-6.76,1.62-8.65,6.93c0,0-6.49,5.68-7,8.92,0,0-11.31,14.67-11.88,19.38L182.17,118s-3.41,4.23-6.41,5.51S154,134.31,149.63,134.59c0,0-5.57,3.57-6.1,4.42a36.68,36.68,0,0,0-8.22-4.13,54.37,54.37,0,0,1-5.42-3.28s-3.47-.62-4.35-.18c0,0-3.59,3.25-3.51,6l-.83,1.87"/><path class="cls-4" d="M41.3,130.78s0,4.41,2.21,6.2c0,0,6.44,7.24,12.76,7.74,0,0,4.45.25,5.69,1.24a56.28,56.28,0,0,1,8.67,5.31s41.56.15,44.18-.35c0,0,5.37-3.55,6-5.56,0,0,1.53-3.83.44-6.1L120.11,137s-3.12-4.43-5.3-4.2l-7.47.8s-8.79,2.75-10.09,2.87a9.75,9.75,0,0,1-2.72.87,78.52,78.52,0,0,1-10.27.4l-4.75-.45-11.77-1.62s-6.14.39-10.65.2l-4.51-.2A39.08,39.08,0,0,0,41.3,130.78Z"/><path class="cls-4" d="M120.11,137s-3.3,10.54-9.23,14.13l3.93-.19s4-2.95,4.41-3.48c0,0,3.07-2.84,2-8.18Z"/><path class="cls-4" d="M51.23,143.1s-8.35,2.05-15.08,3.32c0,0-9.75,5-12.42,6.16V154a18.21,18.21,0,0,1,10.1,3.6s21.59,9.52,25.42,13.82c0,0,12.43,7.43,15.79,8,0,0,10.8,2.2,12.54,4.18,0,0,15.91,3.48,17.88,3.48q2.52-.52,5.2-1c2.69-.46,5.29-.81,7.77-1.08l1.89-.18c2.16-.2,3.73-.39,4-.42a56.94,56.94,0,0,1,9,0l6.82,2.67s4.53-6.74,7.43-7.08c0,0,3.14-4.3,15.45-8.48,0,0,5.68-2.55,8.35-2.67,0,0,10.91-11.15,13.7-15,0,0,8.36-13.52,11.73-14.59h3.25s-1.74-5.66-.7-8.48c0,0,1.86-7.72,1.86-12.81,0,0-.35-12.34,0-14.52v-3.7s-2.43-6.22-5.63-5.9c0,0-7.58,9.82-8.43,12.08a22.12,22.12,0,0,0-2.28,4c-.29.68-.48,1.22-1.17,3.27-.4,1.19-.94,2.81-1.57,4.74,0,0-1.37.48-1.08,5.13,0,0-1.82,6.28-3,8.33a8.32,8.32,0,0,1-3,2.23,41.61,41.61,0,0,1-5.28,2.25l-8.12,2.64s-8,2.87-9.06,3.33a9.1,9.1,0,0,0-2.05,1.09L146,145s-8.2,3.2-9.94,3.38c0,0-2.55.34-6.18,1.09,0,0-8.08.83-9.37,1.44,0,0,0,.63-5.12.25l-.57-.25-3.93.19-17.31.17H76.48l-5.85,0S64.75,147.1,62,146c0,0-1.48-1-5.69-1.24A12.29,12.29,0,0,1,51.23,143.1Z"/><path class="cls-4" d="M17.68,117.74s-9,2.85-10.79,6.75-2.53,13.26-2.53,13.26-1.77,14-3.9,16c0,0,11.88,1.24,15.78,6.38a51.76,51.76,0,0,0,6.74,8,53.37,53.37,0,0,0,17.73,11.38,10.19,10.19,0,0,1,2.61-2.35A22.64,22.64,0,0,0,46.67,175a3.54,3.54,0,0,1,.49-.45,3.92,3.92,0,0,1,.6-.37,3.56,3.56,0,0,1,.47-.18,39.7,39.7,0,0,1,4.09-.75l8.53-.92s-10.25-6.65-12.26-7.68c0,0-14.47-6.28-15.68-7.73,0,0-4.91-3.25-9.18-2.94v-1.39l12.42-6.16,15.08-3.32a24.83,24.83,0,0,1-7.35-5.72s-2.52-1.61-2.58-6.6a37.87,37.87,0,0,1-9.84-4s-11.82-7-12.57-8.1Z"/><path class="cls-4" d="M201.12,105.77a10.21,10.21,0,0,1,5.14.51s6.16,5.45,10.61,7l1.42.61a31.24,31.24,0,0,1,1.41,12.53c-.74,5.67-2.51,19.93-2.79,24,0,.36,0,.64,0,.83v9.88s-4.76-1.21-6.37.5c0,0-6.16,1-8.38,4.15l-5.56,4.75s-9.7,3.64-11.12,5.45H171.5l-6.15-2.54v-2.91a29.38,29.38,0,0,1,6.06-1.72l7.19-7.53s6.1-6.29,6.51-7.45c0,0,6-9.34,7-10.08,0,0,3.59-4.31,4.74-4.51h3.25s-1.35-4.58-1-6.53c0,0,.65-5,1.2-6.12a67,67,0,0,0,1-8.64Z"/><path class="cls-4" d="M86.47,45.78s9.94,5.27,14,5.92c0,0,13.28,1.62,17.83.94a55.46,55.46,0,0,0,6.38-2.28s1.79-.22,2,2c0,0-2.69,2.7-8.08,7l-6,4.9a27,27,0,0,1-5.24,2.68s-5.8-7.88-7.35-8.47c0,0-2.48-2.67-4.73-3.42,0,0-5.9-3.66-7.52-5,0,0-5.26-4.28-5.4-6.22Z"/><path class="cls-4" d="M92.16,48.6s-4.43-2.75,5.91-10.15c0,0,3.45-5.91,6.45-6.65,0,0,9.19-1.71,12.27,1.58,0,0,8.37,3.65,11.6,9a48.09,48.09,0,0,1,.84,7.26l9.56-7.26-8.57-5.53a38.34,38.34,0,0,1-3.69-3.27L124,31.37a19.86,19.86,0,0,0-6.16-2,14.58,14.58,0,0,0-5.23-1.31s-1.37-.45-1.75.45a22.52,22.52,0,0,0-7,.59s-2.28.8-5.87,4.24L94,36.56a56,56,0,0,0-4.5,3.75l-3,3.87v1.6Z"/><path class="cls-4" d="M116,35a7.3,7.3,0,0,0-7.1.66s-7.32,6.41-9.2,8.14-2.87,4.6-.44,7.65L92.16,48.6s-2.63-1.51,1.25-6.17c0,0,2.46-2.73,3.85-3.38l.81-.6s2.32-3.94,3.69-4.85c0,0,1.69-1.64,2.76-1.8,0,0,3-.23,3.9-.42,0,0,2.37,0,3.25.07,0,0,3.2.3,4.54,1.43l.58.5Z"/><path class="cls-4" d="M121.93,42.63s-4.11-1.93-7.74-1.23c0,0-3.51.45-4.89,1.73a3.1,3.1,0,0,0-1.94,3.19v1.2a30.55,30.55,0,0,0,6.83.39s1.25-.89.44-1.59-4.5.4-5.33-.54c0,0-.27-1.21,1.58-2a8.77,8.77,0,0,1,3.75-.65S120.87,42.27,121.93,42.63Z"/><path class="cls-4" d="M112.63,41.4s-6-1.62-8.59,1.73c0,0-3.63,2.13-.72,4.39,0,0,3.3,2.12,12.27,1.2,3.17-.22,5.69-1.65,6.34-3.74a3.93,3.93,0,0,0,.12-1.72,10.55,10.55,0,0,1,1.14.81,11.08,11.08,0,0,1,2.41,2.74s0,3.11-.94,3.55l-4.48,1.69-1.9.59a45.5,45.5,0,0,1-9.57-.13l-6.36-.6-1.9-.21-1.17-.27s-1.16-.64-1.43-3.91a5.5,5.5,0,0,1,2.29-4.12l4-3.59S112.2,39.59,112.63,41.4Z"/><path class="cls-4" d="M116,35l.77-1.6s8,3.81,10.79,7.87l.81,1.18s1.2,6.6.84,7.26l-2.56,2.63a1.8,1.8,0,0,0-2-2,4.75,4.75,0,0,0,.94-3.55s-1.7-2.85-3.55-3.55l-.12-.63A15.6,15.6,0,0,0,116,41.25a16.5,16.5,0,0,0-3,.37l-.34-.22a.93.93,0,0,0-.53-.61,11.31,11.31,0,0,0-2.07-.65s-2.52-.31-3.81-.32h-2l4.74-4.17a7.6,7.6,0,0,1,4.18-1.29,6.22,6.22,0,0,1,2.25.36Z"/></g></g></svg>