<svg xmlns="http://www.w3.org/2000/svg" viewBox="0 0 37.84 57.14"><defs><style>.cls-1{fill:#cda868;}.cls-2{fill:none;stroke:#ad8b5e;stroke-miterlimit:10;stroke-width:0.5px;}</style></defs><g id="Layer_2" data-name="Layer 2"><g id="Page_4" data-name="Page 4"><path class="cls-1" d="M16.11.11S3.42,3.82,0,26.05c0,0,1.86,22.14,12.41,29.15,0,0,9.16,3.2,14.56,1.39,0,0,7.77-.41,10.85-6.31,0,0,.51-15.42-4.52-23.44,0,0-7.14-13.06-7.65-15.43,0,0-4.6-10.19-5.88-10.95S16.11.11,16.11.11Z"/><path class="cls-2" d="M4.29,44s7.85,1.86,12.74-.77a6.09,6.09,0,0,0,3,1.38c1.72.23,7.53,2.14,10.81-1.8"/><path class="cls-2" d="M17,43.26s2.74-.31,2.85-1.46S20.42,20,14.63,5.71"/><path class="cls-2" d="M20,44.64s3.25,4.44,6.18,4.14"/></g></g></svg>