<svg xmlns="http://www.w3.org/2000/svg" viewBox="0 0 43.17 53.32"><defs><style>.cls-1{fill:#cda868;}.cls-2{fill:none;stroke:#ad8b5e;stroke-miterlimit:10;stroke-width:0.5px;}</style></defs><g id="Layer_2" data-name="Layer 2"><g id="Page_4" data-name="Page 4"><path class="cls-1" d="M40.69,1.26s-11.8-5.94-29.47,8C11.22,9.24-2.52,26.7.41,39c0,0,4.52,8.59,9.7,10.95,0,0,6,5,12.24,2.79,0,0,10.89-10.93,12.68-20.23,0,0,3.69-14.42,4.93-16.5,0,0,3.59-10.58,3.17-12S40.69,1.26,40.69,1.26Z"/><path class="cls-2" d="M2.1,25.32S6.56,32,11.93,33.44a6.19,6.19,0,0,0,1.23,3c1.1,1.34,4,6.7,9.13,6.06"/><path class="cls-2" d="M11.93,33.44s2.22,1.64,3.09.87,15.26-15.57,20.77-30"/><path class="cls-2" d="M13.16,36.47s-.65,5.46,1.69,7.24"/></g></g></svg>