<svg xmlns="http://www.w3.org/2000/svg" viewBox="0 0 42.93 55.06"><defs><style>.cls-1{fill:#cda868;}.cls-2{fill:none;stroke:#ad8b5e;stroke-miterlimit:10;stroke-width:0.5px;}</style></defs><g id="Layer_2" data-name="Layer 2"><g id="Page_4" data-name="Page 4"><path class="cls-1" d="M9.45.67S-1.91,7.41.28,29.79c0,0,7.3,21,19.25,25.17,0,0,9.68.82,14.46-2.26,0,0,7.42-2.34,8.94-8.81,0,0-3.33-15.06-10.19-21.59,0,0-10.16-10.88-11.24-13,0,0-7-8.73-8.41-9.15S9.45.67,9.45.67Z"/><path class="cls-2" d="M8.9,46.15S17,46,21.05,42.25a6.11,6.11,0,0,0,3.21.59c1.72-.19,7.83.22,10-4.41"/><path class="cls-2" d="M21.05,42.25s2.57-1,2.39-2.13-4.88-21.25-14-33.65"/><path class="cls-2" d="M24.26,42.84s4.25,3.5,7,2.49"/></g></g></svg>